<ttFont>
<head>
    <!-- Most of this table will be recalculated by the compiler -->
    <tableVersion value="1.0"/>
    <fontRevision value="5.0"/>
    <checkSumAdjustment value="0x9d5110f0"/>
    <magicNumber value="0x5f0f3cf5"/>
    <flags value="00000000 00001011"/>
    <unitsPerEm value="2048"/>
    <created value="Sun May 15 08:57:39 2005"/>
    <modified value="Fri Apr 15 06:02:14 2011"/>
    <xMin value="-125"/>
    <yMin value="-1132"/>
    <xMax value="6134"/>
    <yMax value="2299"/>
    <macStyle value="00000000 00000000"/>
    <lowestRecPPEM value="8"/>
    <fontDirectionHint value="2"/>
    <indexToLocFormat value="1"/>
    <glyphDataFormat value="0"/>
  </head>
    <TTGlyph name=".notdef" xMin="142" yMin="226" xMax="842" yMax="1588">
      <contour>
        <pt x="142" y="226" on="1"/>
        <pt x="142" y="1588" on="1"/>
        <pt x="842" y="1588" on="1"/>
        <pt x="842" y="226" on="1"/>
      </contour>
      <contour>
        <pt x="284" y="368" on="1"/>
        <pt x="700" y="368" on="1"/>
        <pt x="700" y="1447" on="1"/>
        <pt x="284" y="1447" on="1"/>
      </contour>
    </TTGlyph>
    <TTGlyph name=".null" xMin="142" yMin="226" xMax="842" yMax="1588">
      <contour>
        <pt x="142" y="226" on="1"/>
        <pt x="142" y="1588" on="1"/>
        <pt x="842" y="1588" on="1"/>
        <pt x="842" y="226" on="1"/>
      </contour>
      <contour>
        <pt x="284" y="368" on="1"/>
        <pt x="700" y="368" on="1"/>
        <pt x="700" y="1447" on="1"/>
        <pt x="284" y="1447" on="1"/>
      </contour>
    </TTGlyph>
    <TTGlyph name="afii57381" xMin="142" yMin="226" xMax="842" yMax="1588">
      <contour>
        <pt x="142" y="226" on="1"/>
        <pt x="142" y="1588" on="1"/>
        <pt x="842" y="1588" on="1"/>
        <pt x="842" y="226" on="1"/>
      </contour>
      <contour>
        <pt x="284" y="368" on="1"/>
        <pt x="700" y="368" on="1"/>
        <pt x="700" y="1447" on="1"/>
        <pt x="284" y="1447" on="1"/>
      </contour>
    </TTGlyph>
    <TTGlyph name="afii57388" xMin="142" yMin="226" xMax="842" yMax="1588">
      <contour>
        <pt x="142" y="226" on="1"/>
        <pt x="142" y="1588" on="1"/>
        <pt x="842" y="1588" on="1"/>
        <pt x="842" y="226" on="1"/>
      </contour>
      <contour>
        <pt x="284" y="368" on="1"/>
        <pt x="700" y="368" on="1"/>
        <pt x="700" y="1447" on="1"/>
        <pt x="284" y="1447" on="1"/>
      </contour>
    </TTGlyph>
    <TTGlyph name="afii57396" xMin="142" yMin="226" xMax="842" yMax="1588">
      <contour>
        <pt x="142" y="226" on="1"/>
        <pt x="142" y="1588" on="1"/>
        <pt x="842" y="1588" on="1"/>
        <pt x="842" y="226" on="1"/>
      </contour>
      <contour>
        <pt x="284" y="368" on="1"/>
        <pt x="700" y="368" on="1"/>
        <pt x="700" y="1447" on="1"/>
        <pt x="284" y="1447" on="1"/>
      </contour>
    </TTGlyph>
    <TTGlyph name="afii57397" xMin="142" yMin="226" xMax="842" yMax="1588">
      <contour>
        <pt x="142" y="226" on="1"/>
        <pt x="142" y="1588" on="1"/>
        <pt x="842" y="1588" on="1"/>
        <pt x="842" y="226" on="1"/>
      </contour>
      <contour>
        <pt x="284" y="368" on="1"/>
        <pt x="700" y="368" on="1"/>
        <pt x="700" y="1447" on="1"/>
        <pt x="284" y="1447" on="1"/>
      </contour>
    </TTGlyph>
    <TTGlyph name="afii57398" xMin="142" yMin="226" xMax="842" yMax="1588">
      <contour>
        <pt x="142" y="226" on="1"/>
        <pt x="142" y="1588" on="1"/>
        <pt x="842" y="1588" on="1"/>
        <pt x="842" y="226" on="1"/>
      </contour>
      <contour>
        <pt x="284" y="368" on="1"/>
        <pt x="700" y="368" on="1"/>
        <pt x="700" y="1447" on="1"/>
        <pt x="284" y="1447" on="1"/>
      </contour>
    </TTGlyph>
    <TTGlyph name="afii57403" xMin="142" yMin="226" xMax="842" yMax="1588">
      <contour>
        <pt x="142" y="226" on="1"/>
        <pt x="142" y="1588" on="1"/>
        <pt x="842" y="1588" on="1"/>
        <pt x="842" y="226" on="1"/>
      </contour>
      <contour>
        <pt x="284" y="368" on="1"/>
        <pt x="700" y="368" on="1"/>
        <pt x="700" y="1447" on="1"/>
        <pt x="284" y="1447" on="1"/>
      </contour>
    </TTGlyph>
    <TTGlyph name="afii57407" xMin="142" yMin="226" xMax="842" yMax="1588">
      <contour>
        <pt x="142" y="226" on="1"/>
        <pt x="142" y="1588" on="1"/>
        <pt x="842" y="1588" on="1"/>
        <pt x="842" y="226" on="1"/>
      </contour>
      <contour>
        <pt x="284" y="368" on="1"/>
        <pt x="700" y="368" on="1"/>
        <pt x="700" y="1447" on="1"/>
        <pt x="284" y="1447" on="1"/>
      </contour>
    </TTGlyph>
    <TTGlyph name="afii57440" xMin="142" yMin="226" xMax="842" yMax="1588">
      <contour>
        <pt x="142" y="226" on="1"/>
        <pt x="142" y="1588" on="1"/>
        <pt x="842" y="1588" on="1"/>
        <pt x="842" y="226" on="1"/>
      </contour>
      <contour>
        <pt x="284" y="368" on="1"/>
        <pt x="700" y="368" on="1"/>
        <pt x="700" y="1447" on="1"/>
        <pt x="284" y="1447" on="1"/>
      </contour>
    </TTGlyph>
    <TTGlyph name="afii57451" xMin="142" yMin="226" xMax="842" yMax="1588">
      <contour>
        <pt x="142" y="226" on="1"/>
        <pt x="142" y="1588" on="1"/>
        <pt x="842" y="1588" on="1"/>
        <pt x="842" y="226" on="1"/>
      </contour>
      <contour>
        <pt x="284" y="368" on="1"/>
        <pt x="700" y="368" on="1"/>
        <pt x="700" y="1447" on="1"/>
        <pt x="284" y="1447" on="1"/>
      </contour>
    </TTGlyph>
    <TTGlyph name="afii57452" xMin="142" yMin="226" xMax="842" yMax="1588">
      <contour>
        <pt x="142" y="226" on="1"/>
        <pt x="142" y="1588" on="1"/>
        <pt x="842" y="1588" on="1"/>
        <pt x="842" y="226" on="1"/>
      </contour>
      <contour>
        <pt x="284" y="368" on="1"/>
        <pt x="700" y="368" on="1"/>
        <pt x="700" y="1447" on="1"/>
        <pt x="284" y="1447" on="1"/>
      </contour>
    </TTGlyph>
    <TTGlyph name="afii57453" xMin="142" yMin="226" xMax="842" yMax="1588">
      <contour>
        <pt x="142" y="226" on="1"/>
        <pt x="142" y="1588" on="1"/>
        <pt x="842" y="1588" on="1"/>
        <pt x="842" y="226" on="1"/>
      </contour>
      <contour>
        <pt x="284" y="368" on="1"/>
        <pt x="700" y="368" on="1"/>
        <pt x="700" y="1447" on="1"/>
        <pt x="284" y="1447" on="1"/>
      </contour>
    </TTGlyph>
    <TTGlyph name="afii57454" xMin="142" yMin="226" xMax="842" yMax="1588">
      <contour>
        <pt x="142" y="226" on="1"/>
        <pt x="142" y="1588" on="1"/>
        <pt x="842" y="1588" on="1"/>
        <pt x="842" y="226" on="1"/>
      </contour>
      <contour>
        <pt x="284" y="368" on="1"/>
        <pt x="700" y="368" on="1"/>
        <pt x="700" y="1447" on="1"/>
        <pt x="284" y="1447" on="1"/>
      </contour>
    </TTGlyph>
    <TTGlyph name="afii57455" xMin="142" yMin="226" xMax="842" yMax="1588">
      <contour>
        <pt x="142" y="226" on="1"/>
        <pt x="142" y="1588" on="1"/>
        <pt x="842" y="1588" on="1"/>
        <pt x="842" y="226" on="1"/>
      </contour>
      <contour>
        <pt x="284" y="368" on="1"/>
        <pt x="700" y="368" on="1"/>
        <pt x="700" y="1447" on="1"/>
        <pt x="284" y="1447" on="1"/>
      </contour>
    </TTGlyph>
    <TTGlyph name="afii57456" xMin="142" yMin="226" xMax="842" yMax="1588">
      <contour>
        <pt x="142" y="226" on="1"/>
        <pt x="142" y="1588" on="1"/>
        <pt x="842" y="1588" on="1"/>
        <pt x="842" y="226" on="1"/>
      </contour>
      <contour>
        <pt x="284" y="368" on="1"/>
        <pt x="700" y="368" on="1"/>
        <pt x="700" y="1447" on="1"/>
        <pt x="284" y="1447" on="1"/>
      </contour>
    </TTGlyph>
    <TTGlyph name="afii57457" xMin="142" yMin="226" xMax="842" yMax="1588">
      <contour>
        <pt x="142" y="226" on="1"/>
        <pt x="142" y="1588" on="1"/>
        <pt x="842" y="1588" on="1"/>
        <pt x="842" y="226" on="1"/>
      </contour>
      <contour>
        <pt x="284" y="368" on="1"/>
        <pt x="700" y="368" on="1"/>
        <pt x="700" y="1447" on="1"/>
        <pt x="284" y="1447" on="1"/>
      </contour>
    </TTGlyph>
    <TTGlyph name="afii57458" xMin="142" yMin="226" xMax="842" yMax="1588">
      <contour>
        <pt x="142" y="226" on="1"/>
        <pt x="142" y="1588" on="1"/>
        <pt x="842" y="1588" on="1"/>
        <pt x="842" y="226" on="1"/>
      </contour>
      <contour>
        <pt x="284" y="368" on="1"/>
        <pt x="700" y="368" on="1"/>
        <pt x="700" y="1447" on="1"/>
        <pt x="284" y="1447" on="1"/>
      </contour>
    </TTGlyph>
    <TTGlyph name="afii57505" xMin="142" yMin="226" xMax="842" yMax="1588">
      <contour>
        <pt x="142" y="226" on="1"/>
        <pt x="142" y="1588" on="1"/>
        <pt x="842" y="1588" on="1"/>
        <pt x="842" y="226" on="1"/>
      </contour>
      <contour>
        <pt x="284" y="368" on="1"/>
        <pt x="700" y="368" on="1"/>
        <pt x="700" y="1447" on="1"/>
        <pt x="284" y="1447" on="1"/>
      </contour>
    </TTGlyph>
    <TTGlyph name="afii57506" xMin="142" yMin="226" xMax="842" yMax="1588">
      <contour>
        <pt x="142" y="226" on="1"/>
        <pt x="142" y="1588" on="1"/>
        <pt x="842" y="1588" on="1"/>
        <pt x="842" y="226" on="1"/>
      </contour>
      <contour>
        <pt x="284" y="368" on="1"/>
        <pt x="700" y="368" on="1"/>
        <pt x="700" y="1447" on="1"/>
        <pt x="284" y="1447" on="1"/>
      </contour>
    </TTGlyph>
    <TTGlyph name="afii57507" xMin="142" yMin="226" xMax="842" yMax="1588">
      <contour>
        <pt x="142" y="226" on="1"/>
        <pt x="142" y="1588" on="1"/>
        <pt x="842" y="1588" on="1"/>
        <pt x="842" y="226" on="1"/>
      </contour>
      <contour>
        <pt x="284" y="368" on="1"/>
        <pt x="700" y="368" on="1"/>
        <pt x="700" y="1447" on="1"/>
        <pt x="284" y="1447" on="1"/>
      </contour>
    </TTGlyph>
    <TTGlyph name="afii57508" xMin="142" yMin="226" xMax="842" yMax="1588">
      <contour>
        <pt x="142" y="226" on="1"/>
        <pt x="142" y="1588" on="1"/>
        <pt x="842" y="1588" on="1"/>
        <pt x="842" y="226" on="1"/>
      </contour>
      <contour>
        <pt x="284" y="368" on="1"/>
        <pt x="700" y="368" on="1"/>
        <pt x="700" y="1447" on="1"/>
        <pt x="284" y="1447" on="1"/>
      </contour>
    </TTGlyph>
    <TTGlyph name="afii57509" xMin="142" yMin="226" xMax="842" yMax="1588">
      <contour>
        <pt x="142" y="226" on="1"/>
        <pt x="142" y="1588" on="1"/>
        <pt x="842" y="1588" on="1"/>
        <pt x="842" y="226" on="1"/>
      </contour>
      <contour>
        <pt x="284" y="368" on="1"/>
        <pt x="700" y="368" on="1"/>
        <pt x="700" y="1447" on="1"/>
        <pt x="284" y="1447" on="1"/>
      </contour>
    </TTGlyph>
    <TTGlyph name="afii57511" xMin="142" yMin="226" xMax="842" yMax="1588">
      <contour>
        <pt x="142" y="226" on="1"/>
        <pt x="142" y="1588" on="1"/>
        <pt x="842" y="1588" on="1"/>
        <pt x="842" y="226" on="1"/>
      </contour>
      <contour>
        <pt x="284" y="368" on="1"/>
        <pt x="700" y="368" on="1"/>
        <pt x="700" y="1447" on="1"/>
        <pt x="284" y="1447" on="1"/>
      </contour>
    </TTGlyph>
    <TTGlyph name="afii57512" xMin="142" yMin="226" xMax="842" yMax="1588">
      <contour>
        <pt x="142" y="226" on="1"/>
        <pt x="142" y="1588" on="1"/>
        <pt x="842" y="1588" on="1"/>
        <pt x="842" y="226" on="1"/>
      </contour>
      <contour>
        <pt x="284" y="368" on="1"/>
        <pt x="700" y="368" on="1"/>
        <pt x="700" y="1447" on="1"/>
        <pt x="284" y="1447" on="1"/>
      </contour>
    </TTGlyph>
    <TTGlyph name="afii57513" xMin="142" yMin="226" xMax="842" yMax="1588">
      <contour>
        <pt x="142" y="226" on="1"/>
        <pt x="142" y="1588" on="1"/>
        <pt x="842" y="1588" on="1"/>
        <pt x="842" y="226" on="1"/>
      </contour>
      <contour>
        <pt x="284" y="368" on="1"/>
        <pt x="700" y="368" on="1"/>
        <pt x="700" y="1447" on="1"/>
        <pt x="284" y="1447" on="1"/>
      </contour>
    </TTGlyph>
    <TTGlyph name="afii57514" xMin="142" yMin="226" xMax="842" yMax="1588">
      <contour>
        <pt x="142" y="226" on="1"/>
        <pt x="142" y="1588" on="1"/>
        <pt x="842" y="1588" on="1"/>
        <pt x="842" y="226" on="1"/>
      </contour>
      <contour>
        <pt x="284" y="368" on="1"/>
        <pt x="700" y="368" on="1"/>
        <pt x="700" y="1447" on="1"/>
        <pt x="284" y="1447" on="1"/>
      </contour>
    </TTGlyph>
    <TTGlyph name="afii57519" xMin="142" yMin="226" xMax="842" yMax="1588">
      <contour>
        <pt x="142" y="226" on="1"/>
        <pt x="142" y="1588" on="1"/>
        <pt x="842" y="1588" on="1"/>
        <pt x="842" y="226" on="1"/>
      </contour>
      <contour>
        <pt x="284" y="368" on="1"/>
        <pt x="700" y="368" on="1"/>
        <pt x="700" y="1447" on="1"/>
        <pt x="284" y="1447" on="1"/>
      </contour>
    </TTGlyph>
    <TTGlyph name="afii57534" xMin="142" yMin="226" xMax="842" yMax="1588">
      <contour>
        <pt x="142" y="226" on="1"/>
        <pt x="142" y="1588" on="1"/>
        <pt x="842" y="1588" on="1"/>
        <pt x="842" y="226" on="1"/>
      </contour>
      <contour>
        <pt x="284" y="368" on="1"/>
        <pt x="700" y="368" on="1"/>
        <pt x="700" y="1447" on="1"/>
        <pt x="284" y="1447" on="1"/>
      </contour>
    </TTGlyph>
    <TTGlyph name="afii63167" xMin="142" yMin="226" xMax="842" yMax="1588">
      <contour>
        <pt x="142" y="226" on="1"/>
        <pt x="142" y="1588" on="1"/>
        <pt x="842" y="1588" on="1"/>
        <pt x="842" y="226" on="1"/>
      </contour>
      <contour>
        <pt x="284" y="368" on="1"/>
        <pt x="700" y="368" on="1"/>
        <pt x="700" y="1447" on="1"/>
        <pt x="284" y="1447" on="1"/>
      </contour>
    </TTGlyph>
    <TTGlyph name="alefmaksurainitial" xMin="142" yMin="226" xMax="842" yMax="1588">
      <contour>
        <pt x="142" y="226" on="1"/>
        <pt x="142" y="1588" on="1"/>
        <pt x="842" y="1588" on="1"/>
        <pt x="842" y="226" on="1"/>
      </contour>
      <contour>
        <pt x="284" y="368" on="1"/>
        <pt x="700" y="368" on="1"/>
        <pt x="700" y="1447" on="1"/>
        <pt x="284" y="1447" on="1"/>
      </contour>
    </TTGlyph>
    <TTGlyph name="alefwaslafinalarabic" xMin="142" yMin="226" xMax="842" yMax="1588">
      <contour>
        <pt x="142" y="226" on="1"/>
        <pt x="142" y="1588" on="1"/>
        <pt x="842" y="1588" on="1"/>
        <pt x="842" y="226" on="1"/>
      </contour>
      <contour>
        <pt x="284" y="368" on="1"/>
        <pt x="700" y="368" on="1"/>
        <pt x="700" y="1447" on="1"/>
        <pt x="284" y="1447" on="1"/>
      </contour>
    </TTGlyph>
    <TTGlyph name="ampersand" xMin="142" yMin="226" xMax="842" yMax="1588">
      <contour>
        <pt x="142" y="226" on="1"/>
        <pt x="142" y="1588" on="1"/>
        <pt x="842" y="1588" on="1"/>
        <pt x="842" y="226" on="1"/>
      </contour>
      <contour>
        <pt x="284" y="368" on="1"/>
        <pt x="700" y="368" on="1"/>
        <pt x="700" y="1447" on="1"/>
        <pt x="284" y="1447" on="1"/>
      </contour>
    </TTGlyph>
    <TTGlyph name="asterisk" xMin="142" yMin="226" xMax="842" yMax="1588">
      <contour>
        <pt x="142" y="226" on="1"/>
        <pt x="142" y="1588" on="1"/>
        <pt x="842" y="1588" on="1"/>
        <pt x="842" y="226" on="1"/>
      </contour>
      <contour>
        <pt x="284" y="368" on="1"/>
        <pt x="700" y="368" on="1"/>
        <pt x="700" y="1447" on="1"/>
        <pt x="284" y="1447" on="1"/>
      </contour>
    </TTGlyph>
    <TTGlyph name="behmeemisolatedarabic" xMin="142" yMin="226" xMax="842" yMax="1588">
      <contour>
        <pt x="142" y="226" on="1"/>
        <pt x="142" y="1588" on="1"/>
        <pt x="842" y="1588" on="1"/>
        <pt x="842" y="226" on="1"/>
      </contour>
      <contour>
        <pt x="284" y="368" on="1"/>
        <pt x="700" y="368" on="1"/>
        <pt x="700" y="1447" on="1"/>
        <pt x="284" y="1447" on="1"/>
      </contour>
    </TTGlyph>
    <TTGlyph name="behnoonfinalarabic" xMin="142" yMin="226" xMax="842" yMax="1588">
      <contour>
        <pt x="142" y="226" on="1"/>
        <pt x="142" y="1588" on="1"/>
        <pt x="842" y="1588" on="1"/>
        <pt x="842" y="226" on="1"/>
      </contour>
      <contour>
        <pt x="284" y="368" on="1"/>
        <pt x="700" y="368" on="1"/>
        <pt x="700" y="1447" on="1"/>
        <pt x="284" y="1447" on="1"/>
      </contour>
    </TTGlyph>
    <TTGlyph name="colon" xMin="142" yMin="226" xMax="842" yMax="1588">
      <contour>
        <pt x="142" y="226" on="1"/>
        <pt x="142" y="1588" on="1"/>
        <pt x="842" y="1588" on="1"/>
        <pt x="842" y="226" on="1"/>
      </contour>
      <contour>
        <pt x="284" y="368" on="1"/>
        <pt x="700" y="368" on="1"/>
        <pt x="700" y="1447" on="1"/>
        <pt x="284" y="1447" on="1"/>
      </contour>
    </TTGlyph>
    <TTGlyph name="dagger" xMin="142" yMin="226" xMax="842" yMax="1588">
      <contour>
        <pt x="142" y="226" on="1"/>
        <pt x="142" y="1588" on="1"/>
        <pt x="842" y="1588" on="1"/>
        <pt x="842" y="226" on="1"/>
      </contour>
      <contour>
        <pt x="284" y="368" on="1"/>
        <pt x="700" y="368" on="1"/>
        <pt x="700" y="1447" on="1"/>
        <pt x="284" y="1447" on="1"/>
      </contour>
    </TTGlyph>
    <TTGlyph name="dalringfinal" xMin="142" yMin="226" xMax="842" yMax="1588">
      <contour>
        <pt x="142" y="226" on="1"/>
        <pt x="142" y="1588" on="1"/>
        <pt x="842" y="1588" on="1"/>
        <pt x="842" y="226" on="1"/>
      </contour>
      <contour>
        <pt x="284" y="368" on="1"/>
        <pt x="700" y="368" on="1"/>
        <pt x="700" y="1447" on="1"/>
        <pt x="284" y="1447" on="1"/>
      </contour>
    </TTGlyph>
    <TTGlyph name="ddalfinalarabic" xMin="142" yMin="226" xMax="842" yMax="1588">
      <contour>
        <pt x="142" y="226" on="1"/>
        <pt x="142" y="1588" on="1"/>
        <pt x="842" y="1588" on="1"/>
        <pt x="842" y="226" on="1"/>
      </contour>
      <contour>
        <pt x="284" y="368" on="1"/>
        <pt x="700" y="368" on="1"/>
        <pt x="700" y="1447" on="1"/>
        <pt x="284" y="1447" on="1"/>
      </contour>
    </TTGlyph>
    <TTGlyph name="divide" xMin="142" yMin="226" xMax="842" yMax="1588">
      <contour>
        <pt x="142" y="226" on="1"/>
        <pt x="142" y="1588" on="1"/>
        <pt x="842" y="1588" on="1"/>
        <pt x="842" y="226" on="1"/>
      </contour>
      <contour>
        <pt x="284" y="368" on="1"/>
        <pt x="700" y="368" on="1"/>
        <pt x="700" y="1447" on="1"/>
        <pt x="284" y="1447" on="1"/>
      </contour>
    </TTGlyph>
    <TTGlyph name="dollar" xMin="142" yMin="226" xMax="842" yMax="1588">
      <contour>
        <pt x="142" y="226" on="1"/>
        <pt x="142" y="1588" on="1"/>
        <pt x="842" y="1588" on="1"/>
        <pt x="842" y="226" on="1"/>
      </contour>
      <contour>
        <pt x="284" y="368" on="1"/>
        <pt x="700" y="368" on="1"/>
        <pt x="700" y="1447" on="1"/>
        <pt x="284" y="1447" on="1"/>
      </contour>
    </TTGlyph>
    <TTGlyph name="dotlessyehfinalarabic" xMin="142" yMin="226" xMax="842" yMax="1588">
      <contour>
        <pt x="142" y="226" on="1"/>
        <pt x="142" y="1588" on="1"/>
        <pt x="842" y="1588" on="1"/>
        <pt x="842" y="226" on="1"/>
      </contour>
      <contour>
        <pt x="284" y="368" on="1"/>
        <pt x="700" y="368" on="1"/>
        <pt x="700" y="1447" on="1"/>
        <pt x="284" y="1447" on="1"/>
      </contour>
    </TTGlyph>
    <TTGlyph name="dotlessyehinitialarabic" xMin="142" yMin="226" xMax="842" yMax="1588">
      <contour>
        <pt x="142" y="226" on="1"/>
        <pt x="142" y="1588" on="1"/>
        <pt x="842" y="1588" on="1"/>
        <pt x="842" y="226" on="1"/>
      </contour>
      <contour>
        <pt x="284" y="368" on="1"/>
        <pt x="700" y="368" on="1"/>
        <pt x="700" y="1447" on="1"/>
        <pt x="284" y="1447" on="1"/>
      </contour>
    </TTGlyph>
    <TTGlyph name="dotlessyehmedialarabic" xMin="142" yMin="226" xMax="842" yMax="1588">
      <contour>
        <pt x="142" y="226" on="1"/>
        <pt x="142" y="1588" on="1"/>
        <pt x="842" y="1588" on="1"/>
        <pt x="842" y="226" on="1"/>
      </contour>
      <contour>
        <pt x="284" y="368" on="1"/>
        <pt x="700" y="368" on="1"/>
        <pt x="700" y="1447" on="1"/>
        <pt x="284" y="1447" on="1"/>
      </contour>
    </TTGlyph>
    <TTGlyph name="elefmaksuramedial" xMin="142" yMin="226" xMax="842" yMax="1588">
      <contour>
        <pt x="142" y="226" on="1"/>
        <pt x="142" y="1588" on="1"/>
        <pt x="842" y="1588" on="1"/>
        <pt x="842" y="226" on="1"/>
      </contour>
      <contour>
        <pt x="284" y="368" on="1"/>
        <pt x="700" y="368" on="1"/>
        <pt x="700" y="1447" on="1"/>
        <pt x="284" y="1447" on="1"/>
      </contour>
    </TTGlyph>
    <TTGlyph name="ellipsis" xMin="142" yMin="226" xMax="842" yMax="1588">
      <contour>
        <pt x="142" y="226" on="1"/>
        <pt x="142" y="1588" on="1"/>
        <pt x="842" y="1588" on="1"/>
        <pt x="842" y="226" on="1"/>
      </contour>
      <contour>
        <pt x="284" y="368" on="1"/>
        <pt x="700" y="368" on="1"/>
        <pt x="700" y="1447" on="1"/>
        <pt x="284" y="1447" on="1"/>
      </contour>
    </TTGlyph>
    <TTGlyph name="emdash" xMin="2" yMin="-574" xMax="2050" yMax="1785">
      <contour>
        <pt x="1936" y="1042" on="1"/>
        <pt x="1903" y="1018" on="1"/>
        <pt x="1903" y="1029" on="0"/>
        <pt x="1893" y="1055" on="1"/>
        <pt x="1878" y="1080" on="0"/>
        <pt x="1762" y="1203" on="0"/>
        <pt x="1749" y="1226" on="1"/>
        <pt x="1686" y="1335" on="0"/>
        <pt x="1680" y="1449" on="1"/>
        <pt x="1612" y="1431" on="0"/>
        <pt x="1612" y="1248" on="1"/>
        <pt x="1612" y="1160" on="0"/>
        <pt x="1628" y="1110" on="1"/>
        <pt x="1608" y="1131" on="0"/>
        <pt x="1587" y="1153" on="1"/>
        <pt x="1580" y="1201" on="0"/>
        <pt x="1580" y="1248" on="1"/>
        <pt x="1580" y="1351" on="0"/>
        <pt x="1647" y="1502" on="0"/>
        <pt x="1705" y="1523" on="1"/>
        <pt x="1708" y="1372" on="0"/>
        <pt x="1779" y="1254" on="1"/>
        <pt x="1792" y="1230" on="0"/>
        <pt x="1860" y="1158" on="1"/>
        <pt x="1919" y="1094" on="0"/>
        <pt x="1930" y="1063" on="1"/>
        <pt x="1936" y="1033" on="0"/>
      </contour>
      <contour>
        <pt x="1756" y="576" on="1"/>
        <pt x="1756" y="202" on="0"/>
        <pt x="1328" y="-330" on="0"/>
        <pt x="1026" y="-330" on="1"/>
        <pt x="725" y="-330" on="0"/>
        <pt x="296" y="202" on="0"/>
        <pt x="296" y="576" on="1"/>
        <pt x="296" y="939" on="0"/>
        <pt x="502" y="1202" on="1"/>
        <pt x="675" y="1423" on="0"/>
        <pt x="875" y="1461" on="1"/>
        <pt x="917" y="1469" on="0"/>
        <pt x="952" y="1505" on="1"/>
        <pt x="992" y="1547" on="0"/>
        <pt x="992" y="1602" on="1"/>
        <pt x="992" y="1662" on="0"/>
        <pt x="923" y="1748" on="0"/>
        <pt x="875" y="1748" on="1"/>
        <pt x="827" y="1748" on="0"/>
        <pt x="756" y="1662" on="0"/>
        <pt x="756" y="1602" on="1"/>
        <pt x="756" y="1534" on="0"/>
        <pt x="801" y="1488" on="1"/>
        <pt x="710" y="1475" on="0"/>
        <pt x="600" y="1418" on="1"/>
        <pt x="525" y="1380" on="0"/>
        <pt x="471" y="1315" on="1"/>
        <pt x="434" y="1321" on="1"/>
        <pt x="485" y="1394" on="0"/>
        <pt x="595" y="1457" on="1"/>
        <pt x="649" y="1487" on="0"/>
        <pt x="750" y="1512" on="1"/>
        <pt x="726" y="1556" on="0"/>
        <pt x="726" y="1614" on="1"/>
        <pt x="726" y="1688" on="0"/>
        <pt x="773" y="1738" on="1"/>
        <pt x="817" y="1785" on="0"/>
        <pt x="875" y="1785" on="1"/>
        <pt x="934" y="1785" on="0"/>
        <pt x="979" y="1736" on="1"/>
        <pt x="1026" y="1684" on="0"/>
        <pt x="1026" y="1610" on="1"/>
        <pt x="1026" y="1531" on="0"/>
        <pt x="978" y="1479" on="1"/>
        <pt x="995" y="1481" on="0"/>
        <pt x="1026" y="1481" on="1"/>
        <pt x="1058" y="1481" on="0"/>
        <pt x="1075" y="1479" on="1"/>
        <pt x="1026" y="1531" on="0"/>
        <pt x="1026" y="1610" on="1"/>
        <pt x="1026" y="1684" on="0"/>
        <pt x="1073" y="1736" on="1"/>
        <pt x="1117" y="1785" on="0"/>
        <pt x="1177" y="1785" on="1"/>
        <pt x="1235" y="1785" on="0"/>
        <pt x="1280" y="1738" on="1"/>
        <pt x="1328" y="1689" on="0"/>
        <pt x="1328" y="1614" on="1"/>
        <pt x="1328" y="1556" on="0"/>
        <pt x="1304" y="1512" on="1"/>
        <pt x="1401" y="1488" on="0"/>
        <pt x="1456" y="1457" on="1"/>
        <pt x="1565" y="1396" on="0"/>
        <pt x="1619" y="1321" on="1"/>
        <pt x="1583" y="1315" on="1"/>
        <pt x="1524" y="1382" on="0"/>
        <pt x="1452" y="1418" on="1"/>
        <pt x="1339" y="1476" on="0"/>
        <pt x="1251" y="1488" on="1"/>
        <pt x="1295" y="1532" on="0"/>
        <pt x="1295" y="1602" on="1"/>
        <pt x="1295" y="1662" on="0"/>
        <pt x="1226" y="1748" on="0"/>
        <pt x="1177" y="1748" on="1"/>
        <pt x="1130" y="1748" on="0"/>
        <pt x="1061" y="1662" on="0"/>
        <pt x="1061" y="1602" on="1"/>
        <pt x="1061" y="1547" on="0"/>
        <pt x="1101" y="1505" on="1"/>
        <pt x="1135" y="1469" on="0"/>
        <pt x="1177" y="1461" on="1"/>
        <pt x="1379" y="1423" on="0"/>
        <pt x="1551" y="1202" on="1"/>
        <pt x="1756" y="940" on="0"/>
      </contour>
      <contour>
        <pt x="467" y="1153" on="1"/>
        <pt x="422" y="1105" on="0"/>
        <pt x="423" y="1110" on="1"/>
        <pt x="440" y="1161" on="0"/>
        <pt x="440" y="1249" on="1"/>
        <pt x="440" y="1431" on="0"/>
        <pt x="373" y="1449" on="1"/>
        <pt x="367" y="1333" on="0"/>
        <pt x="305" y="1226" on="1"/>
        <pt x="292" y="1203" on="0"/>
        <pt x="175" y="1081" on="0"/>
        <pt x="160" y="1055" on="1"/>
        <pt x="149" y="1029" on="0"/>
        <pt x="149" y="1018" on="1"/>
        <pt x="118" y="1042" on="1"/>
        <pt x="118" y="1053" on="0"/>
        <pt x="124" y="1063" on="1"/>
        <pt x="135" y="1094" on="0"/>
        <pt x="194" y="1158" on="1"/>
        <pt x="261" y="1230" on="0"/>
        <pt x="275" y="1254" on="1"/>
        <pt x="343" y="1368" on="0"/>
        <pt x="348" y="1523" on="1"/>
        <pt x="405" y="1502" on="0"/>
        <pt x="475" y="1350" on="0"/>
        <pt x="475" y="1247" on="1"/>
        <pt x="475" y="1200" on="0"/>
      </contour>
      <contour>
        <pt x="2050" y="1105" on="1"/>
        <pt x="1995" y="1004" on="0"/>
        <pt x="2001" y="819" on="1"/>
        <pt x="2003" y="784" on="0"/>
        <pt x="2039" y="637" on="0"/>
        <pt x="2040" y="605" on="1"/>
        <pt x="2041" y="569" on="0"/>
        <pt x="1990" y="496" on="0"/>
        <pt x="1964" y="496" on="1"/>
        <pt x="1925" y="496" on="0"/>
        <pt x="1908" y="520" on="1"/>
        <pt x="1908" y="67" on="0"/>
        <pt x="1392" y="-574" on="0"/>
        <pt x="1026" y="-574" on="1"/>
        <pt x="661" y="-574" on="0"/>
        <pt x="144" y="67" on="0"/>
        <pt x="144" y="520" on="1"/>
        <pt x="128" y="496" on="0"/>
        <pt x="90" y="496" on="1"/>
        <pt x="63" y="496" on="0"/>
        <pt x="11" y="569" on="0"/>
        <pt x="12" y="605" on="1"/>
        <pt x="14" y="637" on="0"/>
        <pt x="50" y="785" on="0"/>
        <pt x="51" y="819" on="1"/>
        <pt x="58" y="1004" on="0"/>
        <pt x="2" y="1105" on="1"/>
        <pt x="163" y="1092" on="0"/>
        <pt x="212" y="945" on="1"/>
        <pt x="208" y="822" on="1"/>
        <pt x="204" y="895" on="0"/>
        <pt x="169" y="962" on="1"/>
        <pt x="124" y="1046" on="0"/>
        <pt x="54" y="1049" on="1"/>
        <pt x="85" y="992" on="0"/>
        <pt x="85" y="819" on="1"/>
        <pt x="85" y="787" on="0"/>
        <pt x="69" y="718" on="1"/>
        <pt x="51" y="646" on="0"/>
        <pt x="49" y="618" on="1"/>
        <pt x="47" y="542" on="0"/>
        <pt x="106" y="542" on="1"/>
        <pt x="137" y="542" on="0"/>
        <pt x="165" y="594" on="1"/>
        <pt x="173" y="609" on="0"/>
        <pt x="182" y="623" on="1"/>
        <pt x="177" y="561" on="0"/>
        <pt x="177" y="520" on="1"/>
        <pt x="177" y="91" on="0"/>
        <pt x="678" y="-521" on="0"/>
        <pt x="1026" y="-521" on="1"/>
        <pt x="1375" y="-521" on="0"/>
        <pt x="1876" y="91" on="0"/>
        <pt x="1876" y="520" on="1"/>
        <pt x="1876" y="561" on="0"/>
        <pt x="1871" y="623" on="1"/>
        <pt x="1881" y="609" on="0"/>
        <pt x="1890" y="595" on="1"/>
        <pt x="1916" y="542" on="0"/>
        <pt x="1946" y="542" on="1"/>
        <pt x="2007" y="542" on="0"/>
        <pt x="2004" y="618" on="1"/>
        <pt x="2003" y="646" on="0"/>
        <pt x="1985" y="718" on="1"/>
        <pt x="1966" y="787" on="0"/>
        <pt x="1966" y="819" on="1"/>
        <pt x="1966" y="990" on="0"/>
        <pt x="1999" y="1049" on="1"/>
        <pt x="1930" y="1046" on="0"/>
        <pt x="1884" y="962" on="1"/>
        <pt x="1848" y="895" on="0"/>
        <pt x="1844" y="822" on="1"/>
        <pt x="1842" y="945" on="1"/>
        <pt x="1891" y="1092" on="0"/>
      </contour>
      <contour>
        <pt x="1719" y="576" on="1"/>
        <pt x="1719" y="930" on="0"/>
        <pt x="1526" y="1173" on="1"/>
        <pt x="1375" y="1362" on="0"/>
        <pt x="1181" y="1418" on="1"/>
        <pt x="1116" y="1437" on="0"/>
        <pt x="1026" y="1437" on="1"/>
        <pt x="937" y="1437" on="0"/>
        <pt x="873" y="1418" on="1"/>
        <pt x="677" y="1362" on="0"/>
        <pt x="527" y="1173" on="1"/>
        <pt x="334" y="931" on="0"/>
        <pt x="334" y="576" on="1"/>
        <pt x="334" y="218" on="0"/>
        <pt x="738" y="-285" on="0"/>
        <pt x="1026" y="-285" on="1"/>
        <pt x="1315" y="-285" on="0"/>
        <pt x="1719" y="218" on="0"/>
      </contour>
      <contour>
        <pt x="1175" y="318" on="1"/>
        <pt x="1175" y="248" on="0"/>
        <pt x="1090" y="203" on="1"/>
        <pt x="1029" y="170" on="0"/>
        <pt x="994" y="170" on="1"/>
        <pt x="937" y="170" on="0"/>
        <pt x="912" y="213" on="1"/>
        <pt x="920" y="280" on="0"/>
        <pt x="953" y="430" on="1"/>
        <pt x="920" y="451" on="0"/>
        <pt x="879" y="499" on="1"/>
        <pt x="879" y="509" on="0"/>
        <pt x="879" y="519" on="1"/>
        <pt x="879" y="594" on="0"/>
        <pt x="912" y="669" on="1"/>
        <pt x="950" y="750" on="0"/>
        <pt x="1014" y="794" on="1"/>
        <pt x="1044" y="794" on="0"/>
        <pt x="1044" y="768" on="1"/>
        <pt x="1044" y="756" on="0"/>
        <pt x="970" y="633" on="0"/>
        <pt x="970" y="620" on="1"/>
        <pt x="970" y="606" on="0"/>
        <pt x="988" y="594" on="1"/>
        <pt x="1003" y="584" on="0"/>
        <pt x="1017" y="574" on="1"/>
        <pt x="1052" y="541" on="0"/>
        <pt x="1052" y="482" on="1"/>
        <pt x="1052" y="483" on="0"/>
        <pt x="1002" y="329" on="1"/>
        <pt x="1025" y="303" on="0"/>
        <pt x="1052" y="303" on="1"/>
        <pt x="1064" y="303" on="0"/>
        <pt x="1103" y="319" on="1"/>
        <pt x="1155" y="340" on="0"/>
        <pt x="1164" y="343" on="1"/>
        <pt x="1175" y="342" on="0"/>
      </contour>
    </TTGlyph>
    <TTGlyph name="endash" xMin="2" yMin="-574" xMax="1026" yMax="1785">
      <contour>
        <pt x="969" y="1042" on="1"/>
        <pt x="953" y="1018" on="1"/>
        <pt x="953" y="1029" on="0"/>
        <pt x="948" y="1055" on="1"/>
        <pt x="940" y="1080" on="0"/>
        <pt x="882" y="1203" on="0"/>
        <pt x="875" y="1226" on="1"/>
        <pt x="844" y="1335" on="0"/>
        <pt x="841" y="1449" on="1"/>
        <pt x="807" y="1431" on="0"/>
        <pt x="807" y="1248" on="1"/>
        <pt x="807" y="1160" on="0"/>
        <pt x="815" y="1110" on="1"/>
        <pt x="805" y="1131" on="0"/>
        <pt x="795" y="1153" on="1"/>
        <pt x="791" y="1201" on="0"/>
        <pt x="791" y="1248" on="1"/>
        <pt x="791" y="1351" on="0"/>
        <pt x="825" y="1502" on="0"/>
        <pt x="854" y="1523" on="1"/>
        <pt x="855" y="1372" on="0"/>
        <pt x="890" y="1254" on="1"/>
        <pt x="897" y="1230" on="0"/>
        <pt x="931" y="1158" on="1"/>
        <pt x="960" y="1094" on="0"/>
        <pt x="966" y="1063" on="1"/>
        <pt x="969" y="1033" on="0"/>
      </contour>
      <contour>
        <pt x="879" y="576" on="1"/>
        <pt x="879" y="202" on="0"/>
        <pt x="665" y="-330" on="0"/>
        <pt x="514" y="-330" on="1"/>
        <pt x="363" y="-330" on="0"/>
        <pt x="149" y="202" on="0"/>
        <pt x="149" y="576" on="1"/>
        <pt x="149" y="939" on="0"/>
        <pt x="252" y="1202" on="1"/>
        <pt x="339" y="1423" on="0"/>
        <pt x="438" y="1461" on="1"/>
        <pt x="460" y="1469" on="0"/>
        <pt x="477" y="1505" on="1"/>
        <pt x="497" y="1547" on="0"/>
        <pt x="497" y="1602" on="1"/>
        <pt x="497" y="1662" on="0"/>
        <pt x="462" y="1748" on="0"/>
        <pt x="438" y="1748" on="1"/>
        <pt x="415" y="1748" on="0"/>
        <pt x="379" y="1662" on="0"/>
        <pt x="379" y="1602" on="1"/>
        <pt x="379" y="1534" on="0"/>
        <pt x="401" y="1488" on="1"/>
        <pt x="356" y="1475" on="0"/>
        <pt x="301" y="1418" on="1"/>
        <pt x="264" y="1380" on="0"/>
        <pt x="236" y="1315" on="1"/>
        <pt x="218" y="1321" on="1"/>
        <pt x="244" y="1394" on="0"/>
        <pt x="299" y="1457" on="1"/>
        <pt x="326" y="1487" on="0"/>
        <pt x="376" y="1512" on="1"/>
        <pt x="364" y="1556" on="0"/>
        <pt x="364" y="1614" on="1"/>
        <pt x="364" y="1688" on="0"/>
        <pt x="388" y="1738" on="1"/>
        <pt x="410" y="1785" on="0"/>
        <pt x="438" y="1785" on="1"/>
        <pt x="468" y="1785" on="0"/>
        <pt x="491" y="1736" on="1"/>
        <pt x="514" y="1684" on="0"/>
        <pt x="514" y="1610" on="1"/>
        <pt x="514" y="1531" on="0"/>
        <pt x="490" y="1479" on="1"/>
        <pt x="499" y="1481" on="0"/>
        <pt x="514" y="1481" on="1"/>
        <pt x="530" y="1481" on="0"/>
        <pt x="539" y="1479" on="1"/>
        <pt x="514" y="1531" on="0"/>
        <pt x="514" y="1610" on="1"/>
        <pt x="514" y="1684" on="0"/>
        <pt x="537" y="1736" on="1"/>
        <pt x="559" y="1785" on="0"/>
        <pt x="590" y="1785" on="1"/>
        <pt x="619" y="1785" on="0"/>
        <pt x="641" y="1738" on="1"/>
        <pt x="665" y="1689" on="0"/>
        <pt x="665" y="1614" on="1"/>
        <pt x="665" y="1556" on="0"/>
        <pt x="653" y="1512" on="1"/>
        <pt x="702" y="1488" on="0"/>
        <pt x="729" y="1457" on="1"/>
        <pt x="784" y="1396" on="0"/>
        <pt x="810" y="1321" on="1"/>
        <pt x="793" y="1315" on="1"/>
        <pt x="763" y="1382" on="0"/>
        <pt x="727" y="1418" on="1"/>
        <pt x="671" y="1476" on="0"/>
        <pt x="627" y="1488" on="1"/>
        <pt x="648" y="1532" on="0"/>
        <pt x="648" y="1602" on="1"/>
        <pt x="648" y="1662" on="0"/>
        <pt x="614" y="1748" on="0"/>
        <pt x="590" y="1748" on="1"/>
        <pt x="566" y="1748" on="0"/>
        <pt x="531" y="1662" on="0"/>
        <pt x="531" y="1602" on="1"/>
        <pt x="531" y="1547" on="0"/>
        <pt x="551" y="1505" on="1"/>
        <pt x="568" y="1469" on="0"/>
        <pt x="590" y="1461" on="1"/>
        <pt x="690" y="1423" on="0"/>
        <pt x="776" y="1202" on="1"/>
        <pt x="879" y="940" on="0"/>
      </contour>
      <contour>
        <pt x="235" y="1153" on="1"/>
        <pt x="212" y="1105" on="0"/>
        <pt x="213" y="1110" on="1"/>
        <pt x="221" y="1161" on="0"/>
        <pt x="221" y="1249" on="1"/>
        <pt x="221" y="1431" on="0"/>
        <pt x="188" y="1449" on="1"/>
        <pt x="185" y="1333" on="0"/>
        <pt x="153" y="1226" on="1"/>
        <pt x="147" y="1203" on="0"/>
        <pt x="89" y="1081" on="0"/>
        <pt x="81" y="1055" on="1"/>
        <pt x="76" y="1029" on="0"/>
        <pt x="76" y="1018" on="1"/>
        <pt x="60" y="1042" on="1"/>
        <pt x="60" y="1053" on="0"/>
        <pt x="63" y="1063" on="1"/>
        <pt x="68" y="1094" on="0"/>
        <pt x="98" y="1158" on="1"/>
        <pt x="132" y="1230" on="0"/>
        <pt x="138" y="1254" on="1"/>
        <pt x="173" y="1368" on="0"/>
        <pt x="175" y="1523" on="1"/>
        <pt x="204" y="1502" on="0"/>
        <pt x="238" y="1350" on="0"/>
        <pt x="238" y="1247" on="1"/>
        <pt x="238" y="1200" on="0"/>
      </contour>
      <contour>
        <pt x="1026" y="1105" on="1"/>
        <pt x="999" y="1004" on="0"/>
        <pt x="1001" y="819" on="1"/>
        <pt x="1002" y="784" on="0"/>
        <pt x="1020" y="637" on="0"/>
        <pt x="1021" y="605" on="1"/>
        <pt x="1022" y="569" on="0"/>
        <pt x="996" y="496" on="0"/>
        <pt x="983" y="496" on="1"/>
        <pt x="964" y="496" on="0"/>
        <pt x="955" y="520" on="1"/>
        <pt x="955" y="67" on="0"/>
        <pt x="697" y="-574" on="0"/>
        <pt x="514" y="-574" on="1"/>
        <pt x="331" y="-574" on="0"/>
        <pt x="73" y="67" on="0"/>
        <pt x="73" y="520" on="1"/>
        <pt x="65" y="496" on="0"/>
        <pt x="46" y="496" on="1"/>
        <pt x="33" y="496" on="0"/>
        <pt x="6" y="569" on="0"/>
        <pt x="7" y="605" on="1"/>
        <pt x="8" y="637" on="0"/>
        <pt x="26" y="785" on="0"/>
        <pt x="27" y="819" on="1"/>
        <pt x="30" y="1004" on="0"/>
        <pt x="2" y="1105" on="1"/>
        <pt x="83" y="1092" on="0"/>
        <pt x="107" y="945" on="1"/>
        <pt x="105" y="822" on="1"/>
        <pt x="103" y="895" on="0"/>
        <pt x="85" y="962" on="1"/>
        <pt x="63" y="1046" on="0"/>
        <pt x="28" y="1049" on="1"/>
        <pt x="43" y="992" on="0"/>
        <pt x="43" y="819" on="1"/>
        <pt x="43" y="787" on="0"/>
        <pt x="35" y="718" on="1"/>
        <pt x="27" y="646" on="0"/>
        <pt x="26" y="618" on="1"/>
        <pt x="25" y="542" on="0"/>
        <pt x="54" y="542" on="1"/>
        <pt x="70" y="542" on="0"/>
        <pt x="83" y="594" on="1"/>
        <pt x="87" y="609" on="0"/>
        <pt x="92" y="623" on="1"/>
        <pt x="90" y="561" on="0"/>
        <pt x="90" y="520" on="1"/>
        <pt x="90" y="91" on="0"/>
        <pt x="340" y="-521" on="0"/>
        <pt x="514" y="-521" on="1"/>
        <pt x="688" y="-521" on="0"/>
        <pt x="939" y="91" on="0"/>
        <pt x="939" y="520" on="1"/>
        <pt x="939" y="561" on="0"/>
        <pt x="937" y="623" on="1"/>
        <pt x="941" y="609" on="0"/>
        <pt x="946" y="595" on="1"/>
        <pt x="959" y="542" on="0"/>
        <pt x="974" y="542" on="1"/>
        <pt x="1005" y="542" on="0"/>
        <pt x="1003" y="618" on="1"/>
        <pt x="1002" y="646" on="0"/>
        <pt x="993" y="718" on="1"/>
        <pt x="984" y="787" on="0"/>
        <pt x="984" y="819" on="1"/>
        <pt x="984" y="990" on="0"/>
        <pt x="1001" y="1049" on="1"/>
        <pt x="966" y="1046" on="0"/>
        <pt x="943" y="962" on="1"/>
        <pt x="925" y="895" on="0"/>
        <pt x="923" y="822" on="1"/>
        <pt x="922" y="945" on="1"/>
        <pt x="946" y="1092" on="0"/>
      </contour>
      <contour>
        <pt x="861" y="576" on="1"/>
        <pt x="861" y="930" on="0"/>
        <pt x="764" y="1173" on="1"/>
        <pt x="689" y="1362" on="0"/>
        <pt x="591" y="1418" on="1"/>
        <pt x="559" y="1437" on="0"/>
        <pt x="514" y="1437" on="1"/>
        <pt x="470" y="1437" on="0"/>
        <pt x="438" y="1418" on="1"/>
        <pt x="340" y="1362" on="0"/>
        <pt x="264" y="1173" on="1"/>
        <pt x="168" y="931" on="0"/>
        <pt x="168" y="576" on="1"/>
        <pt x="168" y="218" on="0"/>
        <pt x="370" y="-285" on="0"/>
        <pt x="514" y="-285" on="1"/>
        <pt x="659" y="-285" on="0"/>
        <pt x="861" y="218" on="0"/>
      </contour>
      <contour>
        <pt x="588" y="318" on="1"/>
        <pt x="588" y="248" on="0"/>
        <pt x="546" y="203" on="1"/>
        <pt x="516" y="170" on="0"/>
        <pt x="498" y="170" on="1"/>
        <pt x="470" y="170" on="0"/>
        <pt x="457" y="213" on="1"/>
        <pt x="461" y="280" on="0"/>
        <pt x="477" y="430" on="1"/>
        <pt x="461" y="451" on="0"/>
        <pt x="441" y="499" on="1"/>
        <pt x="440" y="509" on="0"/>
        <pt x="440" y="519" on="1"/>
        <pt x="440" y="594" on="0"/>
        <pt x="457" y="669" on="1"/>
        <pt x="476" y="750" on="0"/>
        <pt x="508" y="794" on="1"/>
        <pt x="523" y="794" on="0"/>
        <pt x="523" y="768" on="1"/>
        <pt x="523" y="756" on="0"/>
        <pt x="486" y="633" on="0"/>
        <pt x="486" y="620" on="1"/>
        <pt x="486" y="606" on="0"/>
        <pt x="495" y="594" on="1"/>
        <pt x="502" y="584" on="0"/>
        <pt x="510" y="574" on="1"/>
        <pt x="527" y="541" on="0"/>
        <pt x="527" y="482" on="1"/>
        <pt x="527" y="483" on="0"/>
        <pt x="502" y="329" on="1"/>
        <pt x="514" y="303" on="0"/>
        <pt x="527" y="303" on="1"/>
        <pt x="533" y="303" on="0"/>
        <pt x="553" y="319" on="1"/>
        <pt x="578" y="340" on="0"/>
        <pt x="583" y="343" on="1"/>
        <pt x="588" y="342" on="0"/>
      </contour>
    </TTGlyph>
    <TTGlyph name="equal" xMin="142" yMin="226" xMax="842" yMax="1588">
      <contour>
        <pt x="142" y="226" on="1"/>
        <pt x="142" y="1588" on="1"/>
        <pt x="842" y="1588" on="1"/>
        <pt x="842" y="226" on="1"/>
      </contour>
      <contour>
        <pt x="284" y="368" on="1"/>
        <pt x="700" y="368" on="1"/>
        <pt x="700" y="1447" on="1"/>
        <pt x="284" y="1447" on="1"/>
      </contour>
    </TTGlyph>
    <TTGlyph name="exclam" xMin="142" yMin="226" xMax="842" yMax="1588">
      <contour>
        <pt x="142" y="226" on="1"/>
        <pt x="142" y="1588" on="1"/>
        <pt x="842" y="1588" on="1"/>
        <pt x="842" y="226" on="1"/>
      </contour>
      <contour>
        <pt x="284" y="368" on="1"/>
        <pt x="700" y="368" on="1"/>
        <pt x="700" y="1447" on="1"/>
        <pt x="284" y="1447" on="1"/>
      </contour>
    </TTGlyph>
    <TTGlyph name="figuredash" xMin="2" yMin="-574" xMax="2546" yMax="1785">
      <contour>
        <pt x="2404" y="1042" on="1"/>
        <pt x="2364" y="1018" on="1"/>
        <pt x="2364" y="1029" on="0"/>
        <pt x="2351" y="1055" on="1"/>
        <pt x="2332" y="1080" on="0"/>
        <pt x="2188" y="1203" on="0"/>
        <pt x="2172" y="1226" on="1"/>
        <pt x="2094" y="1335" on="0"/>
        <pt x="2087" y="1449" on="1"/>
        <pt x="2002" y="1431" on="0"/>
        <pt x="2002" y="1248" on="1"/>
        <pt x="2002" y="1160" on="0"/>
        <pt x="2022" y="1110" on="1"/>
        <pt x="1997" y="1131" on="0"/>
        <pt x="1971" y="1153" on="1"/>
        <pt x="1962" y="1201" on="0"/>
        <pt x="1962" y="1248" on="1"/>
        <pt x="1962" y="1351" on="0"/>
        <pt x="2046" y="1502" on="0"/>
        <pt x="2118" y="1523" on="1"/>
        <pt x="2121" y="1372" on="0"/>
        <pt x="2209" y="1254" on="1"/>
        <pt x="2226" y="1230" on="0"/>
        <pt x="2310" y="1158" on="1"/>
        <pt x="2383" y="1094" on="0"/>
        <pt x="2397" y="1063" on="1"/>
        <pt x="2404" y="1033" on="0"/>
      </contour>
      <contour>
        <pt x="2181" y="576" on="1"/>
        <pt x="2181" y="202" on="0"/>
        <pt x="1649" y="-330" on="0"/>
        <pt x="1274" y="-330" on="1"/>
        <pt x="900" y="-330" on="0"/>
        <pt x="367" y="202" on="0"/>
        <pt x="367" y="576" on="1"/>
        <pt x="367" y="939" on="0"/>
        <pt x="623" y="1202" on="1"/>
        <pt x="838" y="1423" on="0"/>
        <pt x="1086" y="1461" on="1"/>
        <pt x="1139" y="1469" on="0"/>
        <pt x="1182" y="1505" on="1"/>
        <pt x="1232" y="1547" on="0"/>
        <pt x="1232" y="1602" on="1"/>
        <pt x="1232" y="1662" on="0"/>
        <pt x="1146" y="1748" on="0"/>
        <pt x="1086" y="1748" on="1"/>
        <pt x="1027" y="1748" on="0"/>
        <pt x="938" y="1662" on="0"/>
        <pt x="938" y="1602" on="1"/>
        <pt x="938" y="1534" on="0"/>
        <pt x="994" y="1488" on="1"/>
        <pt x="882" y="1475" on="0"/>
        <pt x="745" y="1418" on="1"/>
        <pt x="652" y="1380" on="0"/>
        <pt x="584" y="1315" on="1"/>
        <pt x="539" y="1321" on="1"/>
        <pt x="602" y="1394" on="0"/>
        <pt x="739" y="1457" on="1"/>
        <pt x="806" y="1487" on="0"/>
        <pt x="931" y="1512" on="1"/>
        <pt x="901" y="1556" on="0"/>
        <pt x="901" y="1614" on="1"/>
        <pt x="901" y="1688" on="0"/>
        <pt x="960" y="1738" on="1"/>
        <pt x="1015" y="1785" on="0"/>
        <pt x="1086" y="1785" on="1"/>
        <pt x="1160" y="1785" on="0"/>
        <pt x="1216" y="1736" on="1"/>
        <pt x="1274" y="1684" on="0"/>
        <pt x="1274" y="1610" on="1"/>
        <pt x="1274" y="1531" on="0"/>
        <pt x="1214" y="1479" on="1"/>
        <pt x="1236" y="1481" on="0"/>
        <pt x="1274" y="1481" on="1"/>
        <pt x="1314" y="1481" on="0"/>
        <pt x="1335" y="1479" on="1"/>
        <pt x="1274" y="1531" on="0"/>
        <pt x="1274" y="1610" on="1"/>
        <pt x="1274" y="1684" on="0"/>
        <pt x="1332" y="1736" on="1"/>
        <pt x="1387" y="1785" on="0"/>
        <pt x="1462" y="1785" on="1"/>
        <pt x="1534" y="1785" on="0"/>
        <pt x="1589" y="1738" on="1"/>
        <pt x="1649" y="1689" on="0"/>
        <pt x="1649" y="1614" on="1"/>
        <pt x="1649" y="1556" on="0"/>
        <pt x="1619" y="1512" on="1"/>
        <pt x="1740" y="1488" on="0"/>
        <pt x="1808" y="1457" on="1"/>
        <pt x="1944" y="1396" on="0"/>
        <pt x="2010" y="1321" on="1"/>
        <pt x="1966" y="1315" on="1"/>
        <pt x="1892" y="1382" on="0"/>
        <pt x="1803" y="1418" on="1"/>
        <pt x="1663" y="1476" on="0"/>
        <pt x="1554" y="1488" on="1"/>
        <pt x="1608" y="1532" on="0"/>
        <pt x="1608" y="1602" on="1"/>
        <pt x="1608" y="1662" on="0"/>
        <pt x="1522" y="1748" on="0"/>
        <pt x="1462" y="1748" on="1"/>
        <pt x="1403" y="1748" on="0"/>
        <pt x="1317" y="1662" on="0"/>
        <pt x="1317" y="1602" on="1"/>
        <pt x="1317" y="1547" on="0"/>
        <pt x="1367" y="1505" on="1"/>
        <pt x="1409" y="1469" on="0"/>
        <pt x="1462" y="1461" on="1"/>
        <pt x="1712" y="1423" on="0"/>
        <pt x="1926" y="1202" on="1"/>
        <pt x="2181" y="940" on="0"/>
      </contour>
      <contour>
        <pt x="580" y="1153" on="1"/>
        <pt x="524" y="1105" on="0"/>
        <pt x="525" y="1110" on="1"/>
        <pt x="546" y="1161" on="0"/>
        <pt x="546" y="1249" on="1"/>
        <pt x="546" y="1431" on="0"/>
        <pt x="463" y="1449" on="1"/>
        <pt x="456" y="1333" on="0"/>
        <pt x="378" y="1226" on="1"/>
        <pt x="362" y="1203" on="0"/>
        <pt x="217" y="1081" on="0"/>
        <pt x="198" y="1055" on="1"/>
        <pt x="185" y="1029" on="0"/>
        <pt x="185" y="1018" on="1"/>
        <pt x="146" y="1042" on="1"/>
        <pt x="146" y="1053" on="0"/>
        <pt x="154" y="1063" on="1"/>
        <pt x="167" y="1094" on="0"/>
        <pt x="240" y="1158" on="1"/>
        <pt x="324" y="1230" on="0"/>
        <pt x="341" y="1254" on="1"/>
        <pt x="426" y="1368" on="0"/>
        <pt x="432" y="1523" on="1"/>
        <pt x="503" y="1502" on="0"/>
        <pt x="589" y="1350" on="0"/>
        <pt x="589" y="1247" on="1"/>
        <pt x="589" y="1200" on="0"/>
      </contour>
      <contour>
        <pt x="2546" y="1105" on="1"/>
        <pt x="2478" y="1004" on="0"/>
        <pt x="2485" y="819" on="1"/>
        <pt x="2487" y="784" on="0"/>
        <pt x="2532" y="637" on="0"/>
        <pt x="2533" y="605" on="1"/>
        <pt x="2535" y="569" on="0"/>
        <pt x="2472" y="496" on="0"/>
        <pt x="2439" y="496" on="1"/>
        <pt x="2391" y="496" on="0"/>
        <pt x="2369" y="520" on="1"/>
        <pt x="2369" y="67" on="0"/>
        <pt x="1729" y="-574" on="0"/>
        <pt x="1274" y="-574" on="1"/>
        <pt x="820" y="-574" on="0"/>
        <pt x="179" y="67" on="0"/>
        <pt x="179" y="520" on="1"/>
        <pt x="158" y="496" on="0"/>
        <pt x="111" y="496" on="1"/>
        <pt x="78" y="496" on="0"/>
        <pt x="13" y="569" on="0"/>
        <pt x="15" y="605" on="1"/>
        <pt x="17" y="637" on="0"/>
        <pt x="62" y="785" on="0"/>
        <pt x="63" y="819" on="1"/>
        <pt x="71" y="1004" on="0"/>
        <pt x="2" y="1105" on="1"/>
        <pt x="202" y="1092" on="0"/>
        <pt x="263" y="945" on="1"/>
        <pt x="258" y="822" on="1"/>
        <pt x="253" y="895" on="0"/>
        <pt x="209" y="962" on="1"/>
        <pt x="154" y="1046" on="0"/>
        <pt x="67" y="1049" on="1"/>
        <pt x="105" y="992" on="0"/>
        <pt x="105" y="819" on="1"/>
        <pt x="105" y="787" on="0"/>
        <pt x="85" y="718" on="1"/>
        <pt x="63" y="646" on="0"/>
        <pt x="61" y="618" on="1"/>
        <pt x="58" y="542" on="0"/>
        <pt x="131" y="542" on="1"/>
        <pt x="170" y="542" on="0"/>
        <pt x="204" y="594" on="1"/>
        <pt x="214" y="609" on="0"/>
        <pt x="226" y="623" on="1"/>
        <pt x="220" y="561" on="0"/>
        <pt x="220" y="520" on="1"/>
        <pt x="220" y="91" on="0"/>
        <pt x="842" y="-521" on="0"/>
        <pt x="1274" y="-521" on="1"/>
        <pt x="1707" y="-521" on="0"/>
        <pt x="2330" y="91" on="0"/>
        <pt x="2330" y="520" on="1"/>
        <pt x="2330" y="561" on="0"/>
        <pt x="2324" y="623" on="1"/>
        <pt x="2336" y="609" on="0"/>
        <pt x="2347" y="595" on="1"/>
        <pt x="2380" y="542" on="0"/>
        <pt x="2417" y="542" on="1"/>
        <pt x="2493" y="542" on="0"/>
        <pt x="2489" y="618" on="1"/>
        <pt x="2487" y="646" on="0"/>
        <pt x="2465" y="718" on="1"/>
        <pt x="2442" y="787" on="0"/>
        <pt x="2442" y="819" on="1"/>
        <pt x="2442" y="990" on="0"/>
        <pt x="2483" y="1049" on="1"/>
        <pt x="2397" y="1046" on="0"/>
        <pt x="2340" y="962" on="1"/>
        <pt x="2295" y="895" on="0"/>
        <pt x="2290" y="822" on="1"/>
        <pt x="2288" y="945" on="1"/>
        <pt x="2348" y="1092" on="0"/>
      </contour>
      <contour>
        <pt x="2135" y="576" on="1"/>
        <pt x="2135" y="930" on="0"/>
        <pt x="1895" y="1173" on="1"/>
        <pt x="1708" y="1362" on="0"/>
        <pt x="1466" y="1418" on="1"/>
        <pt x="1386" y="1437" on="0"/>
        <pt x="1274" y="1437" on="1"/>
        <pt x="1164" y="1437" on="0"/>
        <pt x="1084" y="1418" on="1"/>
        <pt x="841" y="1362" on="0"/>
        <pt x="654" y="1173" on="1"/>
        <pt x="415" y="931" on="0"/>
        <pt x="415" y="576" on="1"/>
        <pt x="415" y="218" on="0"/>
        <pt x="916" y="-285" on="0"/>
        <pt x="1274" y="-285" on="1"/>
        <pt x="1633" y="-285" on="0"/>
        <pt x="2135" y="218" on="0"/>
      </contour>
      <contour>
        <pt x="1459" y="318" on="1"/>
        <pt x="1459" y="248" on="0"/>
        <pt x="1354" y="203" on="1"/>
        <pt x="1278" y="170" on="0"/>
        <pt x="1234" y="170" on="1"/>
        <pt x="1164" y="170" on="0"/>
        <pt x="1132" y="213" on="1"/>
        <pt x="1142" y="280" on="0"/>
        <pt x="1183" y="430" on="1"/>
        <pt x="1142" y="451" on="0"/>
        <pt x="1092" y="499" on="1"/>
        <pt x="1091" y="509" on="0"/>
        <pt x="1091" y="519" on="1"/>
        <pt x="1091" y="594" on="0"/>
        <pt x="1133" y="669" on="1"/>
        <pt x="1180" y="750" on="0"/>
        <pt x="1259" y="794" on="1"/>
        <pt x="1296" y="794" on="0"/>
        <pt x="1296" y="768" on="1"/>
        <pt x="1296" y="756" on="0"/>
        <pt x="1204" y="633" on="0"/>
        <pt x="1204" y="620" on="1"/>
        <pt x="1204" y="606" on="0"/>
        <pt x="1227" y="594" on="1"/>
        <pt x="1245" y="584" on="0"/>
        <pt x="1263" y="574" on="1"/>
        <pt x="1306" y="541" on="0"/>
        <pt x="1306" y="482" on="1"/>
        <pt x="1306" y="483" on="0"/>
        <pt x="1244" y="329" on="1"/>
        <pt x="1273" y="303" on="0"/>
        <pt x="1306" y="303" on="1"/>
        <pt x="1321" y="303" on="0"/>
        <pt x="1370" y="319" on="1"/>
        <pt x="1434" y="340" on="0"/>
        <pt x="1446" y="343" on="1"/>
        <pt x="1459" y="342" on="0"/>
      </contour>
    </TTGlyph>
    <TTGlyph name="gaffinalarabic" xMin="142" yMin="226" xMax="842" yMax="1588">
      <contour>
        <pt x="142" y="226" on="1"/>
        <pt x="142" y="1588" on="1"/>
        <pt x="842" y="1588" on="1"/>
        <pt x="842" y="226" on="1"/>
      </contour>
      <contour>
        <pt x="284" y="368" on="1"/>
        <pt x="700" y="368" on="1"/>
        <pt x="700" y="1447" on="1"/>
        <pt x="284" y="1447" on="1"/>
      </contour>
    </TTGlyph>
    <TTGlyph name="gafinitialarabic" xMin="142" yMin="226" xMax="842" yMax="1588">
      <contour>
        <pt x="142" y="226" on="1"/>
        <pt x="142" y="1588" on="1"/>
        <pt x="842" y="1588" on="1"/>
        <pt x="842" y="226" on="1"/>
      </contour>
      <contour>
        <pt x="284" y="368" on="1"/>
        <pt x="700" y="368" on="1"/>
        <pt x="700" y="1447" on="1"/>
        <pt x="284" y="1447" on="1"/>
      </contour>
    </TTGlyph>
    <TTGlyph name="gafmedialarabic" xMin="142" yMin="226" xMax="842" yMax="1588">
      <contour>
        <pt x="142" y="226" on="1"/>
        <pt x="142" y="1588" on="1"/>
        <pt x="842" y="1588" on="1"/>
        <pt x="842" y="226" on="1"/>
      </contour>
      <contour>
        <pt x="284" y="368" on="1"/>
        <pt x="700" y="368" on="1"/>
        <pt x="700" y="1447" on="1"/>
        <pt x="284" y="1447" on="1"/>
      </contour>
    </TTGlyph>
    <TTGlyph name="glyph41" xMin="142" yMin="226" xMax="842" yMax="1588">
      <contour>
        <pt x="142" y="226" on="1"/>
        <pt x="142" y="1588" on="1"/>
        <pt x="842" y="1588" on="1"/>
        <pt x="842" y="226" on="1"/>
      </contour>
      <contour>
        <pt x="284" y="368" on="1"/>
        <pt x="700" y="368" on="1"/>
        <pt x="700" y="1447" on="1"/>
        <pt x="284" y="1447" on="1"/>
      </contour>
    </TTGlyph>
    <TTGlyph name="glyph42" xMin="142" yMin="226" xMax="842" yMax="1588">
      <contour>
        <pt x="142" y="226" on="1"/>
        <pt x="142" y="1588" on="1"/>
        <pt x="842" y="1588" on="1"/>
        <pt x="842" y="226" on="1"/>
      </contour>
      <contour>
        <pt x="284" y="368" on="1"/>
        <pt x="700" y="368" on="1"/>
        <pt x="700" y="1447" on="1"/>
        <pt x="284" y="1447" on="1"/>
      </contour>
    </TTGlyph>
    <TTGlyph name="glyph43" xMin="142" yMin="226" xMax="842" yMax="1588">
      <contour>
        <pt x="142" y="226" on="1"/>
        <pt x="142" y="1588" on="1"/>
        <pt x="842" y="1588" on="1"/>
        <pt x="842" y="226" on="1"/>
      </contour>
      <contour>
        <pt x="284" y="368" on="1"/>
        <pt x="700" y="368" on="1"/>
        <pt x="700" y="1447" on="1"/>
        <pt x="284" y="1447" on="1"/>
      </contour>
    </TTGlyph>
    <TTGlyph name="glyph44" xMin="142" yMin="226" xMax="842" yMax="1588">
      <contour>
        <pt x="142" y="226" on="1"/>
        <pt x="142" y="1588" on="1"/>
        <pt x="842" y="1588" on="1"/>
        <pt x="842" y="226" on="1"/>
      </contour>
      <contour>
        <pt x="284" y="368" on="1"/>
        <pt x="700" y="368" on="1"/>
        <pt x="700" y="1447" on="1"/>
        <pt x="284" y="1447" on="1"/>
      </contour>
    </TTGlyph>
    <TTGlyph name="glyph45" xMin="142" yMin="226" xMax="842" yMax="1588">
      <contour>
        <pt x="142" y="226" on="1"/>
        <pt x="142" y="1588" on="1"/>
        <pt x="842" y="1588" on="1"/>
        <pt x="842" y="226" on="1"/>
      </contour>
      <contour>
        <pt x="284" y="368" on="1"/>
        <pt x="700" y="368" on="1"/>
        <pt x="700" y="1447" on="1"/>
        <pt x="284" y="1447" on="1"/>
      </contour>
    </TTGlyph>
    <TTGlyph name="glyph46" xMin="142" yMin="226" xMax="842" yMax="1588">
      <contour>
        <pt x="142" y="226" on="1"/>
        <pt x="142" y="1588" on="1"/>
        <pt x="842" y="1588" on="1"/>
        <pt x="842" y="226" on="1"/>
      </contour>
      <contour>
        <pt x="284" y="368" on="1"/>
        <pt x="700" y="368" on="1"/>
        <pt x="700" y="1447" on="1"/>
        <pt x="284" y="1447" on="1"/>
      </contour>
    </TTGlyph>
    <TTGlyph name="glyph47" xMin="142" yMin="226" xMax="842" yMax="1588">
      <contour>
        <pt x="142" y="226" on="1"/>
        <pt x="142" y="1588" on="1"/>
        <pt x="842" y="1588" on="1"/>
        <pt x="842" y="226" on="1"/>
      </contour>
      <contour>
        <pt x="284" y="368" on="1"/>
        <pt x="700" y="368" on="1"/>
        <pt x="700" y="1447" on="1"/>
        <pt x="284" y="1447" on="1"/>
      </contour>
    </TTGlyph>
    <TTGlyph name="glyph48" xMin="142" yMin="226" xMax="842" yMax="1588">
      <contour>
        <pt x="142" y="226" on="1"/>
        <pt x="142" y="1588" on="1"/>
        <pt x="842" y="1588" on="1"/>
        <pt x="842" y="226" on="1"/>
      </contour>
      <contour>
        <pt x="284" y="368" on="1"/>
        <pt x="700" y="368" on="1"/>
        <pt x="700" y="1447" on="1"/>
        <pt x="284" y="1447" on="1"/>
      </contour>
    </TTGlyph>
    <TTGlyph name="glyph50" xMin="142" yMin="226" xMax="842" yMax="1588">
      <contour>
        <pt x="142" y="226" on="1"/>
        <pt x="142" y="1588" on="1"/>
        <pt x="842" y="1588" on="1"/>
        <pt x="842" y="226" on="1"/>
      </contour>
      <contour>
        <pt x="284" y="368" on="1"/>
        <pt x="700" y="368" on="1"/>
        <pt x="700" y="1447" on="1"/>
        <pt x="284" y="1447" on="1"/>
      </contour>
    </TTGlyph>
    <TTGlyph name="glyph51" xMin="142" yMin="226" xMax="842" yMax="1588">
      <contour>
        <pt x="142" y="226" on="1"/>
        <pt x="142" y="1588" on="1"/>
        <pt x="842" y="1588" on="1"/>
        <pt x="842" y="226" on="1"/>
      </contour>
      <contour>
        <pt x="284" y="368" on="1"/>
        <pt x="700" y="368" on="1"/>
        <pt x="700" y="1447" on="1"/>
        <pt x="284" y="1447" on="1"/>
      </contour>
    </TTGlyph>
    <TTGlyph name="greater" xMin="142" yMin="226" xMax="842" yMax="1588">
      <contour>
        <pt x="142" y="226" on="1"/>
        <pt x="142" y="1588" on="1"/>
        <pt x="842" y="1588" on="1"/>
        <pt x="842" y="226" on="1"/>
      </contour>
      <contour>
        <pt x="284" y="368" on="1"/>
        <pt x="700" y="368" on="1"/>
        <pt x="700" y="1447" on="1"/>
        <pt x="284" y="1447" on="1"/>
      </contour>
    </TTGlyph>
    <TTGlyph name="hahhamzabovefinal" xMin="142" yMin="226" xMax="842" yMax="1588">
      <contour>
        <pt x="142" y="226" on="1"/>
        <pt x="142" y="1588" on="1"/>
        <pt x="842" y="1588" on="1"/>
        <pt x="842" y="226" on="1"/>
      </contour>
      <contour>
        <pt x="284" y="368" on="1"/>
        <pt x="700" y="368" on="1"/>
        <pt x="700" y="1447" on="1"/>
        <pt x="284" y="1447" on="1"/>
      </contour>
    </TTGlyph>
    <TTGlyph name="hahhamzaboveinitial" xMin="142" yMin="226" xMax="842" yMax="1588">
      <contour>
        <pt x="142" y="226" on="1"/>
        <pt x="142" y="1588" on="1"/>
        <pt x="842" y="1588" on="1"/>
        <pt x="842" y="226" on="1"/>
      </contour>
      <contour>
        <pt x="284" y="368" on="1"/>
        <pt x="700" y="368" on="1"/>
        <pt x="700" y="1447" on="1"/>
        <pt x="284" y="1447" on="1"/>
      </contour>
    </TTGlyph>
    <TTGlyph name="hahhamzabovemedial" xMin="142" yMin="226" xMax="842" yMax="1588">
      <contour>
        <pt x="142" y="226" on="1"/>
        <pt x="142" y="1588" on="1"/>
        <pt x="842" y="1588" on="1"/>
        <pt x="842" y="226" on="1"/>
      </contour>
      <contour>
        <pt x="284" y="368" on="1"/>
        <pt x="700" y="368" on="1"/>
        <pt x="700" y="1447" on="1"/>
        <pt x="284" y="1447" on="1"/>
      </contour>
    </TTGlyph>
    <TTGlyph name="hahthreedotsabovefinal" xMin="142" yMin="226" xMax="842" yMax="1588">
      <contour>
        <pt x="142" y="226" on="1"/>
        <pt x="142" y="1588" on="1"/>
        <pt x="842" y="1588" on="1"/>
        <pt x="842" y="226" on="1"/>
      </contour>
      <contour>
        <pt x="284" y="368" on="1"/>
        <pt x="700" y="368" on="1"/>
        <pt x="700" y="1447" on="1"/>
        <pt x="284" y="1447" on="1"/>
      </contour>
    </TTGlyph>
    <TTGlyph name="hahthreedotsaboveinitial" xMin="142" yMin="226" xMax="842" yMax="1588">
      <contour>
        <pt x="142" y="226" on="1"/>
        <pt x="142" y="1588" on="1"/>
        <pt x="842" y="1588" on="1"/>
        <pt x="842" y="226" on="1"/>
      </contour>
      <contour>
        <pt x="284" y="368" on="1"/>
        <pt x="700" y="368" on="1"/>
        <pt x="700" y="1447" on="1"/>
        <pt x="284" y="1447" on="1"/>
      </contour>
    </TTGlyph>
    <TTGlyph name="hahthreedotsabovemedial" xMin="142" yMin="226" xMax="842" yMax="1588">
      <contour>
        <pt x="142" y="226" on="1"/>
        <pt x="142" y="1588" on="1"/>
        <pt x="842" y="1588" on="1"/>
        <pt x="842" y="226" on="1"/>
      </contour>
      <contour>
        <pt x="284" y="368" on="1"/>
        <pt x="700" y="368" on="1"/>
        <pt x="700" y="1447" on="1"/>
        <pt x="284" y="1447" on="1"/>
      </contour>
    </TTGlyph>
    <TTGlyph name="hehdoachashmeefinalarabic" xMin="142" yMin="226" xMax="842" yMax="1588">
      <contour>
        <pt x="142" y="226" on="1"/>
        <pt x="142" y="1588" on="1"/>
        <pt x="842" y="1588" on="1"/>
        <pt x="842" y="226" on="1"/>
      </contour>
      <contour>
        <pt x="284" y="368" on="1"/>
        <pt x="700" y="368" on="1"/>
        <pt x="700" y="1447" on="1"/>
        <pt x="284" y="1447" on="1"/>
      </contour>
    </TTGlyph>
    <TTGlyph name="hehdoachashmeeinitialarabic" xMin="142" yMin="226" xMax="842" yMax="1588">
      <contour>
        <pt x="142" y="226" on="1"/>
        <pt x="142" y="1588" on="1"/>
        <pt x="842" y="1588" on="1"/>
        <pt x="842" y="226" on="1"/>
      </contour>
      <contour>
        <pt x="284" y="368" on="1"/>
        <pt x="700" y="368" on="1"/>
        <pt x="700" y="1447" on="1"/>
        <pt x="284" y="1447" on="1"/>
      </contour>
    </TTGlyph>
    <TTGlyph name="hehdoachashmeemedialarabic" xMin="142" yMin="226" xMax="842" yMax="1588">
      <contour>
        <pt x="142" y="226" on="1"/>
        <pt x="142" y="1588" on="1"/>
        <pt x="842" y="1588" on="1"/>
        <pt x="842" y="226" on="1"/>
      </contour>
      <contour>
        <pt x="284" y="368" on="1"/>
        <pt x="700" y="368" on="1"/>
        <pt x="700" y="1447" on="1"/>
        <pt x="284" y="1447" on="1"/>
      </contour>
    </TTGlyph>
    <TTGlyph name="hehfinalaltonearabic" xMin="142" yMin="226" xMax="842" yMax="1588">
      <contour>
        <pt x="142" y="226" on="1"/>
        <pt x="142" y="1588" on="1"/>
        <pt x="842" y="1588" on="1"/>
        <pt x="842" y="226" on="1"/>
      </contour>
      <contour>
        <pt x="284" y="368" on="1"/>
        <pt x="700" y="368" on="1"/>
        <pt x="700" y="1447" on="1"/>
        <pt x="284" y="1447" on="1"/>
      </contour>
    </TTGlyph>
    <TTGlyph name="hehhamzaabovefinalarabic" xMin="142" yMin="226" xMax="842" yMax="1588">
      <contour>
        <pt x="142" y="226" on="1"/>
        <pt x="142" y="1588" on="1"/>
        <pt x="842" y="1588" on="1"/>
        <pt x="842" y="226" on="1"/>
      </contour>
      <contour>
        <pt x="284" y="368" on="1"/>
        <pt x="700" y="368" on="1"/>
        <pt x="700" y="1447" on="1"/>
        <pt x="284" y="1447" on="1"/>
      </contour>
    </TTGlyph>
    <TTGlyph name="hehinitialaltonearabic" xMin="142" yMin="226" xMax="842" yMax="1588">
      <contour>
        <pt x="142" y="226" on="1"/>
        <pt x="142" y="1588" on="1"/>
        <pt x="842" y="1588" on="1"/>
        <pt x="842" y="226" on="1"/>
      </contour>
      <contour>
        <pt x="284" y="368" on="1"/>
        <pt x="700" y="368" on="1"/>
        <pt x="700" y="1447" on="1"/>
        <pt x="284" y="1447" on="1"/>
      </contour>
    </TTGlyph>
    <TTGlyph name="hehmedialaltonearabic" xMin="142" yMin="226" xMax="842" yMax="1588">
      <contour>
        <pt x="142" y="226" on="1"/>
        <pt x="142" y="1588" on="1"/>
        <pt x="842" y="1588" on="1"/>
        <pt x="842" y="226" on="1"/>
      </contour>
      <contour>
        <pt x="284" y="368" on="1"/>
        <pt x="700" y="368" on="1"/>
        <pt x="700" y="1447" on="1"/>
        <pt x="284" y="1447" on="1"/>
      </contour>
    </TTGlyph>
    <TTGlyph name="hyphen" xMin="2" yMin="-574" xMax="2546" yMax="1785">
      <contour>
        <pt x="2404" y="1042" on="1"/>
        <pt x="2364" y="1018" on="1"/>
        <pt x="2364" y="1029" on="0"/>
        <pt x="2351" y="1055" on="1"/>
        <pt x="2332" y="1080" on="0"/>
        <pt x="2188" y="1203" on="0"/>
        <pt x="2172" y="1226" on="1"/>
        <pt x="2094" y="1335" on="0"/>
        <pt x="2087" y="1449" on="1"/>
        <pt x="2002" y="1431" on="0"/>
        <pt x="2002" y="1248" on="1"/>
        <pt x="2002" y="1160" on="0"/>
        <pt x="2022" y="1110" on="1"/>
        <pt x="1997" y="1131" on="0"/>
        <pt x="1971" y="1153" on="1"/>
        <pt x="1962" y="1201" on="0"/>
        <pt x="1962" y="1248" on="1"/>
        <pt x="1962" y="1351" on="0"/>
        <pt x="2046" y="1502" on="0"/>
        <pt x="2118" y="1523" on="1"/>
        <pt x="2121" y="1372" on="0"/>
        <pt x="2209" y="1254" on="1"/>
        <pt x="2226" y="1230" on="0"/>
        <pt x="2310" y="1158" on="1"/>
        <pt x="2383" y="1094" on="0"/>
        <pt x="2397" y="1063" on="1"/>
        <pt x="2404" y="1033" on="0"/>
      </contour>
      <contour>
        <pt x="2181" y="576" on="1"/>
        <pt x="2181" y="202" on="0"/>
        <pt x="1649" y="-330" on="0"/>
        <pt x="1274" y="-330" on="1"/>
        <pt x="900" y="-330" on="0"/>
        <pt x="367" y="202" on="0"/>
        <pt x="367" y="576" on="1"/>
        <pt x="367" y="939" on="0"/>
        <pt x="623" y="1202" on="1"/>
        <pt x="838" y="1423" on="0"/>
        <pt x="1086" y="1461" on="1"/>
        <pt x="1139" y="1469" on="0"/>
        <pt x="1182" y="1505" on="1"/>
        <pt x="1232" y="1547" on="0"/>
        <pt x="1232" y="1602" on="1"/>
        <pt x="1232" y="1662" on="0"/>
        <pt x="1146" y="1748" on="0"/>
        <pt x="1086" y="1748" on="1"/>
        <pt x="1027" y="1748" on="0"/>
        <pt x="938" y="1662" on="0"/>
        <pt x="938" y="1602" on="1"/>
        <pt x="938" y="1534" on="0"/>
        <pt x="994" y="1488" on="1"/>
        <pt x="882" y="1475" on="0"/>
        <pt x="745" y="1418" on="1"/>
        <pt x="652" y="1380" on="0"/>
        <pt x="584" y="1315" on="1"/>
        <pt x="539" y="1321" on="1"/>
        <pt x="602" y="1394" on="0"/>
        <pt x="739" y="1457" on="1"/>
        <pt x="806" y="1487" on="0"/>
        <pt x="931" y="1512" on="1"/>
        <pt x="901" y="1556" on="0"/>
        <pt x="901" y="1614" on="1"/>
        <pt x="901" y="1688" on="0"/>
        <pt x="960" y="1738" on="1"/>
        <pt x="1015" y="1785" on="0"/>
        <pt x="1086" y="1785" on="1"/>
        <pt x="1160" y="1785" on="0"/>
        <pt x="1216" y="1736" on="1"/>
        <pt x="1274" y="1684" on="0"/>
        <pt x="1274" y="1610" on="1"/>
        <pt x="1274" y="1531" on="0"/>
        <pt x="1214" y="1479" on="1"/>
        <pt x="1236" y="1481" on="0"/>
        <pt x="1274" y="1481" on="1"/>
        <pt x="1314" y="1481" on="0"/>
        <pt x="1335" y="1479" on="1"/>
        <pt x="1274" y="1531" on="0"/>
        <pt x="1274" y="1610" on="1"/>
        <pt x="1274" y="1684" on="0"/>
        <pt x="1332" y="1736" on="1"/>
        <pt x="1387" y="1785" on="0"/>
        <pt x="1462" y="1785" on="1"/>
        <pt x="1534" y="1785" on="0"/>
        <pt x="1589" y="1738" on="1"/>
        <pt x="1649" y="1689" on="0"/>
        <pt x="1649" y="1614" on="1"/>
        <pt x="1649" y="1556" on="0"/>
        <pt x="1619" y="1512" on="1"/>
        <pt x="1740" y="1488" on="0"/>
        <pt x="1808" y="1457" on="1"/>
        <pt x="1944" y="1396" on="0"/>
        <pt x="2010" y="1321" on="1"/>
        <pt x="1966" y="1315" on="1"/>
        <pt x="1892" y="1382" on="0"/>
        <pt x="1803" y="1418" on="1"/>
        <pt x="1663" y="1476" on="0"/>
        <pt x="1554" y="1488" on="1"/>
        <pt x="1608" y="1532" on="0"/>
        <pt x="1608" y="1602" on="1"/>
        <pt x="1608" y="1662" on="0"/>
        <pt x="1522" y="1748" on="0"/>
        <pt x="1462" y="1748" on="1"/>
        <pt x="1403" y="1748" on="0"/>
        <pt x="1317" y="1662" on="0"/>
        <pt x="1317" y="1602" on="1"/>
        <pt x="1317" y="1547" on="0"/>
        <pt x="1367" y="1505" on="1"/>
        <pt x="1409" y="1469" on="0"/>
        <pt x="1462" y="1461" on="1"/>
        <pt x="1712" y="1423" on="0"/>
        <pt x="1926" y="1202" on="1"/>
        <pt x="2181" y="940" on="0"/>
      </contour>
      <contour>
        <pt x="580" y="1153" on="1"/>
        <pt x="524" y="1105" on="0"/>
        <pt x="525" y="1110" on="1"/>
        <pt x="546" y="1161" on="0"/>
        <pt x="546" y="1249" on="1"/>
        <pt x="546" y="1431" on="0"/>
        <pt x="463" y="1449" on="1"/>
        <pt x="456" y="1333" on="0"/>
        <pt x="378" y="1226" on="1"/>
        <pt x="362" y="1203" on="0"/>
        <pt x="217" y="1081" on="0"/>
        <pt x="198" y="1055" on="1"/>
        <pt x="185" y="1029" on="0"/>
        <pt x="185" y="1018" on="1"/>
        <pt x="146" y="1042" on="1"/>
        <pt x="146" y="1053" on="0"/>
        <pt x="154" y="1063" on="1"/>
        <pt x="167" y="1094" on="0"/>
        <pt x="240" y="1158" on="1"/>
        <pt x="324" y="1230" on="0"/>
        <pt x="341" y="1254" on="1"/>
        <pt x="426" y="1368" on="0"/>
        <pt x="432" y="1523" on="1"/>
        <pt x="503" y="1502" on="0"/>
        <pt x="589" y="1350" on="0"/>
        <pt x="589" y="1247" on="1"/>
        <pt x="589" y="1200" on="0"/>
      </contour>
      <contour>
        <pt x="2546" y="1105" on="1"/>
        <pt x="2478" y="1004" on="0"/>
        <pt x="2485" y="819" on="1"/>
        <pt x="2487" y="784" on="0"/>
        <pt x="2532" y="637" on="0"/>
        <pt x="2533" y="605" on="1"/>
        <pt x="2535" y="569" on="0"/>
        <pt x="2472" y="496" on="0"/>
        <pt x="2439" y="496" on="1"/>
        <pt x="2391" y="496" on="0"/>
        <pt x="2369" y="520" on="1"/>
        <pt x="2369" y="67" on="0"/>
        <pt x="1729" y="-574" on="0"/>
        <pt x="1274" y="-574" on="1"/>
        <pt x="820" y="-574" on="0"/>
        <pt x="179" y="67" on="0"/>
        <pt x="179" y="520" on="1"/>
        <pt x="158" y="496" on="0"/>
        <pt x="111" y="496" on="1"/>
        <pt x="78" y="496" on="0"/>
        <pt x="13" y="569" on="0"/>
        <pt x="15" y="605" on="1"/>
        <pt x="17" y="637" on="0"/>
        <pt x="62" y="785" on="0"/>
        <pt x="63" y="819" on="1"/>
        <pt x="71" y="1004" on="0"/>
        <pt x="2" y="1105" on="1"/>
        <pt x="202" y="1092" on="0"/>
        <pt x="263" y="945" on="1"/>
        <pt x="258" y="822" on="1"/>
        <pt x="253" y="895" on="0"/>
        <pt x="209" y="962" on="1"/>
        <pt x="154" y="1046" on="0"/>
        <pt x="67" y="1049" on="1"/>
        <pt x="105" y="992" on="0"/>
        <pt x="105" y="819" on="1"/>
        <pt x="105" y="787" on="0"/>
        <pt x="85" y="718" on="1"/>
        <pt x="63" y="646" on="0"/>
        <pt x="61" y="618" on="1"/>
        <pt x="58" y="542" on="0"/>
        <pt x="131" y="542" on="1"/>
        <pt x="170" y="542" on="0"/>
        <pt x="204" y="594" on="1"/>
        <pt x="214" y="609" on="0"/>
        <pt x="226" y="623" on="1"/>
        <pt x="220" y="561" on="0"/>
        <pt x="220" y="520" on="1"/>
        <pt x="220" y="91" on="0"/>
        <pt x="842" y="-521" on="0"/>
        <pt x="1274" y="-521" on="1"/>
        <pt x="1707" y="-521" on="0"/>
        <pt x="2330" y="91" on="0"/>
        <pt x="2330" y="520" on="1"/>
        <pt x="2330" y="561" on="0"/>
        <pt x="2324" y="623" on="1"/>
        <pt x="2336" y="609" on="0"/>
        <pt x="2347" y="595" on="1"/>
        <pt x="2380" y="542" on="0"/>
        <pt x="2417" y="542" on="1"/>
        <pt x="2493" y="542" on="0"/>
        <pt x="2489" y="618" on="1"/>
        <pt x="2487" y="646" on="0"/>
        <pt x="2465" y="718" on="1"/>
        <pt x="2442" y="787" on="0"/>
        <pt x="2442" y="819" on="1"/>
        <pt x="2442" y="990" on="0"/>
        <pt x="2483" y="1049" on="1"/>
        <pt x="2397" y="1046" on="0"/>
        <pt x="2340" y="962" on="1"/>
        <pt x="2295" y="895" on="0"/>
        <pt x="2290" y="822" on="1"/>
        <pt x="2288" y="945" on="1"/>
        <pt x="2348" y="1092" on="0"/>
      </contour>
      <contour>
        <pt x="2135" y="576" on="1"/>
        <pt x="2135" y="930" on="0"/>
        <pt x="1895" y="1173" on="1"/>
        <pt x="1708" y="1362" on="0"/>
        <pt x="1466" y="1418" on="1"/>
        <pt x="1386" y="1437" on="0"/>
        <pt x="1274" y="1437" on="1"/>
        <pt x="1164" y="1437" on="0"/>
        <pt x="1084" y="1418" on="1"/>
        <pt x="841" y="1362" on="0"/>
        <pt x="654" y="1173" on="1"/>
        <pt x="415" y="931" on="0"/>
        <pt x="415" y="576" on="1"/>
        <pt x="415" y="218" on="0"/>
        <pt x="916" y="-285" on="0"/>
        <pt x="1274" y="-285" on="1"/>
        <pt x="1633" y="-285" on="0"/>
        <pt x="2135" y="218" on="0"/>
      </contour>
      <contour>
        <pt x="1459" y="318" on="1"/>
        <pt x="1459" y="248" on="0"/>
        <pt x="1354" y="203" on="1"/>
        <pt x="1278" y="170" on="0"/>
        <pt x="1234" y="170" on="1"/>
        <pt x="1164" y="170" on="0"/>
        <pt x="1132" y="213" on="1"/>
        <pt x="1142" y="280" on="0"/>
        <pt x="1183" y="430" on="1"/>
        <pt x="1142" y="451" on="0"/>
        <pt x="1092" y="499" on="1"/>
        <pt x="1091" y="509" on="0"/>
        <pt x="1091" y="519" on="1"/>
        <pt x="1091" y="594" on="0"/>
        <pt x="1133" y="669" on="1"/>
        <pt x="1180" y="750" on="0"/>
        <pt x="1259" y="794" on="1"/>
        <pt x="1296" y="794" on="0"/>
        <pt x="1296" y="768" on="1"/>
        <pt x="1296" y="756" on="0"/>
        <pt x="1204" y="633" on="0"/>
        <pt x="1204" y="620" on="1"/>
        <pt x="1204" y="606" on="0"/>
        <pt x="1227" y="594" on="1"/>
        <pt x="1245" y="584" on="0"/>
        <pt x="1263" y="574" on="1"/>
        <pt x="1306" y="541" on="0"/>
        <pt x="1306" y="482" on="1"/>
        <pt x="1306" y="483" on="0"/>
        <pt x="1244" y="329" on="1"/>
        <pt x="1273" y="303" on="0"/>
        <pt x="1306" y="303" on="1"/>
        <pt x="1321" y="303" on="0"/>
        <pt x="1370" y="319" on="1"/>
        <pt x="1434" y="340" on="0"/>
        <pt x="1446" y="343" on="1"/>
        <pt x="1459" y="342" on="0"/>
      </contour>
    </TTGlyph>
    <TTGlyph name="irghizufinal" xMin="142" yMin="226" xMax="842" yMax="1588">
      <contour>
        <pt x="142" y="226" on="1"/>
        <pt x="142" y="1588" on="1"/>
        <pt x="842" y="1588" on="1"/>
        <pt x="842" y="226" on="1"/>
      </contour>
      <contour>
        <pt x="284" y="368" on="1"/>
        <pt x="700" y="368" on="1"/>
        <pt x="700" y="1447" on="1"/>
        <pt x="284" y="1447" on="1"/>
      </contour>
    </TTGlyph>
    <TTGlyph name="jehfinalarabic" xMin="142" yMin="226" xMax="842" yMax="1588">
      <contour>
        <pt x="142" y="226" on="1"/>
        <pt x="142" y="1588" on="1"/>
        <pt x="842" y="1588" on="1"/>
        <pt x="842" y="226" on="1"/>
      </contour>
      <contour>
        <pt x="284" y="368" on="1"/>
        <pt x="700" y="368" on="1"/>
        <pt x="700" y="1447" on="1"/>
        <pt x="284" y="1447" on="1"/>
      </contour>
    </TTGlyph>
    <TTGlyph name="kafringfinal" xMin="142" yMin="226" xMax="842" yMax="1588">
      <contour>
        <pt x="142" y="226" on="1"/>
        <pt x="142" y="1588" on="1"/>
        <pt x="842" y="1588" on="1"/>
        <pt x="842" y="226" on="1"/>
      </contour>
      <contour>
        <pt x="284" y="368" on="1"/>
        <pt x="700" y="368" on="1"/>
        <pt x="700" y="1447" on="1"/>
        <pt x="284" y="1447" on="1"/>
      </contour>
    </TTGlyph>
    <TTGlyph name="kafringinitial" xMin="142" yMin="226" xMax="842" yMax="1588">
      <contour>
        <pt x="142" y="226" on="1"/>
        <pt x="142" y="1588" on="1"/>
        <pt x="842" y="1588" on="1"/>
        <pt x="842" y="226" on="1"/>
      </contour>
      <contour>
        <pt x="284" y="368" on="1"/>
        <pt x="700" y="368" on="1"/>
        <pt x="700" y="1447" on="1"/>
        <pt x="284" y="1447" on="1"/>
      </contour>
    </TTGlyph>
    <TTGlyph name="kafringmedial" xMin="142" yMin="226" xMax="842" yMax="1588">
      <contour>
        <pt x="142" y="226" on="1"/>
        <pt x="142" y="1588" on="1"/>
        <pt x="842" y="1588" on="1"/>
        <pt x="842" y="226" on="1"/>
      </contour>
      <contour>
        <pt x="284" y="368" on="1"/>
        <pt x="700" y="368" on="1"/>
        <pt x="700" y="1447" on="1"/>
        <pt x="284" y="1447" on="1"/>
      </contour>
    </TTGlyph>
    <TTGlyph name="kashidaautoarabic" xMin="142" yMin="226" xMax="842" yMax="1588">
      <contour>
        <pt x="142" y="226" on="1"/>
        <pt x="142" y="1588" on="1"/>
        <pt x="842" y="1588" on="1"/>
        <pt x="842" y="226" on="1"/>
      </contour>
      <contour>
        <pt x="284" y="368" on="1"/>
        <pt x="700" y="368" on="1"/>
        <pt x="700" y="1447" on="1"/>
        <pt x="284" y="1447" on="1"/>
      </contour>
    </TTGlyph>
    <TTGlyph name="kashidaautonosidebearingarabic" xMin="142" yMin="226" xMax="842" yMax="1588">
      <contour>
        <pt x="142" y="226" on="1"/>
        <pt x="142" y="1588" on="1"/>
        <pt x="842" y="1588" on="1"/>
        <pt x="842" y="226" on="1"/>
      </contour>
      <contour>
        <pt x="284" y="368" on="1"/>
        <pt x="700" y="368" on="1"/>
        <pt x="700" y="1447" on="1"/>
        <pt x="284" y="1447" on="1"/>
      </contour>
    </TTGlyph>
    <TTGlyph name="kehehfinalarabic" xMin="142" yMin="226" xMax="842" yMax="1588">
      <contour>
        <pt x="142" y="226" on="1"/>
        <pt x="142" y="1588" on="1"/>
        <pt x="842" y="1588" on="1"/>
        <pt x="842" y="226" on="1"/>
      </contour>
      <contour>
        <pt x="284" y="368" on="1"/>
        <pt x="700" y="368" on="1"/>
        <pt x="700" y="1447" on="1"/>
        <pt x="284" y="1447" on="1"/>
      </contour>
    </TTGlyph>
    <TTGlyph name="kehehinitialarabic" xMin="142" yMin="226" xMax="842" yMax="1588">
      <contour>
        <pt x="142" y="226" on="1"/>
        <pt x="142" y="1588" on="1"/>
        <pt x="842" y="1588" on="1"/>
        <pt x="842" y="226" on="1"/>
      </contour>
      <contour>
        <pt x="284" y="368" on="1"/>
        <pt x="700" y="368" on="1"/>
        <pt x="700" y="1447" on="1"/>
        <pt x="284" y="1447" on="1"/>
      </contour>
    </TTGlyph>
    <TTGlyph name="kehehmedialarabic" xMin="142" yMin="226" xMax="842" yMax="1588">
      <contour>
        <pt x="142" y="226" on="1"/>
        <pt x="142" y="1588" on="1"/>
        <pt x="842" y="1588" on="1"/>
        <pt x="842" y="226" on="1"/>
      </contour>
      <contour>
        <pt x="284" y="368" on="1"/>
        <pt x="700" y="368" on="1"/>
        <pt x="700" y="1447" on="1"/>
        <pt x="284" y="1447" on="1"/>
      </contour>
    </TTGlyph>
    <TTGlyph name="kirghizyifinal" xMin="142" yMin="226" xMax="842" yMax="1588">
      <contour>
        <pt x="142" y="226" on="1"/>
        <pt x="142" y="1588" on="1"/>
        <pt x="842" y="1588" on="1"/>
        <pt x="842" y="226" on="1"/>
      </contour>
      <contour>
        <pt x="284" y="368" on="1"/>
        <pt x="700" y="368" on="1"/>
        <pt x="700" y="1447" on="1"/>
        <pt x="284" y="1447" on="1"/>
      </contour>
    </TTGlyph>
    <TTGlyph name="lammeemjeeminitialarabic" xMin="142" yMin="226" xMax="842" yMax="1588">
      <contour>
        <pt x="142" y="226" on="1"/>
        <pt x="142" y="1588" on="1"/>
        <pt x="842" y="1588" on="1"/>
        <pt x="842" y="226" on="1"/>
      </contour>
      <contour>
        <pt x="284" y="368" on="1"/>
        <pt x="700" y="368" on="1"/>
        <pt x="700" y="1447" on="1"/>
        <pt x="284" y="1447" on="1"/>
      </contour>
    </TTGlyph>
    <TTGlyph name="lammeemkhahinitialarabic" xMin="142" yMin="226" xMax="842" yMax="1588">
      <contour>
        <pt x="142" y="226" on="1"/>
        <pt x="142" y="1588" on="1"/>
        <pt x="842" y="1588" on="1"/>
        <pt x="842" y="226" on="1"/>
      </contour>
      <contour>
        <pt x="284" y="368" on="1"/>
        <pt x="700" y="368" on="1"/>
        <pt x="700" y="1447" on="1"/>
        <pt x="284" y="1447" on="1"/>
      </contour>
    </TTGlyph>
    <TTGlyph name="lamthreedotsabovefinal" xMin="142" yMin="226" xMax="842" yMax="1588">
      <contour>
        <pt x="142" y="226" on="1"/>
        <pt x="142" y="1588" on="1"/>
        <pt x="842" y="1588" on="1"/>
        <pt x="842" y="226" on="1"/>
      </contour>
      <contour>
        <pt x="284" y="368" on="1"/>
        <pt x="700" y="368" on="1"/>
        <pt x="700" y="1447" on="1"/>
        <pt x="284" y="1447" on="1"/>
      </contour>
    </TTGlyph>
    <TTGlyph name="lamthreedotsaboveinitial" xMin="142" yMin="226" xMax="842" yMax="1588">
      <contour>
        <pt x="142" y="226" on="1"/>
        <pt x="142" y="1588" on="1"/>
        <pt x="842" y="1588" on="1"/>
        <pt x="842" y="226" on="1"/>
      </contour>
      <contour>
        <pt x="284" y="368" on="1"/>
        <pt x="700" y="368" on="1"/>
        <pt x="700" y="1447" on="1"/>
        <pt x="284" y="1447" on="1"/>
      </contour>
    </TTGlyph>
    <TTGlyph name="lamthreedotsabovemedial" xMin="142" yMin="226" xMax="842" yMax="1588">
      <contour>
        <pt x="142" y="226" on="1"/>
        <pt x="142" y="1588" on="1"/>
        <pt x="842" y="1588" on="1"/>
        <pt x="842" y="226" on="1"/>
      </contour>
      <contour>
        <pt x="284" y="368" on="1"/>
        <pt x="700" y="368" on="1"/>
        <pt x="700" y="1447" on="1"/>
        <pt x="284" y="1447" on="1"/>
      </contour>
    </TTGlyph>
    <TTGlyph name="less" xMin="142" yMin="226" xMax="842" yMax="1588">
      <contour>
        <pt x="142" y="226" on="1"/>
        <pt x="142" y="1588" on="1"/>
        <pt x="842" y="1588" on="1"/>
        <pt x="842" y="226" on="1"/>
      </contour>
      <contour>
        <pt x="284" y="368" on="1"/>
        <pt x="700" y="368" on="1"/>
        <pt x="700" y="1447" on="1"/>
        <pt x="284" y="1447" on="1"/>
      </contour>
    </TTGlyph>
    <TTGlyph name="meemmeemisolatedarabic" xMin="142" yMin="226" xMax="842" yMax="1588">
      <contour>
        <pt x="142" y="226" on="1"/>
        <pt x="142" y="1588" on="1"/>
        <pt x="842" y="1588" on="1"/>
        <pt x="842" y="226" on="1"/>
      </contour>
      <contour>
        <pt x="284" y="368" on="1"/>
        <pt x="700" y="368" on="1"/>
        <pt x="700" y="1447" on="1"/>
        <pt x="284" y="1447" on="1"/>
      </contour>
    </TTGlyph>
    <TTGlyph name="multiply" xMin="142" yMin="226" xMax="842" yMax="1588">
      <contour>
        <pt x="142" y="226" on="1"/>
        <pt x="142" y="1588" on="1"/>
        <pt x="842" y="1588" on="1"/>
        <pt x="842" y="226" on="1"/>
      </contour>
      <contour>
        <pt x="284" y="368" on="1"/>
        <pt x="700" y="368" on="1"/>
        <pt x="700" y="1447" on="1"/>
        <pt x="284" y="1447" on="1"/>
      </contour>
    </TTGlyph>
    <TTGlyph name="noonghunnafinalarabic" xMin="142" yMin="226" xMax="842" yMax="1588">
      <contour>
        <pt x="142" y="226" on="1"/>
        <pt x="142" y="1588" on="1"/>
        <pt x="842" y="1588" on="1"/>
        <pt x="842" y="226" on="1"/>
      </contour>
      <contour>
        <pt x="284" y="368" on="1"/>
        <pt x="700" y="368" on="1"/>
        <pt x="700" y="1447" on="1"/>
        <pt x="284" y="1447" on="1"/>
      </contour>
    </TTGlyph>
    <TTGlyph name="noonjeemisolatedarabic" xMin="142" yMin="226" xMax="842" yMax="1588">
      <contour>
        <pt x="142" y="226" on="1"/>
        <pt x="142" y="1588" on="1"/>
        <pt x="842" y="1588" on="1"/>
        <pt x="842" y="226" on="1"/>
      </contour>
      <contour>
        <pt x="284" y="368" on="1"/>
        <pt x="700" y="368" on="1"/>
        <pt x="700" y="1447" on="1"/>
        <pt x="284" y="1447" on="1"/>
      </contour>
    </TTGlyph>
    <TTGlyph name="noonmeemisolatedarabic" xMin="142" yMin="226" xMax="842" yMax="1588">
      <contour>
        <pt x="142" y="226" on="1"/>
        <pt x="142" y="1588" on="1"/>
        <pt x="842" y="1588" on="1"/>
        <pt x="842" y="226" on="1"/>
      </contour>
      <contour>
        <pt x="284" y="368" on="1"/>
        <pt x="700" y="368" on="1"/>
        <pt x="700" y="1447" on="1"/>
        <pt x="284" y="1447" on="1"/>
      </contour>
    </TTGlyph>
    <TTGlyph name="noonringfinal" xMin="142" yMin="226" xMax="842" yMax="1588">
      <contour>
        <pt x="142" y="226" on="1"/>
        <pt x="142" y="1588" on="1"/>
        <pt x="842" y="1588" on="1"/>
        <pt x="842" y="226" on="1"/>
      </contour>
      <contour>
        <pt x="284" y="368" on="1"/>
        <pt x="700" y="368" on="1"/>
        <pt x="700" y="1447" on="1"/>
        <pt x="284" y="1447" on="1"/>
      </contour>
    </TTGlyph>
    <TTGlyph name="noonringinitial" xMin="142" yMin="226" xMax="842" yMax="1588">
      <contour>
        <pt x="142" y="226" on="1"/>
        <pt x="142" y="1588" on="1"/>
        <pt x="842" y="1588" on="1"/>
        <pt x="842" y="226" on="1"/>
      </contour>
      <contour>
        <pt x="284" y="368" on="1"/>
        <pt x="700" y="368" on="1"/>
        <pt x="700" y="1447" on="1"/>
        <pt x="284" y="1447" on="1"/>
      </contour>
    </TTGlyph>
    <TTGlyph name="noonringmedial" xMin="142" yMin="226" xMax="842" yMax="1588">
      <contour>
        <pt x="142" y="226" on="1"/>
        <pt x="142" y="1588" on="1"/>
        <pt x="842" y="1588" on="1"/>
        <pt x="842" y="226" on="1"/>
      </contour>
      <contour>
        <pt x="284" y="368" on="1"/>
        <pt x="700" y="368" on="1"/>
        <pt x="700" y="1447" on="1"/>
        <pt x="284" y="1447" on="1"/>
      </contour>
    </TTGlyph>
    <TTGlyph name="numbersign" xMin="142" yMin="226" xMax="842" yMax="1588">
      <contour>
        <pt x="142" y="226" on="1"/>
        <pt x="142" y="1588" on="1"/>
        <pt x="842" y="1588" on="1"/>
        <pt x="842" y="226" on="1"/>
      </contour>
      <contour>
        <pt x="284" y="368" on="1"/>
        <pt x="700" y="368" on="1"/>
        <pt x="700" y="1447" on="1"/>
        <pt x="284" y="1447" on="1"/>
      </contour>
    </TTGlyph>
    <TTGlyph name="parenleft" xMin="142" yMin="226" xMax="842" yMax="1588">
      <contour>
        <pt x="142" y="226" on="1"/>
        <pt x="142" y="1588" on="1"/>
        <pt x="842" y="1588" on="1"/>
        <pt x="842" y="226" on="1"/>
      </contour>
      <contour>
        <pt x="284" y="368" on="1"/>
        <pt x="700" y="368" on="1"/>
        <pt x="700" y="1447" on="1"/>
        <pt x="284" y="1447" on="1"/>
      </contour>
    </TTGlyph>
    <TTGlyph name="parenright" xMin="142" yMin="226" xMax="842" yMax="1588">
      <contour>
        <pt x="142" y="226" on="1"/>
        <pt x="142" y="1588" on="1"/>
        <pt x="842" y="1588" on="1"/>
        <pt x="842" y="226" on="1"/>
      </contour>
      <contour>
        <pt x="284" y="368" on="1"/>
        <pt x="700" y="368" on="1"/>
        <pt x="700" y="1447" on="1"/>
        <pt x="284" y="1447" on="1"/>
      </contour>
    </TTGlyph>
    <TTGlyph name="pashtoefinal" xMin="142" yMin="226" xMax="842" yMax="1588">
      <contour>
        <pt x="142" y="226" on="1"/>
        <pt x="142" y="1588" on="1"/>
        <pt x="842" y="1588" on="1"/>
        <pt x="842" y="226" on="1"/>
      </contour>
      <contour>
        <pt x="284" y="368" on="1"/>
        <pt x="700" y="368" on="1"/>
        <pt x="700" y="1447" on="1"/>
        <pt x="284" y="1447" on="1"/>
      </contour>
    </TTGlyph>
    <TTGlyph name="pashtoeinitial" xMin="142" yMin="226" xMax="842" yMax="1588">
      <contour>
        <pt x="142" y="226" on="1"/>
        <pt x="142" y="1588" on="1"/>
        <pt x="842" y="1588" on="1"/>
        <pt x="842" y="226" on="1"/>
      </contour>
      <contour>
        <pt x="284" y="368" on="1"/>
        <pt x="700" y="368" on="1"/>
        <pt x="700" y="1447" on="1"/>
        <pt x="284" y="1447" on="1"/>
      </contour>
    </TTGlyph>
    <TTGlyph name="pashtoemedial" xMin="142" yMin="226" xMax="842" yMax="1588">
      <contour>
        <pt x="142" y="226" on="1"/>
        <pt x="142" y="1588" on="1"/>
        <pt x="842" y="1588" on="1"/>
        <pt x="842" y="226" on="1"/>
      </contour>
      <contour>
        <pt x="284" y="368" on="1"/>
        <pt x="700" y="368" on="1"/>
        <pt x="700" y="1447" on="1"/>
        <pt x="284" y="1447" on="1"/>
      </contour>
    </TTGlyph>
    <TTGlyph name="pehfinalarabic" xMin="142" yMin="226" xMax="842" yMax="1588">
      <contour>
        <pt x="142" y="226" on="1"/>
        <pt x="142" y="1588" on="1"/>
        <pt x="842" y="1588" on="1"/>
        <pt x="842" y="226" on="1"/>
      </contour>
      <contour>
        <pt x="284" y="368" on="1"/>
        <pt x="700" y="368" on="1"/>
        <pt x="700" y="1447" on="1"/>
        <pt x="284" y="1447" on="1"/>
      </contour>
    </TTGlyph>
    <TTGlyph name="pehinitialarabic" xMin="142" yMin="226" xMax="842" yMax="1588">
      <contour>
        <pt x="142" y="226" on="1"/>
        <pt x="142" y="1588" on="1"/>
        <pt x="842" y="1588" on="1"/>
        <pt x="842" y="226" on="1"/>
      </contour>
      <contour>
        <pt x="284" y="368" on="1"/>
        <pt x="700" y="368" on="1"/>
        <pt x="700" y="1447" on="1"/>
        <pt x="284" y="1447" on="1"/>
      </contour>
    </TTGlyph>
    <TTGlyph name="pehmedialarabic" xMin="142" yMin="226" xMax="842" yMax="1588">
      <contour>
        <pt x="142" y="226" on="1"/>
        <pt x="142" y="1588" on="1"/>
        <pt x="842" y="1588" on="1"/>
        <pt x="842" y="226" on="1"/>
      </contour>
      <contour>
        <pt x="284" y="368" on="1"/>
        <pt x="700" y="368" on="1"/>
        <pt x="700" y="1447" on="1"/>
        <pt x="284" y="1447" on="1"/>
      </contour>
    </TTGlyph>
    <TTGlyph name="percent" xMin="142" yMin="226" xMax="842" yMax="1588">
      <contour>
        <pt x="142" y="226" on="1"/>
        <pt x="142" y="1588" on="1"/>
        <pt x="842" y="1588" on="1"/>
        <pt x="842" y="226" on="1"/>
      </contour>
      <contour>
        <pt x="284" y="368" on="1"/>
        <pt x="700" y="368" on="1"/>
        <pt x="700" y="1447" on="1"/>
        <pt x="284" y="1447" on="1"/>
      </contour>
    </TTGlyph>
    <TTGlyph name="period" xMin="142" yMin="226" xMax="842" yMax="1588">
      <contour>
        <pt x="142" y="226" on="1"/>
        <pt x="142" y="1588" on="1"/>
        <pt x="842" y="1588" on="1"/>
        <pt x="842" y="226" on="1"/>
      </contour>
      <contour>
        <pt x="284" y="368" on="1"/>
        <pt x="700" y="368" on="1"/>
        <pt x="700" y="1447" on="1"/>
        <pt x="284" y="1447" on="1"/>
      </contour>
    </TTGlyph>
    <TTGlyph name="plus" xMin="142" yMin="226" xMax="842" yMax="1588">
      <contour>
        <pt x="142" y="226" on="1"/>
        <pt x="142" y="1588" on="1"/>
        <pt x="842" y="1588" on="1"/>
        <pt x="842" y="226" on="1"/>
      </contour>
      <contour>
        <pt x="284" y="368" on="1"/>
        <pt x="700" y="368" on="1"/>
        <pt x="700" y="1447" on="1"/>
        <pt x="284" y="1447" on="1"/>
      </contour>
    </TTGlyph>
    <TTGlyph name="quotedbl" xMin="142" yMin="226" xMax="842" yMax="1588">
      <contour>
        <pt x="142" y="226" on="1"/>
        <pt x="142" y="1588" on="1"/>
        <pt x="842" y="1588" on="1"/>
        <pt x="842" y="226" on="1"/>
      </contour>
      <contour>
        <pt x="284" y="368" on="1"/>
        <pt x="700" y="368" on="1"/>
        <pt x="700" y="1447" on="1"/>
        <pt x="284" y="1447" on="1"/>
      </contour>
    </TTGlyph>
    <TTGlyph name="quotesingle" xMin="142" yMin="226" xMax="842" yMax="1588">
      <contour>
        <pt x="142" y="226" on="1"/>
        <pt x="142" y="1588" on="1"/>
        <pt x="842" y="1588" on="1"/>
        <pt x="842" y="226" on="1"/>
      </contour>
      <contour>
        <pt x="284" y="368" on="1"/>
        <pt x="700" y="368" on="1"/>
        <pt x="700" y="1447" on="1"/>
        <pt x="284" y="1447" on="1"/>
      </contour>
    </TTGlyph>
    <TTGlyph name="rehdotbelowdotabovefinal" xMin="142" yMin="226" xMax="842" yMax="1588">
      <contour>
        <pt x="142" y="226" on="1"/>
        <pt x="142" y="1588" on="1"/>
        <pt x="842" y="1588" on="1"/>
        <pt x="842" y="226" on="1"/>
      </contour>
      <contour>
        <pt x="284" y="368" on="1"/>
        <pt x="700" y="368" on="1"/>
        <pt x="700" y="1447" on="1"/>
        <pt x="284" y="1447" on="1"/>
      </contour>
    </TTGlyph>
    <TTGlyph name="rehringfinal" xMin="142" yMin="226" xMax="842" yMax="1588">
      <contour>
        <pt x="142" y="226" on="1"/>
        <pt x="142" y="1588" on="1"/>
        <pt x="842" y="1588" on="1"/>
        <pt x="842" y="226" on="1"/>
      </contour>
      <contour>
        <pt x="284" y="368" on="1"/>
        <pt x="700" y="368" on="1"/>
        <pt x="700" y="1447" on="1"/>
        <pt x="284" y="1447" on="1"/>
      </contour>
    </TTGlyph>
    <TTGlyph name="rrehfinalarabic" xMin="142" yMin="226" xMax="842" yMax="1588">
      <contour>
        <pt x="142" y="226" on="1"/>
        <pt x="142" y="1588" on="1"/>
        <pt x="842" y="1588" on="1"/>
        <pt x="842" y="226" on="1"/>
      </contour>
      <contour>
        <pt x="284" y="368" on="1"/>
        <pt x="700" y="368" on="1"/>
        <pt x="700" y="1447" on="1"/>
        <pt x="284" y="1447" on="1"/>
      </contour>
    </TTGlyph>
    <TTGlyph name="seendotbelowdotabovefinal" xMin="142" yMin="226" xMax="842" yMax="1588">
      <contour>
        <pt x="142" y="226" on="1"/>
        <pt x="142" y="1588" on="1"/>
        <pt x="842" y="1588" on="1"/>
        <pt x="842" y="226" on="1"/>
      </contour>
      <contour>
        <pt x="284" y="368" on="1"/>
        <pt x="700" y="368" on="1"/>
        <pt x="700" y="1447" on="1"/>
        <pt x="284" y="1447" on="1"/>
      </contour>
    </TTGlyph>
    <TTGlyph name="seendotbelowdotaboveinitial" xMin="142" yMin="226" xMax="842" yMax="1588">
      <contour>
        <pt x="142" y="226" on="1"/>
        <pt x="142" y="1588" on="1"/>
        <pt x="842" y="1588" on="1"/>
        <pt x="842" y="226" on="1"/>
      </contour>
      <contour>
        <pt x="284" y="368" on="1"/>
        <pt x="700" y="368" on="1"/>
        <pt x="700" y="1447" on="1"/>
        <pt x="284" y="1447" on="1"/>
      </contour>
    </TTGlyph>
    <TTGlyph name="seendotbelowdotabovemedial" xMin="142" yMin="226" xMax="842" yMax="1588">
      <contour>
        <pt x="142" y="226" on="1"/>
        <pt x="142" y="1588" on="1"/>
        <pt x="842" y="1588" on="1"/>
        <pt x="842" y="226" on="1"/>
      </contour>
      <contour>
        <pt x="284" y="368" on="1"/>
        <pt x="700" y="368" on="1"/>
        <pt x="700" y="1447" on="1"/>
        <pt x="284" y="1447" on="1"/>
      </contour>
    </TTGlyph>
    <TTGlyph name="shaddadammaarabic" xMin="142" yMin="226" xMax="842" yMax="1588">
      <contour>
        <pt x="142" y="226" on="1"/>
        <pt x="142" y="1588" on="1"/>
        <pt x="842" y="1588" on="1"/>
        <pt x="842" y="226" on="1"/>
      </contour>
      <contour>
        <pt x="284" y="368" on="1"/>
        <pt x="700" y="368" on="1"/>
        <pt x="700" y="1447" on="1"/>
        <pt x="284" y="1447" on="1"/>
      </contour>
    </TTGlyph>
    <TTGlyph name="shaddadammatanarabic" xMin="142" yMin="226" xMax="842" yMax="1588">
      <contour>
        <pt x="142" y="226" on="1"/>
        <pt x="142" y="1588" on="1"/>
        <pt x="842" y="1588" on="1"/>
        <pt x="842" y="226" on="1"/>
      </contour>
      <contour>
        <pt x="284" y="368" on="1"/>
        <pt x="700" y="368" on="1"/>
        <pt x="700" y="1447" on="1"/>
        <pt x="284" y="1447" on="1"/>
      </contour>
    </TTGlyph>
    <TTGlyph name="shaddafathaarabic" xMin="142" yMin="226" xMax="842" yMax="1588">
      <contour>
        <pt x="142" y="226" on="1"/>
        <pt x="142" y="1588" on="1"/>
        <pt x="842" y="1588" on="1"/>
        <pt x="842" y="226" on="1"/>
      </contour>
      <contour>
        <pt x="284" y="368" on="1"/>
        <pt x="700" y="368" on="1"/>
        <pt x="700" y="1447" on="1"/>
        <pt x="284" y="1447" on="1"/>
      </contour>
    </TTGlyph>
    <TTGlyph name="shaddakasraarabic" xMin="142" yMin="226" xMax="842" yMax="1588">
      <contour>
        <pt x="142" y="226" on="1"/>
        <pt x="142" y="1588" on="1"/>
        <pt x="842" y="1588" on="1"/>
        <pt x="842" y="226" on="1"/>
      </contour>
      <contour>
        <pt x="284" y="368" on="1"/>
        <pt x="700" y="368" on="1"/>
        <pt x="700" y="1447" on="1"/>
        <pt x="284" y="1447" on="1"/>
      </contour>
    </TTGlyph>
    <TTGlyph name="shaddakasratanarabic" xMin="142" yMin="226" xMax="842" yMax="1588">
      <contour>
        <pt x="142" y="226" on="1"/>
        <pt x="142" y="1588" on="1"/>
        <pt x="842" y="1588" on="1"/>
        <pt x="842" y="226" on="1"/>
      </contour>
      <contour>
        <pt x="284" y="368" on="1"/>
        <pt x="700" y="368" on="1"/>
        <pt x="700" y="1447" on="1"/>
        <pt x="284" y="1447" on="1"/>
      </contour>
    </TTGlyph>
    <TTGlyph name="slash" xMin="142" yMin="226" xMax="842" yMax="1588">
      <contour>
        <pt x="142" y="226" on="1"/>
        <pt x="142" y="1588" on="1"/>
        <pt x="842" y="1588" on="1"/>
        <pt x="842" y="226" on="1"/>
      </contour>
      <contour>
        <pt x="284" y="368" on="1"/>
        <pt x="700" y="368" on="1"/>
        <pt x="700" y="1447" on="1"/>
        <pt x="284" y="1447" on="1"/>
      </contour>
    </TTGlyph>
    <TTGlyph name="space" xMin="142" yMin="226" xMax="842" yMax="1588">
      <contour>
        <pt x="142" y="226" on="1"/>
        <pt x="142" y="1588" on="1"/>
        <pt x="842" y="1588" on="1"/>
        <pt x="842" y="226" on="1"/>
      </contour>
      <contour>
        <pt x="284" y="368" on="1"/>
        <pt x="700" y="368" on="1"/>
        <pt x="700" y="1447" on="1"/>
        <pt x="284" y="1447" on="1"/>
      </contour>
    </TTGlyph>
    <TTGlyph name="tchehfinalarabic" xMin="142" yMin="226" xMax="842" yMax="1588">
      <contour>
        <pt x="142" y="226" on="1"/>
        <pt x="142" y="1588" on="1"/>
        <pt x="842" y="1588" on="1"/>
        <pt x="842" y="226" on="1"/>
      </contour>
      <contour>
        <pt x="284" y="368" on="1"/>
        <pt x="700" y="368" on="1"/>
        <pt x="700" y="1447" on="1"/>
        <pt x="284" y="1447" on="1"/>
      </contour>
    </TTGlyph>
    <TTGlyph name="tchehinitialarabic" xMin="142" yMin="226" xMax="842" yMax="1588">
      <contour>
        <pt x="142" y="226" on="1"/>
        <pt x="142" y="1588" on="1"/>
        <pt x="842" y="1588" on="1"/>
        <pt x="842" y="226" on="1"/>
      </contour>
      <contour>
        <pt x="284" y="368" on="1"/>
        <pt x="700" y="368" on="1"/>
        <pt x="700" y="1447" on="1"/>
        <pt x="284" y="1447" on="1"/>
      </contour>
    </TTGlyph>
    <TTGlyph name="tchehmedialarabic" xMin="142" yMin="226" xMax="842" yMax="1588">
      <contour>
        <pt x="142" y="226" on="1"/>
        <pt x="142" y="1588" on="1"/>
        <pt x="842" y="1588" on="1"/>
        <pt x="842" y="226" on="1"/>
      </contour>
      <contour>
        <pt x="284" y="368" on="1"/>
        <pt x="700" y="368" on="1"/>
        <pt x="700" y="1447" on="1"/>
        <pt x="284" y="1447" on="1"/>
      </contour>
    </TTGlyph>
    <TTGlyph name="tehhahisolatedarabic" xMin="142" yMin="226" xMax="842" yMax="1588">
      <contour>
        <pt x="142" y="226" on="1"/>
        <pt x="142" y="1588" on="1"/>
        <pt x="842" y="1588" on="1"/>
        <pt x="842" y="226" on="1"/>
      </contour>
      <contour>
        <pt x="284" y="368" on="1"/>
        <pt x="700" y="368" on="1"/>
        <pt x="700" y="1447" on="1"/>
        <pt x="284" y="1447" on="1"/>
      </contour>
    </TTGlyph>
    <TTGlyph name="tehjeemisolatedarabic" xMin="142" yMin="226" xMax="842" yMax="1588">
      <contour>
        <pt x="142" y="226" on="1"/>
        <pt x="142" y="1588" on="1"/>
        <pt x="842" y="1588" on="1"/>
        <pt x="842" y="226" on="1"/>
      </contour>
      <contour>
        <pt x="284" y="368" on="1"/>
        <pt x="700" y="368" on="1"/>
        <pt x="700" y="1447" on="1"/>
        <pt x="284" y="1447" on="1"/>
      </contour>
    </TTGlyph>
    <TTGlyph name="tehmeemisolatedarabic" xMin="142" yMin="226" xMax="842" yMax="1588">
      <contour>
        <pt x="142" y="226" on="1"/>
        <pt x="142" y="1588" on="1"/>
        <pt x="842" y="1588" on="1"/>
        <pt x="842" y="226" on="1"/>
      </contour>
      <contour>
        <pt x="284" y="368" on="1"/>
        <pt x="700" y="368" on="1"/>
        <pt x="700" y="1447" on="1"/>
        <pt x="284" y="1447" on="1"/>
      </contour>
    </TTGlyph>
    <TTGlyph name="tehnoonfinalarabic" xMin="142" yMin="226" xMax="842" yMax="1588">
      <contour>
        <pt x="142" y="226" on="1"/>
        <pt x="142" y="1588" on="1"/>
        <pt x="842" y="1588" on="1"/>
        <pt x="842" y="226" on="1"/>
      </contour>
      <contour>
        <pt x="284" y="368" on="1"/>
        <pt x="700" y="368" on="1"/>
        <pt x="700" y="1447" on="1"/>
        <pt x="284" y="1447" on="1"/>
      </contour>
    </TTGlyph>
    <TTGlyph name="tehringfinal" xMin="142" yMin="226" xMax="842" yMax="1588">
      <contour>
        <pt x="142" y="226" on="1"/>
        <pt x="142" y="1588" on="1"/>
        <pt x="842" y="1588" on="1"/>
        <pt x="842" y="226" on="1"/>
      </contour>
      <contour>
        <pt x="284" y="368" on="1"/>
        <pt x="700" y="368" on="1"/>
        <pt x="700" y="1447" on="1"/>
        <pt x="284" y="1447" on="1"/>
      </contour>
    </TTGlyph>
    <TTGlyph name="tehringinitial" xMin="142" yMin="226" xMax="842" yMax="1588">
      <contour>
        <pt x="142" y="226" on="1"/>
        <pt x="142" y="1588" on="1"/>
        <pt x="842" y="1588" on="1"/>
        <pt x="842" y="226" on="1"/>
      </contour>
      <contour>
        <pt x="284" y="368" on="1"/>
        <pt x="700" y="368" on="1"/>
        <pt x="700" y="1447" on="1"/>
        <pt x="284" y="1447" on="1"/>
      </contour>
    </TTGlyph>
    <TTGlyph name="tehringmedial" xMin="142" yMin="226" xMax="842" yMax="1588">
      <contour>
        <pt x="142" y="226" on="1"/>
        <pt x="142" y="1588" on="1"/>
        <pt x="842" y="1588" on="1"/>
        <pt x="842" y="226" on="1"/>
      </contour>
      <contour>
        <pt x="284" y="368" on="1"/>
        <pt x="700" y="368" on="1"/>
        <pt x="700" y="1447" on="1"/>
        <pt x="284" y="1447" on="1"/>
      </contour>
    </TTGlyph>
    <TTGlyph name="ttehfinalarabic" xMin="142" yMin="226" xMax="842" yMax="1588">
      <contour>
        <pt x="142" y="226" on="1"/>
        <pt x="142" y="1588" on="1"/>
        <pt x="842" y="1588" on="1"/>
        <pt x="842" y="226" on="1"/>
      </contour>
      <contour>
        <pt x="284" y="368" on="1"/>
        <pt x="700" y="368" on="1"/>
        <pt x="700" y="1447" on="1"/>
        <pt x="284" y="1447" on="1"/>
      </contour>
    </TTGlyph>
    <TTGlyph name="ttehinitialarabic" xMin="142" yMin="226" xMax="842" yMax="1588">
      <contour>
        <pt x="142" y="226" on="1"/>
        <pt x="142" y="1588" on="1"/>
        <pt x="842" y="1588" on="1"/>
        <pt x="842" y="226" on="1"/>
      </contour>
      <contour>
        <pt x="284" y="368" on="1"/>
        <pt x="700" y="368" on="1"/>
        <pt x="700" y="1447" on="1"/>
        <pt x="284" y="1447" on="1"/>
      </contour>
    </TTGlyph>
    <TTGlyph name="ttehmedialarabic" xMin="142" yMin="226" xMax="842" yMax="1588">
      <contour>
        <pt x="142" y="226" on="1"/>
        <pt x="142" y="1588" on="1"/>
        <pt x="842" y="1588" on="1"/>
        <pt x="842" y="226" on="1"/>
      </contour>
      <contour>
        <pt x="284" y="368" on="1"/>
        <pt x="700" y="368" on="1"/>
        <pt x="700" y="1447" on="1"/>
        <pt x="284" y="1447" on="1"/>
      </contour>
    </TTGlyph>
    <TTGlyph name="uni000D" xMin="142" yMin="226" xMax="842" yMax="1588">
      <contour>
        <pt x="142" y="226" on="1"/>
        <pt x="142" y="1588" on="1"/>
        <pt x="842" y="1588" on="1"/>
        <pt x="842" y="226" on="1"/>
      </contour>
      <contour>
        <pt x="284" y="368" on="1"/>
        <pt x="700" y="368" on="1"/>
        <pt x="700" y="1447" on="1"/>
        <pt x="284" y="1447" on="1"/>
      </contour>
    </TTGlyph>
    <TTGlyph name="uni00A0" xMin="142" yMin="226" xMax="842" yMax="1588">
      <contour>
        <pt x="142" y="226" on="1"/>
        <pt x="142" y="1588" on="1"/>
        <pt x="842" y="1588" on="1"/>
        <pt x="842" y="226" on="1"/>
      </contour>
      <contour>
        <pt x="284" y="368" on="1"/>
        <pt x="700" y="368" on="1"/>
        <pt x="700" y="1447" on="1"/>
        <pt x="284" y="1447" on="1"/>
      </contour>
    </TTGlyph>
    <TTGlyph name="uni00AD" xMin="142" yMin="226" xMax="842" yMax="1588">
      <contour>
        <pt x="142" y="226" on="1"/>
        <pt x="142" y="1588" on="1"/>
        <pt x="842" y="1588" on="1"/>
        <pt x="842" y="226" on="1"/>
      </contour>
      <contour>
        <pt x="284" y="368" on="1"/>
        <pt x="700" y="368" on="1"/>
        <pt x="700" y="1447" on="1"/>
        <pt x="284" y="1447" on="1"/>
      </contour>
    </TTGlyph>
    <TTGlyph name="uni0653" xMin="142" yMin="226" xMax="842" yMax="1588">
      <contour>
        <pt x="142" y="226" on="1"/>
        <pt x="142" y="1588" on="1"/>
        <pt x="842" y="1588" on="1"/>
        <pt x="842" y="226" on="1"/>
      </contour>
      <contour>
        <pt x="284" y="368" on="1"/>
        <pt x="700" y="368" on="1"/>
        <pt x="700" y="1447" on="1"/>
        <pt x="284" y="1447" on="1"/>
      </contour>
    </TTGlyph>
    <TTGlyph name="uni0654" xMin="142" yMin="226" xMax="842" yMax="1588">
      <contour>
        <pt x="142" y="226" on="1"/>
        <pt x="142" y="1588" on="1"/>
        <pt x="842" y="1588" on="1"/>
        <pt x="842" y="226" on="1"/>
      </contour>
      <contour>
        <pt x="284" y="368" on="1"/>
        <pt x="700" y="368" on="1"/>
        <pt x="700" y="1447" on="1"/>
        <pt x="284" y="1447" on="1"/>
      </contour>
    </TTGlyph>
    <TTGlyph name="uni0655" xMin="142" yMin="226" xMax="842" yMax="1588">
      <contour>
        <pt x="142" y="226" on="1"/>
        <pt x="142" y="1588" on="1"/>
        <pt x="842" y="1588" on="1"/>
        <pt x="842" y="226" on="1"/>
      </contour>
      <contour>
        <pt x="284" y="368" on="1"/>
        <pt x="700" y="368" on="1"/>
        <pt x="700" y="1447" on="1"/>
        <pt x="284" y="1447" on="1"/>
      </contour>
    </TTGlyph>
    <TTGlyph name="uni066B" xMin="142" yMin="226" xMax="842" yMax="1588">
      <contour>
        <pt x="142" y="226" on="1"/>
        <pt x="142" y="1588" on="1"/>
        <pt x="842" y="1588" on="1"/>
        <pt x="842" y="226" on="1"/>
      </contour>
      <contour>
        <pt x="284" y="368" on="1"/>
        <pt x="700" y="368" on="1"/>
        <pt x="700" y="1447" on="1"/>
        <pt x="284" y="1447" on="1"/>
      </contour>
    </TTGlyph>
    <TTGlyph name="uni066C" xMin="142" yMin="226" xMax="842" yMax="1588">
      <contour>
        <pt x="142" y="226" on="1"/>
        <pt x="142" y="1588" on="1"/>
        <pt x="842" y="1588" on="1"/>
        <pt x="842" y="226" on="1"/>
      </contour>
      <contour>
        <pt x="284" y="368" on="1"/>
        <pt x="700" y="368" on="1"/>
        <pt x="700" y="1447" on="1"/>
        <pt x="284" y="1447" on="1"/>
      </contour>
    </TTGlyph>
    <TTGlyph name="uni0671" xMin="142" yMin="226" xMax="842" yMax="1588">
      <contour>
        <pt x="142" y="226" on="1"/>
        <pt x="142" y="1588" on="1"/>
        <pt x="842" y="1588" on="1"/>
        <pt x="842" y="226" on="1"/>
      </contour>
      <contour>
        <pt x="284" y="368" on="1"/>
        <pt x="700" y="368" on="1"/>
        <pt x="700" y="1447" on="1"/>
        <pt x="284" y="1447" on="1"/>
      </contour>
    </TTGlyph>
    <TTGlyph name="uni067C" xMin="142" yMin="226" xMax="842" yMax="1588">
      <contour>
        <pt x="142" y="226" on="1"/>
        <pt x="142" y="1588" on="1"/>
        <pt x="842" y="1588" on="1"/>
        <pt x="842" y="226" on="1"/>
      </contour>
      <contour>
        <pt x="284" y="368" on="1"/>
        <pt x="700" y="368" on="1"/>
        <pt x="700" y="1447" on="1"/>
        <pt x="284" y="1447" on="1"/>
      </contour>
    </TTGlyph>
    <TTGlyph name="uni0681" xMin="142" yMin="226" xMax="842" yMax="1588">
      <contour>
        <pt x="142" y="226" on="1"/>
        <pt x="142" y="1588" on="1"/>
        <pt x="842" y="1588" on="1"/>
        <pt x="842" y="226" on="1"/>
      </contour>
      <contour>
        <pt x="284" y="368" on="1"/>
        <pt x="700" y="368" on="1"/>
        <pt x="700" y="1447" on="1"/>
        <pt x="284" y="1447" on="1"/>
      </contour>
    </TTGlyph>
    <TTGlyph name="uni0685" xMin="142" yMin="226" xMax="842" yMax="1588">
      <contour>
        <pt x="142" y="226" on="1"/>
        <pt x="142" y="1588" on="1"/>
        <pt x="842" y="1588" on="1"/>
        <pt x="842" y="226" on="1"/>
      </contour>
      <contour>
        <pt x="284" y="368" on="1"/>
        <pt x="700" y="368" on="1"/>
        <pt x="700" y="1447" on="1"/>
        <pt x="284" y="1447" on="1"/>
      </contour>
    </TTGlyph>
    <TTGlyph name="uni0689" xMin="142" yMin="226" xMax="842" yMax="1588">
      <contour>
        <pt x="142" y="226" on="1"/>
        <pt x="142" y="1588" on="1"/>
        <pt x="842" y="1588" on="1"/>
        <pt x="842" y="226" on="1"/>
      </contour>
      <contour>
        <pt x="284" y="368" on="1"/>
        <pt x="700" y="368" on="1"/>
        <pt x="700" y="1447" on="1"/>
        <pt x="284" y="1447" on="1"/>
      </contour>
    </TTGlyph>
    <TTGlyph name="uni0693" xMin="142" yMin="226" xMax="842" yMax="1588">
      <contour>
        <pt x="142" y="226" on="1"/>
        <pt x="142" y="1588" on="1"/>
        <pt x="842" y="1588" on="1"/>
        <pt x="842" y="226" on="1"/>
      </contour>
      <contour>
        <pt x="284" y="368" on="1"/>
        <pt x="700" y="368" on="1"/>
        <pt x="700" y="1447" on="1"/>
        <pt x="284" y="1447" on="1"/>
      </contour>
    </TTGlyph>
    <TTGlyph name="uni0696" xMin="142" yMin="226" xMax="842" yMax="1588">
      <contour>
        <pt x="142" y="226" on="1"/>
        <pt x="142" y="1588" on="1"/>
        <pt x="842" y="1588" on="1"/>
        <pt x="842" y="226" on="1"/>
      </contour>
      <contour>
        <pt x="284" y="368" on="1"/>
        <pt x="700" y="368" on="1"/>
        <pt x="700" y="1447" on="1"/>
        <pt x="284" y="1447" on="1"/>
      </contour>
    </TTGlyph>
    <TTGlyph name="uni069A" xMin="142" yMin="226" xMax="842" yMax="1588">
      <contour>
        <pt x="142" y="226" on="1"/>
        <pt x="142" y="1588" on="1"/>
        <pt x="842" y="1588" on="1"/>
        <pt x="842" y="226" on="1"/>
      </contour>
      <contour>
        <pt x="284" y="368" on="1"/>
        <pt x="700" y="368" on="1"/>
        <pt x="700" y="1447" on="1"/>
        <pt x="284" y="1447" on="1"/>
      </contour>
    </TTGlyph>
    <TTGlyph name="uni06A9" xMin="142" yMin="226" xMax="842" yMax="1588">
      <contour>
        <pt x="142" y="226" on="1"/>
        <pt x="142" y="1588" on="1"/>
        <pt x="842" y="1588" on="1"/>
        <pt x="842" y="226" on="1"/>
      </contour>
      <contour>
        <pt x="284" y="368" on="1"/>
        <pt x="700" y="368" on="1"/>
        <pt x="700" y="1447" on="1"/>
        <pt x="284" y="1447" on="1"/>
      </contour>
    </TTGlyph>
    <TTGlyph name="uni06AB" xMin="142" yMin="226" xMax="842" yMax="1588">
      <contour>
        <pt x="142" y="226" on="1"/>
        <pt x="142" y="1588" on="1"/>
        <pt x="842" y="1588" on="1"/>
        <pt x="842" y="226" on="1"/>
      </contour>
      <contour>
        <pt x="284" y="368" on="1"/>
        <pt x="700" y="368" on="1"/>
        <pt x="700" y="1447" on="1"/>
        <pt x="284" y="1447" on="1"/>
      </contour>
    </TTGlyph>
    <TTGlyph name="uni06B7" xMin="142" yMin="226" xMax="842" yMax="1588">
      <contour>
        <pt x="142" y="226" on="1"/>
        <pt x="142" y="1588" on="1"/>
        <pt x="842" y="1588" on="1"/>
        <pt x="842" y="226" on="1"/>
      </contour>
      <contour>
        <pt x="284" y="368" on="1"/>
        <pt x="700" y="368" on="1"/>
        <pt x="700" y="1447" on="1"/>
        <pt x="284" y="1447" on="1"/>
      </contour>
    </TTGlyph>
    <TTGlyph name="uni06BC" xMin="142" yMin="226" xMax="842" yMax="1588">
      <contour>
        <pt x="142" y="226" on="1"/>
        <pt x="142" y="1588" on="1"/>
        <pt x="842" y="1588" on="1"/>
        <pt x="842" y="226" on="1"/>
      </contour>
      <contour>
        <pt x="284" y="368" on="1"/>
        <pt x="700" y="368" on="1"/>
        <pt x="700" y="1447" on="1"/>
        <pt x="284" y="1447" on="1"/>
      </contour>
    </TTGlyph>
    <TTGlyph name="uni06BE" xMin="142" yMin="226" xMax="842" yMax="1588">
      <contour>
        <pt x="142" y="226" on="1"/>
        <pt x="142" y="1588" on="1"/>
        <pt x="842" y="1588" on="1"/>
        <pt x="842" y="226" on="1"/>
      </contour>
      <contour>
        <pt x="284" y="368" on="1"/>
        <pt x="700" y="368" on="1"/>
        <pt x="700" y="1447" on="1"/>
        <pt x="284" y="1447" on="1"/>
      </contour>
    </TTGlyph>
    <TTGlyph name="uni06C2" xMin="142" yMin="226" xMax="842" yMax="1588">
      <contour>
        <pt x="142" y="226" on="1"/>
        <pt x="142" y="1588" on="1"/>
        <pt x="842" y="1588" on="1"/>
        <pt x="842" y="226" on="1"/>
      </contour>
      <contour>
        <pt x="284" y="368" on="1"/>
        <pt x="700" y="368" on="1"/>
        <pt x="700" y="1447" on="1"/>
        <pt x="284" y="1447" on="1"/>
      </contour>
    </TTGlyph>
    <TTGlyph name="uni06C7" xMin="142" yMin="226" xMax="842" yMax="1588">
      <contour>
        <pt x="142" y="226" on="1"/>
        <pt x="142" y="1588" on="1"/>
        <pt x="842" y="1588" on="1"/>
        <pt x="842" y="226" on="1"/>
      </contour>
      <contour>
        <pt x="284" y="368" on="1"/>
        <pt x="700" y="368" on="1"/>
        <pt x="700" y="1447" on="1"/>
        <pt x="284" y="1447" on="1"/>
      </contour>
    </TTGlyph>
    <TTGlyph name="uni06C9" xMin="142" yMin="226" xMax="842" yMax="1588">
      <contour>
        <pt x="142" y="226" on="1"/>
        <pt x="142" y="1588" on="1"/>
        <pt x="842" y="1588" on="1"/>
        <pt x="842" y="226" on="1"/>
      </contour>
      <contour>
        <pt x="284" y="368" on="1"/>
        <pt x="700" y="368" on="1"/>
        <pt x="700" y="1447" on="1"/>
        <pt x="284" y="1447" on="1"/>
      </contour>
    </TTGlyph>
    <TTGlyph name="uni06CC" xMin="142" yMin="226" xMax="842" yMax="1588">
      <contour>
        <pt x="142" y="226" on="1"/>
        <pt x="142" y="1588" on="1"/>
        <pt x="842" y="1588" on="1"/>
        <pt x="842" y="226" on="1"/>
      </contour>
      <contour>
        <pt x="284" y="368" on="1"/>
        <pt x="700" y="368" on="1"/>
        <pt x="700" y="1447" on="1"/>
        <pt x="284" y="1447" on="1"/>
      </contour>
    </TTGlyph>
    <TTGlyph name="uni06CD" xMin="142" yMin="226" xMax="842" yMax="1588">
      <contour>
        <pt x="142" y="226" on="1"/>
        <pt x="142" y="1588" on="1"/>
        <pt x="842" y="1588" on="1"/>
        <pt x="842" y="226" on="1"/>
      </contour>
      <contour>
        <pt x="284" y="368" on="1"/>
        <pt x="700" y="368" on="1"/>
        <pt x="700" y="1447" on="1"/>
        <pt x="284" y="1447" on="1"/>
      </contour>
    </TTGlyph>
    <TTGlyph name="uni06D0" xMin="142" yMin="226" xMax="842" yMax="1588">
      <contour>
        <pt x="142" y="226" on="1"/>
        <pt x="142" y="1588" on="1"/>
        <pt x="842" y="1588" on="1"/>
        <pt x="842" y="226" on="1"/>
      </contour>
      <contour>
        <pt x="284" y="368" on="1"/>
        <pt x="700" y="368" on="1"/>
        <pt x="700" y="1447" on="1"/>
        <pt x="284" y="1447" on="1"/>
      </contour>
    </TTGlyph>
    <TTGlyph name="uni06D1" xMin="142" yMin="226" xMax="842" yMax="1588">
      <contour>
        <pt x="142" y="226" on="1"/>
        <pt x="142" y="1588" on="1"/>
        <pt x="842" y="1588" on="1"/>
        <pt x="842" y="226" on="1"/>
      </contour>
      <contour>
        <pt x="284" y="368" on="1"/>
        <pt x="700" y="368" on="1"/>
        <pt x="700" y="1447" on="1"/>
        <pt x="284" y="1447" on="1"/>
      </contour>
    </TTGlyph>
    <TTGlyph name="uni06D3" xMin="142" yMin="226" xMax="842" yMax="1588">
      <contour>
        <pt x="142" y="226" on="1"/>
        <pt x="142" y="1588" on="1"/>
        <pt x="842" y="1588" on="1"/>
        <pt x="842" y="226" on="1"/>
      </contour>
      <contour>
        <pt x="284" y="368" on="1"/>
        <pt x="700" y="368" on="1"/>
        <pt x="700" y="1447" on="1"/>
        <pt x="284" y="1447" on="1"/>
      </contour>
    </TTGlyph>
    <TTGlyph name="uni06D4" xMin="142" yMin="226" xMax="842" yMax="1588">
      <contour>
        <pt x="142" y="226" on="1"/>
        <pt x="142" y="1588" on="1"/>
        <pt x="842" y="1588" on="1"/>
        <pt x="842" y="226" on="1"/>
      </contour>
      <contour>
        <pt x="284" y="368" on="1"/>
        <pt x="700" y="368" on="1"/>
        <pt x="700" y="1447" on="1"/>
        <pt x="284" y="1447" on="1"/>
      </contour>
    </TTGlyph>
    <TTGlyph name="uni06F0" xMin="142" yMin="226" xMax="842" yMax="1588">
      <contour>
        <pt x="142" y="226" on="1"/>
        <pt x="142" y="1588" on="1"/>
        <pt x="842" y="1588" on="1"/>
        <pt x="842" y="226" on="1"/>
      </contour>
      <contour>
        <pt x="284" y="368" on="1"/>
        <pt x="700" y="368" on="1"/>
        <pt x="700" y="1447" on="1"/>
        <pt x="284" y="1447" on="1"/>
      </contour>
    </TTGlyph>
    <TTGlyph name="uni06F1" xMin="142" yMin="226" xMax="842" yMax="1588">
      <contour>
        <pt x="142" y="226" on="1"/>
        <pt x="142" y="1588" on="1"/>
        <pt x="842" y="1588" on="1"/>
        <pt x="842" y="226" on="1"/>
      </contour>
      <contour>
        <pt x="284" y="368" on="1"/>
        <pt x="700" y="368" on="1"/>
        <pt x="700" y="1447" on="1"/>
        <pt x="284" y="1447" on="1"/>
      </contour>
    </TTGlyph>
    <TTGlyph name="uni06F2" xMin="142" yMin="226" xMax="842" yMax="1588">
      <contour>
        <pt x="142" y="226" on="1"/>
        <pt x="142" y="1588" on="1"/>
        <pt x="842" y="1588" on="1"/>
        <pt x="842" y="226" on="1"/>
      </contour>
      <contour>
        <pt x="284" y="368" on="1"/>
        <pt x="700" y="368" on="1"/>
        <pt x="700" y="1447" on="1"/>
        <pt x="284" y="1447" on="1"/>
      </contour>
    </TTGlyph>
    <TTGlyph name="uni06F3" xMin="142" yMin="226" xMax="842" yMax="1588">
      <contour>
        <pt x="142" y="226" on="1"/>
        <pt x="142" y="1588" on="1"/>
        <pt x="842" y="1588" on="1"/>
        <pt x="842" y="226" on="1"/>
      </contour>
      <contour>
        <pt x="284" y="368" on="1"/>
        <pt x="700" y="368" on="1"/>
        <pt x="700" y="1447" on="1"/>
        <pt x="284" y="1447" on="1"/>
      </contour>
    </TTGlyph>
    <TTGlyph name="uni06F4" xMin="142" yMin="226" xMax="842" yMax="1588">
      <contour>
        <pt x="142" y="226" on="1"/>
        <pt x="142" y="1588" on="1"/>
        <pt x="842" y="1588" on="1"/>
        <pt x="842" y="226" on="1"/>
      </contour>
      <contour>
        <pt x="284" y="368" on="1"/>
        <pt x="700" y="368" on="1"/>
        <pt x="700" y="1447" on="1"/>
        <pt x="284" y="1447" on="1"/>
      </contour>
    </TTGlyph>
    <TTGlyph name="uni06F5" xMin="142" yMin="226" xMax="842" yMax="1588">
      <contour>
        <pt x="142" y="226" on="1"/>
        <pt x="142" y="1588" on="1"/>
        <pt x="842" y="1588" on="1"/>
        <pt x="842" y="226" on="1"/>
      </contour>
      <contour>
        <pt x="284" y="368" on="1"/>
        <pt x="700" y="368" on="1"/>
        <pt x="700" y="1447" on="1"/>
        <pt x="284" y="1447" on="1"/>
      </contour>
    </TTGlyph>
    <TTGlyph name="uni06F6" xMin="142" yMin="226" xMax="842" yMax="1588">
      <contour>
        <pt x="142" y="226" on="1"/>
        <pt x="142" y="1588" on="1"/>
        <pt x="842" y="1588" on="1"/>
        <pt x="842" y="226" on="1"/>
      </contour>
      <contour>
        <pt x="284" y="368" on="1"/>
        <pt x="700" y="368" on="1"/>
        <pt x="700" y="1447" on="1"/>
        <pt x="284" y="1447" on="1"/>
      </contour>
    </TTGlyph>
    <TTGlyph name="uni06F7" xMin="142" yMin="226" xMax="842" yMax="1588">
      <contour>
        <pt x="142" y="226" on="1"/>
        <pt x="142" y="1588" on="1"/>
        <pt x="842" y="1588" on="1"/>
        <pt x="842" y="226" on="1"/>
      </contour>
      <contour>
        <pt x="284" y="368" on="1"/>
        <pt x="700" y="368" on="1"/>
        <pt x="700" y="1447" on="1"/>
        <pt x="284" y="1447" on="1"/>
      </contour>
    </TTGlyph>
    <TTGlyph name="uni06F8" xMin="142" yMin="226" xMax="842" yMax="1588">
      <contour>
        <pt x="142" y="226" on="1"/>
        <pt x="142" y="1588" on="1"/>
        <pt x="842" y="1588" on="1"/>
        <pt x="842" y="226" on="1"/>
      </contour>
      <contour>
        <pt x="284" y="368" on="1"/>
        <pt x="700" y="368" on="1"/>
        <pt x="700" y="1447" on="1"/>
        <pt x="284" y="1447" on="1"/>
      </contour>
    </TTGlyph>
    <TTGlyph name="uni06F9" xMin="142" yMin="226" xMax="842" yMax="1588">
      <contour>
        <pt x="142" y="226" on="1"/>
        <pt x="142" y="1588" on="1"/>
        <pt x="842" y="1588" on="1"/>
        <pt x="842" y="226" on="1"/>
      </contour>
      <contour>
        <pt x="284" y="368" on="1"/>
        <pt x="700" y="368" on="1"/>
        <pt x="700" y="1447" on="1"/>
        <pt x="284" y="1447" on="1"/>
      </contour>
    </TTGlyph>
    <TTGlyph name="uni2010" xMin="2" yMin="-574" xMax="2546" yMax="1785">
      <contour>
        <pt x="2404" y="1042" on="1"/>
        <pt x="2364" y="1018" on="1"/>
        <pt x="2364" y="1029" on="0"/>
        <pt x="2351" y="1055" on="1"/>
        <pt x="2332" y="1080" on="0"/>
        <pt x="2188" y="1203" on="0"/>
        <pt x="2172" y="1226" on="1"/>
        <pt x="2094" y="1335" on="0"/>
        <pt x="2087" y="1449" on="1"/>
        <pt x="2002" y="1431" on="0"/>
        <pt x="2002" y="1248" on="1"/>
        <pt x="2002" y="1160" on="0"/>
        <pt x="2022" y="1110" on="1"/>
        <pt x="1997" y="1131" on="0"/>
        <pt x="1971" y="1153" on="1"/>
        <pt x="1962" y="1201" on="0"/>
        <pt x="1962" y="1248" on="1"/>
        <pt x="1962" y="1351" on="0"/>
        <pt x="2046" y="1502" on="0"/>
        <pt x="2118" y="1523" on="1"/>
        <pt x="2121" y="1372" on="0"/>
        <pt x="2209" y="1254" on="1"/>
        <pt x="2226" y="1230" on="0"/>
        <pt x="2310" y="1158" on="1"/>
        <pt x="2383" y="1094" on="0"/>
        <pt x="2397" y="1063" on="1"/>
        <pt x="2404" y="1033" on="0"/>
      </contour>
      <contour>
        <pt x="2181" y="576" on="1"/>
        <pt x="2181" y="202" on="0"/>
        <pt x="1649" y="-330" on="0"/>
        <pt x="1274" y="-330" on="1"/>
        <pt x="900" y="-330" on="0"/>
        <pt x="367" y="202" on="0"/>
        <pt x="367" y="576" on="1"/>
        <pt x="367" y="939" on="0"/>
        <pt x="623" y="1202" on="1"/>
        <pt x="838" y="1423" on="0"/>
        <pt x="1086" y="1461" on="1"/>
        <pt x="1139" y="1469" on="0"/>
        <pt x="1182" y="1505" on="1"/>
        <pt x="1232" y="1547" on="0"/>
        <pt x="1232" y="1602" on="1"/>
        <pt x="1232" y="1662" on="0"/>
        <pt x="1146" y="1748" on="0"/>
        <pt x="1086" y="1748" on="1"/>
        <pt x="1027" y="1748" on="0"/>
        <pt x="938" y="1662" on="0"/>
        <pt x="938" y="1602" on="1"/>
        <pt x="938" y="1534" on="0"/>
        <pt x="994" y="1488" on="1"/>
        <pt x="882" y="1475" on="0"/>
        <pt x="745" y="1418" on="1"/>
        <pt x="652" y="1380" on="0"/>
        <pt x="584" y="1315" on="1"/>
        <pt x="539" y="1321" on="1"/>
        <pt x="602" y="1394" on="0"/>
        <pt x="739" y="1457" on="1"/>
        <pt x="806" y="1487" on="0"/>
        <pt x="931" y="1512" on="1"/>
        <pt x="901" y="1556" on="0"/>
        <pt x="901" y="1614" on="1"/>
        <pt x="901" y="1688" on="0"/>
        <pt x="960" y="1738" on="1"/>
        <pt x="1015" y="1785" on="0"/>
        <pt x="1086" y="1785" on="1"/>
        <pt x="1160" y="1785" on="0"/>
        <pt x="1216" y="1736" on="1"/>
        <pt x="1274" y="1684" on="0"/>
        <pt x="1274" y="1610" on="1"/>
        <pt x="1274" y="1531" on="0"/>
        <pt x="1214" y="1479" on="1"/>
        <pt x="1236" y="1481" on="0"/>
        <pt x="1274" y="1481" on="1"/>
        <pt x="1314" y="1481" on="0"/>
        <pt x="1335" y="1479" on="1"/>
        <pt x="1274" y="1531" on="0"/>
        <pt x="1274" y="1610" on="1"/>
        <pt x="1274" y="1684" on="0"/>
        <pt x="1332" y="1736" on="1"/>
        <pt x="1387" y="1785" on="0"/>
        <pt x="1462" y="1785" on="1"/>
        <pt x="1534" y="1785" on="0"/>
        <pt x="1589" y="1738" on="1"/>
        <pt x="1649" y="1689" on="0"/>
        <pt x="1649" y="1614" on="1"/>
        <pt x="1649" y="1556" on="0"/>
        <pt x="1619" y="1512" on="1"/>
        <pt x="1740" y="1488" on="0"/>
        <pt x="1808" y="1457" on="1"/>
        <pt x="1944" y="1396" on="0"/>
        <pt x="2010" y="1321" on="1"/>
        <pt x="1966" y="1315" on="1"/>
        <pt x="1892" y="1382" on="0"/>
        <pt x="1803" y="1418" on="1"/>
        <pt x="1663" y="1476" on="0"/>
        <pt x="1554" y="1488" on="1"/>
        <pt x="1608" y="1532" on="0"/>
        <pt x="1608" y="1602" on="1"/>
        <pt x="1608" y="1662" on="0"/>
        <pt x="1522" y="1748" on="0"/>
        <pt x="1462" y="1748" on="1"/>
        <pt x="1403" y="1748" on="0"/>
        <pt x="1317" y="1662" on="0"/>
        <pt x="1317" y="1602" on="1"/>
        <pt x="1317" y="1547" on="0"/>
        <pt x="1367" y="1505" on="1"/>
        <pt x="1409" y="1469" on="0"/>
        <pt x="1462" y="1461" on="1"/>
        <pt x="1712" y="1423" on="0"/>
        <pt x="1926" y="1202" on="1"/>
        <pt x="2181" y="940" on="0"/>
      </contour>
      <contour>
        <pt x="580" y="1153" on="1"/>
        <pt x="524" y="1105" on="0"/>
        <pt x="525" y="1110" on="1"/>
        <pt x="546" y="1161" on="0"/>
        <pt x="546" y="1249" on="1"/>
        <pt x="546" y="1431" on="0"/>
        <pt x="463" y="1449" on="1"/>
        <pt x="456" y="1333" on="0"/>
        <pt x="378" y="1226" on="1"/>
        <pt x="362" y="1203" on="0"/>
        <pt x="217" y="1081" on="0"/>
        <pt x="198" y="1055" on="1"/>
        <pt x="185" y="1029" on="0"/>
        <pt x="185" y="1018" on="1"/>
        <pt x="146" y="1042" on="1"/>
        <pt x="146" y="1053" on="0"/>
        <pt x="154" y="1063" on="1"/>
        <pt x="167" y="1094" on="0"/>
        <pt x="240" y="1158" on="1"/>
        <pt x="324" y="1230" on="0"/>
        <pt x="341" y="1254" on="1"/>
        <pt x="426" y="1368" on="0"/>
        <pt x="432" y="1523" on="1"/>
        <pt x="503" y="1502" on="0"/>
        <pt x="589" y="1350" on="0"/>
        <pt x="589" y="1247" on="1"/>
        <pt x="589" y="1200" on="0"/>
      </contour>
      <contour>
        <pt x="2546" y="1105" on="1"/>
        <pt x="2478" y="1004" on="0"/>
        <pt x="2485" y="819" on="1"/>
        <pt x="2487" y="784" on="0"/>
        <pt x="2532" y="637" on="0"/>
        <pt x="2533" y="605" on="1"/>
        <pt x="2535" y="569" on="0"/>
        <pt x="2472" y="496" on="0"/>
        <pt x="2439" y="496" on="1"/>
        <pt x="2391" y="496" on="0"/>
        <pt x="2369" y="520" on="1"/>
        <pt x="2369" y="67" on="0"/>
        <pt x="1729" y="-574" on="0"/>
        <pt x="1274" y="-574" on="1"/>
        <pt x="820" y="-574" on="0"/>
        <pt x="179" y="67" on="0"/>
        <pt x="179" y="520" on="1"/>
        <pt x="158" y="496" on="0"/>
        <pt x="111" y="496" on="1"/>
        <pt x="78" y="496" on="0"/>
        <pt x="13" y="569" on="0"/>
        <pt x="15" y="605" on="1"/>
        <pt x="17" y="637" on="0"/>
        <pt x="62" y="785" on="0"/>
        <pt x="63" y="819" on="1"/>
        <pt x="71" y="1004" on="0"/>
        <pt x="2" y="1105" on="1"/>
        <pt x="202" y="1092" on="0"/>
        <pt x="263" y="945" on="1"/>
        <pt x="258" y="822" on="1"/>
        <pt x="253" y="895" on="0"/>
        <pt x="209" y="962" on="1"/>
        <pt x="154" y="1046" on="0"/>
        <pt x="67" y="1049" on="1"/>
        <pt x="105" y="992" on="0"/>
        <pt x="105" y="819" on="1"/>
        <pt x="105" y="787" on="0"/>
        <pt x="85" y="718" on="1"/>
        <pt x="63" y="646" on="0"/>
        <pt x="61" y="618" on="1"/>
        <pt x="58" y="542" on="0"/>
        <pt x="131" y="542" on="1"/>
        <pt x="170" y="542" on="0"/>
        <pt x="204" y="594" on="1"/>
        <pt x="214" y="609" on="0"/>
        <pt x="226" y="623" on="1"/>
        <pt x="220" y="561" on="0"/>
        <pt x="220" y="520" on="1"/>
        <pt x="220" y="91" on="0"/>
        <pt x="842" y="-521" on="0"/>
        <pt x="1274" y="-521" on="1"/>
        <pt x="1707" y="-521" on="0"/>
        <pt x="2330" y="91" on="0"/>
        <pt x="2330" y="520" on="1"/>
        <pt x="2330" y="561" on="0"/>
        <pt x="2324" y="623" on="1"/>
        <pt x="2336" y="609" on="0"/>
        <pt x="2347" y="595" on="1"/>
        <pt x="2380" y="542" on="0"/>
        <pt x="2417" y="542" on="1"/>
        <pt x="2493" y="542" on="0"/>
        <pt x="2489" y="618" on="1"/>
        <pt x="2487" y="646" on="0"/>
        <pt x="2465" y="718" on="1"/>
        <pt x="2442" y="787" on="0"/>
        <pt x="2442" y="819" on="1"/>
        <pt x="2442" y="990" on="0"/>
        <pt x="2483" y="1049" on="1"/>
        <pt x="2397" y="1046" on="0"/>
        <pt x="2340" y="962" on="1"/>
        <pt x="2295" y="895" on="0"/>
        <pt x="2290" y="822" on="1"/>
        <pt x="2288" y="945" on="1"/>
        <pt x="2348" y="1092" on="0"/>
      </contour>
      <contour>
        <pt x="2135" y="576" on="1"/>
        <pt x="2135" y="930" on="0"/>
        <pt x="1895" y="1173" on="1"/>
        <pt x="1708" y="1362" on="0"/>
        <pt x="1466" y="1418" on="1"/>
        <pt x="1386" y="1437" on="0"/>
        <pt x="1274" y="1437" on="1"/>
        <pt x="1164" y="1437" on="0"/>
        <pt x="1084" y="1418" on="1"/>
        <pt x="841" y="1362" on="0"/>
        <pt x="654" y="1173" on="1"/>
        <pt x="415" y="931" on="0"/>
        <pt x="415" y="576" on="1"/>
        <pt x="415" y="218" on="0"/>
        <pt x="916" y="-285" on="0"/>
        <pt x="1274" y="-285" on="1"/>
        <pt x="1633" y="-285" on="0"/>
        <pt x="2135" y="218" on="0"/>
      </contour>
      <contour>
        <pt x="1459" y="318" on="1"/>
        <pt x="1459" y="248" on="0"/>
        <pt x="1354" y="203" on="1"/>
        <pt x="1278" y="170" on="0"/>
        <pt x="1234" y="170" on="1"/>
        <pt x="1164" y="170" on="0"/>
        <pt x="1132" y="213" on="1"/>
        <pt x="1142" y="280" on="0"/>
        <pt x="1183" y="430" on="1"/>
        <pt x="1142" y="451" on="0"/>
        <pt x="1092" y="499" on="1"/>
        <pt x="1091" y="509" on="0"/>
        <pt x="1091" y="519" on="1"/>
        <pt x="1091" y="594" on="0"/>
        <pt x="1133" y="669" on="1"/>
        <pt x="1180" y="750" on="0"/>
        <pt x="1259" y="794" on="1"/>
        <pt x="1296" y="794" on="0"/>
        <pt x="1296" y="768" on="1"/>
        <pt x="1296" y="756" on="0"/>
        <pt x="1204" y="633" on="0"/>
        <pt x="1204" y="620" on="1"/>
        <pt x="1204" y="606" on="0"/>
        <pt x="1227" y="594" on="1"/>
        <pt x="1245" y="584" on="0"/>
        <pt x="1263" y="574" on="1"/>
        <pt x="1306" y="541" on="0"/>
        <pt x="1306" y="482" on="1"/>
        <pt x="1306" y="483" on="0"/>
        <pt x="1244" y="329" on="1"/>
        <pt x="1273" y="303" on="0"/>
        <pt x="1306" y="303" on="1"/>
        <pt x="1321" y="303" on="0"/>
        <pt x="1370" y="319" on="1"/>
        <pt x="1434" y="340" on="0"/>
        <pt x="1446" y="343" on="1"/>
        <pt x="1459" y="342" on="0"/>
      </contour>
    </TTGlyph>
    <TTGlyph name="uni2011" xMin="2" yMin="-574" xMax="2546" yMax="1785">
      <contour>
        <pt x="2404" y="1042" on="1"/>
        <pt x="2364" y="1018" on="1"/>
        <pt x="2364" y="1029" on="0"/>
        <pt x="2351" y="1055" on="1"/>
        <pt x="2332" y="1080" on="0"/>
        <pt x="2188" y="1203" on="0"/>
        <pt x="2172" y="1226" on="1"/>
        <pt x="2094" y="1335" on="0"/>
        <pt x="2087" y="1449" on="1"/>
        <pt x="2002" y="1431" on="0"/>
        <pt x="2002" y="1248" on="1"/>
        <pt x="2002" y="1160" on="0"/>
        <pt x="2022" y="1110" on="1"/>
        <pt x="1997" y="1131" on="0"/>
        <pt x="1971" y="1153" on="1"/>
        <pt x="1962" y="1201" on="0"/>
        <pt x="1962" y="1248" on="1"/>
        <pt x="1962" y="1351" on="0"/>
        <pt x="2046" y="1502" on="0"/>
        <pt x="2118" y="1523" on="1"/>
        <pt x="2121" y="1372" on="0"/>
        <pt x="2209" y="1254" on="1"/>
        <pt x="2226" y="1230" on="0"/>
        <pt x="2310" y="1158" on="1"/>
        <pt x="2383" y="1094" on="0"/>
        <pt x="2397" y="1063" on="1"/>
        <pt x="2404" y="1033" on="0"/>
      </contour>
      <contour>
        <pt x="2181" y="576" on="1"/>
        <pt x="2181" y="202" on="0"/>
        <pt x="1649" y="-330" on="0"/>
        <pt x="1274" y="-330" on="1"/>
        <pt x="900" y="-330" on="0"/>
        <pt x="367" y="202" on="0"/>
        <pt x="367" y="576" on="1"/>
        <pt x="367" y="939" on="0"/>
        <pt x="623" y="1202" on="1"/>
        <pt x="838" y="1423" on="0"/>
        <pt x="1086" y="1461" on="1"/>
        <pt x="1139" y="1469" on="0"/>
        <pt x="1182" y="1505" on="1"/>
        <pt x="1232" y="1547" on="0"/>
        <pt x="1232" y="1602" on="1"/>
        <pt x="1232" y="1662" on="0"/>
        <pt x="1146" y="1748" on="0"/>
        <pt x="1086" y="1748" on="1"/>
        <pt x="1027" y="1748" on="0"/>
        <pt x="938" y="1662" on="0"/>
        <pt x="938" y="1602" on="1"/>
        <pt x="938" y="1534" on="0"/>
        <pt x="994" y="1488" on="1"/>
        <pt x="882" y="1475" on="0"/>
        <pt x="745" y="1418" on="1"/>
        <pt x="652" y="1380" on="0"/>
        <pt x="584" y="1315" on="1"/>
        <pt x="539" y="1321" on="1"/>
        <pt x="602" y="1394" on="0"/>
        <pt x="739" y="1457" on="1"/>
        <pt x="806" y="1487" on="0"/>
        <pt x="931" y="1512" on="1"/>
        <pt x="901" y="1556" on="0"/>
        <pt x="901" y="1614" on="1"/>
        <pt x="901" y="1688" on="0"/>
        <pt x="960" y="1738" on="1"/>
        <pt x="1015" y="1785" on="0"/>
        <pt x="1086" y="1785" on="1"/>
        <pt x="1160" y="1785" on="0"/>
        <pt x="1216" y="1736" on="1"/>
        <pt x="1274" y="1684" on="0"/>
        <pt x="1274" y="1610" on="1"/>
        <pt x="1274" y="1531" on="0"/>
        <pt x="1214" y="1479" on="1"/>
        <pt x="1236" y="1481" on="0"/>
        <pt x="1274" y="1481" on="1"/>
        <pt x="1314" y="1481" on="0"/>
        <pt x="1335" y="1479" on="1"/>
        <pt x="1274" y="1531" on="0"/>
        <pt x="1274" y="1610" on="1"/>
        <pt x="1274" y="1684" on="0"/>
        <pt x="1332" y="1736" on="1"/>
        <pt x="1387" y="1785" on="0"/>
        <pt x="1462" y="1785" on="1"/>
        <pt x="1534" y="1785" on="0"/>
        <pt x="1589" y="1738" on="1"/>
        <pt x="1649" y="1689" on="0"/>
        <pt x="1649" y="1614" on="1"/>
        <pt x="1649" y="1556" on="0"/>
        <pt x="1619" y="1512" on="1"/>
        <pt x="1740" y="1488" on="0"/>
        <pt x="1808" y="1457" on="1"/>
        <pt x="1944" y="1396" on="0"/>
        <pt x="2010" y="1321" on="1"/>
        <pt x="1966" y="1315" on="1"/>
        <pt x="1892" y="1382" on="0"/>
        <pt x="1803" y="1418" on="1"/>
        <pt x="1663" y="1476" on="0"/>
        <pt x="1554" y="1488" on="1"/>
        <pt x="1608" y="1532" on="0"/>
        <pt x="1608" y="1602" on="1"/>
        <pt x="1608" y="1662" on="0"/>
        <pt x="1522" y="1748" on="0"/>
        <pt x="1462" y="1748" on="1"/>
        <pt x="1403" y="1748" on="0"/>
        <pt x="1317" y="1662" on="0"/>
        <pt x="1317" y="1602" on="1"/>
        <pt x="1317" y="1547" on="0"/>
        <pt x="1367" y="1505" on="1"/>
        <pt x="1409" y="1469" on="0"/>
        <pt x="1462" y="1461" on="1"/>
        <pt x="1712" y="1423" on="0"/>
        <pt x="1926" y="1202" on="1"/>
        <pt x="2181" y="940" on="0"/>
      </contour>
      <contour>
        <pt x="580" y="1153" on="1"/>
        <pt x="524" y="1105" on="0"/>
        <pt x="525" y="1110" on="1"/>
        <pt x="546" y="1161" on="0"/>
        <pt x="546" y="1249" on="1"/>
        <pt x="546" y="1431" on="0"/>
        <pt x="463" y="1449" on="1"/>
        <pt x="456" y="1333" on="0"/>
        <pt x="378" y="1226" on="1"/>
        <pt x="362" y="1203" on="0"/>
        <pt x="217" y="1081" on="0"/>
        <pt x="198" y="1055" on="1"/>
        <pt x="185" y="1029" on="0"/>
        <pt x="185" y="1018" on="1"/>
        <pt x="146" y="1042" on="1"/>
        <pt x="146" y="1053" on="0"/>
        <pt x="154" y="1063" on="1"/>
        <pt x="167" y="1094" on="0"/>
        <pt x="240" y="1158" on="1"/>
        <pt x="324" y="1230" on="0"/>
        <pt x="341" y="1254" on="1"/>
        <pt x="426" y="1368" on="0"/>
        <pt x="432" y="1523" on="1"/>
        <pt x="503" y="1502" on="0"/>
        <pt x="589" y="1350" on="0"/>
        <pt x="589" y="1247" on="1"/>
        <pt x="589" y="1200" on="0"/>
      </contour>
      <contour>
        <pt x="2546" y="1105" on="1"/>
        <pt x="2478" y="1004" on="0"/>
        <pt x="2485" y="819" on="1"/>
        <pt x="2487" y="784" on="0"/>
        <pt x="2532" y="637" on="0"/>
        <pt x="2533" y="605" on="1"/>
        <pt x="2535" y="569" on="0"/>
        <pt x="2472" y="496" on="0"/>
        <pt x="2439" y="496" on="1"/>
        <pt x="2391" y="496" on="0"/>
        <pt x="2369" y="520" on="1"/>
        <pt x="2369" y="67" on="0"/>
        <pt x="1729" y="-574" on="0"/>
        <pt x="1274" y="-574" on="1"/>
        <pt x="820" y="-574" on="0"/>
        <pt x="179" y="67" on="0"/>
        <pt x="179" y="520" on="1"/>
        <pt x="158" y="496" on="0"/>
        <pt x="111" y="496" on="1"/>
        <pt x="78" y="496" on="0"/>
        <pt x="13" y="569" on="0"/>
        <pt x="15" y="605" on="1"/>
        <pt x="17" y="637" on="0"/>
        <pt x="62" y="785" on="0"/>
        <pt x="63" y="819" on="1"/>
        <pt x="71" y="1004" on="0"/>
        <pt x="2" y="1105" on="1"/>
        <pt x="202" y="1092" on="0"/>
        <pt x="263" y="945" on="1"/>
        <pt x="258" y="822" on="1"/>
        <pt x="253" y="895" on="0"/>
        <pt x="209" y="962" on="1"/>
        <pt x="154" y="1046" on="0"/>
        <pt x="67" y="1049" on="1"/>
        <pt x="105" y="992" on="0"/>
        <pt x="105" y="819" on="1"/>
        <pt x="105" y="787" on="0"/>
        <pt x="85" y="718" on="1"/>
        <pt x="63" y="646" on="0"/>
        <pt x="61" y="618" on="1"/>
        <pt x="58" y="542" on="0"/>
        <pt x="131" y="542" on="1"/>
        <pt x="170" y="542" on="0"/>
        <pt x="204" y="594" on="1"/>
        <pt x="214" y="609" on="0"/>
        <pt x="226" y="623" on="1"/>
        <pt x="220" y="561" on="0"/>
        <pt x="220" y="520" on="1"/>
        <pt x="220" y="91" on="0"/>
        <pt x="842" y="-521" on="0"/>
        <pt x="1274" y="-521" on="1"/>
        <pt x="1707" y="-521" on="0"/>
        <pt x="2330" y="91" on="0"/>
        <pt x="2330" y="520" on="1"/>
        <pt x="2330" y="561" on="0"/>
        <pt x="2324" y="623" on="1"/>
        <pt x="2336" y="609" on="0"/>
        <pt x="2347" y="595" on="1"/>
        <pt x="2380" y="542" on="0"/>
        <pt x="2417" y="542" on="1"/>
        <pt x="2493" y="542" on="0"/>
        <pt x="2489" y="618" on="1"/>
        <pt x="2487" y="646" on="0"/>
        <pt x="2465" y="718" on="1"/>
        <pt x="2442" y="787" on="0"/>
        <pt x="2442" y="819" on="1"/>
        <pt x="2442" y="990" on="0"/>
        <pt x="2483" y="1049" on="1"/>
        <pt x="2397" y="1046" on="0"/>
        <pt x="2340" y="962" on="1"/>
        <pt x="2295" y="895" on="0"/>
        <pt x="2290" y="822" on="1"/>
        <pt x="2288" y="945" on="1"/>
        <pt x="2348" y="1092" on="0"/>
      </contour>
      <contour>
        <pt x="2135" y="576" on="1"/>
        <pt x="2135" y="930" on="0"/>
        <pt x="1895" y="1173" on="1"/>
        <pt x="1708" y="1362" on="0"/>
        <pt x="1466" y="1418" on="1"/>
        <pt x="1386" y="1437" on="0"/>
        <pt x="1274" y="1437" on="1"/>
        <pt x="1164" y="1437" on="0"/>
        <pt x="1084" y="1418" on="1"/>
        <pt x="841" y="1362" on="0"/>
        <pt x="654" y="1173" on="1"/>
        <pt x="415" y="931" on="0"/>
        <pt x="415" y="576" on="1"/>
        <pt x="415" y="218" on="0"/>
        <pt x="916" y="-285" on="0"/>
        <pt x="1274" y="-285" on="1"/>
        <pt x="1633" y="-285" on="0"/>
        <pt x="2135" y="218" on="0"/>
      </contour>
      <contour>
        <pt x="1459" y="318" on="1"/>
        <pt x="1459" y="248" on="0"/>
        <pt x="1354" y="203" on="1"/>
        <pt x="1278" y="170" on="0"/>
        <pt x="1234" y="170" on="1"/>
        <pt x="1164" y="170" on="0"/>
        <pt x="1132" y="213" on="1"/>
        <pt x="1142" y="280" on="0"/>
        <pt x="1183" y="430" on="1"/>
        <pt x="1142" y="451" on="0"/>
        <pt x="1092" y="499" on="1"/>
        <pt x="1091" y="509" on="0"/>
        <pt x="1091" y="519" on="1"/>
        <pt x="1091" y="594" on="0"/>
        <pt x="1133" y="669" on="1"/>
        <pt x="1180" y="750" on="0"/>
        <pt x="1259" y="794" on="1"/>
        <pt x="1296" y="794" on="0"/>
        <pt x="1296" y="768" on="1"/>
        <pt x="1296" y="756" on="0"/>
        <pt x="1204" y="633" on="0"/>
        <pt x="1204" y="620" on="1"/>
        <pt x="1204" y="606" on="0"/>
        <pt x="1227" y="594" on="1"/>
        <pt x="1245" y="584" on="0"/>
        <pt x="1263" y="574" on="1"/>
        <pt x="1306" y="541" on="0"/>
        <pt x="1306" y="482" on="1"/>
        <pt x="1306" y="483" on="0"/>
        <pt x="1244" y="329" on="1"/>
        <pt x="1273" y="303" on="0"/>
        <pt x="1306" y="303" on="1"/>
        <pt x="1321" y="303" on="0"/>
        <pt x="1370" y="319" on="1"/>
        <pt x="1434" y="340" on="0"/>
        <pt x="1446" y="343" on="1"/>
        <pt x="1459" y="342" on="0"/>
      </contour>
    </TTGlyph>
    <TTGlyph name="uniE000" xMin="0" yMin="0" xMax="1360" yMax="1360">
      <contour>
        <pt x="0" y="1360" on="1"/>
        <pt x="1360" y="1360" on="1"/>
        <pt x="1360" y="0" on="1"/>
        <pt x="0" y="0" on="1"/>
      </contour>
    </TTGlyph>
    <TTGlyph name="uniFB51" xMin="262" yMin="-481" xMax="5525" yMax="1617">
      <contour>
        <pt x="5525" y="1085" on="1"/>
        <pt x="5525" y="1041" on="0"/>
        <pt x="5502" y="1027" on="1"/>
        <pt x="5470" y="1007" on="0"/>
        <pt x="5101" y="809" on="1"/>
        <pt x="5057" y="809" on="1"/>
        <pt x="5044" y="822" on="0"/>
        <pt x="5044" y="840" on="1"/>
        <pt x="5044" y="891" on="0"/>
        <pt x="5069" y="907" on="1"/>
        <pt x="5411" y="1116" on="0"/>
        <pt x="5460" y="1116" on="1"/>
        <pt x="5511" y="1116" on="1"/>
        <pt x="5525" y="1102" on="0"/>
      </contour>
      <contour>
        <pt x="5064" y="1311" on="1"/>
        <pt x="5064" y="1266" on="0"/>
        <pt x="4918" y="1136" on="0"/>
        <pt x="4875" y="1136" on="1"/>
        <pt x="4825" y="1136" on="0"/>
        <pt x="4698" y="1158" on="1"/>
        <pt x="4686" y="1171" on="0"/>
        <pt x="4686" y="1188" on="1"/>
        <pt x="4686" y="1229" on="0"/>
        <pt x="4729" y="1255" on="1"/>
        <pt x="4768" y="1266" on="0"/>
        <pt x="4830" y="1301" on="1"/>
        <pt x="4865" y="1340" on="0"/>
        <pt x="4900" y="1379" on="1"/>
        <pt x="4935" y="1413" on="0"/>
        <pt x="4972" y="1413" on="1"/>
        <pt x="5064" y="1413" on="0"/>
      </contour>
      <contour>
        <pt x="4869" y="241" on="1"/>
        <pt x="4869" y="67" on="0"/>
        <pt x="4791" y="21" on="1"/>
        <pt x="4696" y="860" on="1"/>
        <pt x="4696" y="983" on="0"/>
        <pt x="4750" y="1044" on="1"/>
        <pt x="4791" y="1026" on="0"/>
        <pt x="4797" y="970" on="1"/>
        <pt x="4799" y="923" on="0"/>
        <pt x="4800" y="876" on="1"/>
        <pt x="4803" y="857" on="0"/>
        <pt x="4849" y="537" on="1"/>
        <pt x="4869" y="395" on="0"/>
      </contour>
      <contour>
        <pt x="5463" y="82" on="1"/>
        <pt x="5463" y="-43" on="0"/>
        <pt x="5366" y="-177" on="1"/>
        <pt x="5265" y="-317" on="0"/>
        <pt x="5112" y="-385" on="1"/>
        <pt x="5083" y="-399" on="0"/>
        <pt x="4962" y="-399" on="1"/>
        <pt x="4724" y="-399" on="0"/>
        <pt x="4604" y="-356" on="1"/>
        <pt x="4604" y="-320" on="1"/>
        <pt x="4628" y="-297" on="0"/>
        <pt x="4665" y="-297" on="1"/>
        <pt x="4677" y="-297" on="0"/>
        <pt x="4831" y="-317" on="0"/>
        <pt x="4844" y="-317" on="1"/>
        <pt x="4970" y="-317" on="0"/>
        <pt x="5108" y="-236" on="1"/>
        <pt x="5257" y="-147" on="0"/>
        <pt x="5361" y="6" on="1"/>
        <pt x="5353" y="42" on="1"/>
        <pt x="5276" y="0" on="0"/>
        <pt x="5233" y="0" on="1"/>
        <pt x="5175" y="0" on="0"/>
        <pt x="5138" y="52" on="1"/>
        <pt x="5105" y="98" on="0"/>
        <pt x="5105" y="159" on="1"/>
        <pt x="5105" y="221" on="0"/>
        <pt x="5151" y="310" on="1"/>
        <pt x="5208" y="419" on="0"/>
        <pt x="5279" y="419" on="1"/>
        <pt x="5367" y="419" on="0"/>
        <pt x="5423" y="264" on="1"/>
        <pt x="5463" y="152" on="0"/>
      </contour>
      <contour>
        <pt x="4020" y="1311" on="1"/>
        <pt x="4020" y="1265" on="0"/>
        <pt x="3863" y="1204" on="1"/>
        <pt x="3420" y="1035" on="0"/>
        <pt x="3419" y="1035" on="1"/>
        <pt x="3388" y="1035" on="1"/>
        <pt x="3364" y="1059" on="1"/>
        <pt x="3373" y="1086" on="0"/>
        <pt x="3398" y="1121" on="1"/>
        <pt x="3529" y="1186" on="0"/>
        <pt x="3750" y="1272" on="1"/>
        <pt x="3956" y="1352" on="0"/>
        <pt x="3979" y="1352" on="1"/>
        <pt x="4020" y="1352" on="0"/>
      </contour>
      <contour>
        <pt x="3876" y="860" on="1"/>
        <pt x="3876" y="847" on="0"/>
        <pt x="3866" y="820" on="1"/>
        <pt x="3853" y="789" on="0"/>
        <pt x="3852" y="783" on="1"/>
        <pt x="3815" y="740" on="0"/>
        <pt x="3746" y="723" on="1"/>
        <pt x="3703" y="713" on="0"/>
        <pt x="3658" y="703" on="1"/>
        <pt x="3578" y="665" on="0"/>
        <pt x="3574" y="665" on="1"/>
        <pt x="3545" y="665" on="0"/>
        <pt x="3477" y="723" on="0"/>
        <pt x="3477" y="747" on="1"/>
        <pt x="3477" y="795" on="0"/>
        <pt x="3532" y="850" on="1"/>
        <pt x="3547" y="845" on="0"/>
        <pt x="3568" y="815" on="1"/>
        <pt x="3587" y="788" on="0"/>
        <pt x="3600" y="788" on="1"/>
        <pt x="3637" y="788" on="0"/>
        <pt x="3648" y="827" on="1"/>
        <pt x="3651" y="853" on="0"/>
        <pt x="3655" y="878" on="1"/>
        <pt x="3711" y="910" on="0"/>
        <pt x="3721" y="910" on="1"/>
        <pt x="3730" y="885" on="0"/>
        <pt x="3750" y="839" on="1"/>
        <pt x="3780" y="870" on="0"/>
        <pt x="3853" y="921" on="1"/>
        <pt x="3876" y="873" on="0"/>
      </contour>
      <contour>
        <pt x="3364" y="1303" on="1"/>
        <pt x="3335" y="1263" on="0"/>
        <pt x="3154" y="1188" on="0"/>
        <pt x="3098" y="1188" on="1"/>
        <pt x="3022" y="1188" on="0"/>
        <pt x="2864" y="1249" on="0"/>
        <pt x="2852" y="1249" on="1"/>
        <pt x="2841" y="1249" on="0"/>
        <pt x="2813" y="1223" on="1"/>
        <pt x="2782" y="1194" on="0"/>
        <pt x="2764" y="1188" on="1"/>
        <pt x="2750" y="1189" on="0"/>
        <pt x="2750" y="1213" on="1"/>
        <pt x="2833" y="1382" on="0"/>
        <pt x="2879" y="1382" on="1"/>
        <pt x="2883" y="1382" on="0"/>
        <pt x="3073" y="1300" on="0"/>
        <pt x="3155" y="1300" on="1"/>
        <pt x="3197" y="1300" on="0"/>
        <pt x="3317" y="1371" on="1"/>
        <pt x="3352" y="1371" on="1"/>
        <pt x="3364" y="1349" on="0"/>
      </contour>
      <contour>
        <pt x="2627" y="1592" on="1"/>
        <pt x="2625" y="1570" on="0"/>
        <pt x="2600" y="1536" on="1"/>
        <pt x="2505" y="1484" on="0"/>
        <pt x="2344" y="1415" on="1"/>
        <pt x="2125" y="1321" on="0"/>
        <pt x="2081" y="1301" on="1"/>
        <pt x="2045" y="1301" on="1"/>
        <pt x="2045" y="1305" on="0"/>
        <pt x="2034" y="1321" on="0"/>
        <pt x="2034" y="1336" on="1"/>
        <pt x="2034" y="1389" on="0"/>
        <pt x="2262" y="1488" on="1"/>
        <pt x="2416" y="1553" on="0"/>
        <pt x="2570" y="1617" on="1"/>
        <pt x="2604" y="1617" on="1"/>
      </contour>
      <contour>
        <pt x="3088" y="604" on="1"/>
        <pt x="3088" y="564" on="0"/>
        <pt x="3067" y="512" on="1"/>
        <pt x="3043" y="454" on="0"/>
        <pt x="3014" y="451" on="1"/>
        <pt x="3007" y="475" on="0"/>
        <pt x="3008" y="560" on="1"/>
        <pt x="3009" y="627" on="0"/>
        <pt x="2983" y="668" on="1"/>
        <pt x="2914" y="775" on="0"/>
        <pt x="2914" y="788" on="1"/>
        <pt x="2914" y="850" on="0"/>
        <pt x="2960" y="850" on="1"/>
        <pt x="3017" y="850" on="0"/>
        <pt x="3058" y="735" on="1"/>
        <pt x="3088" y="649" on="0"/>
      </contour>
      <contour>
        <pt x="2556" y="1254" on="1"/>
        <pt x="2556" y="1242" on="0"/>
        <pt x="2494" y="1126" on="0"/>
        <pt x="2481" y="1119" on="1"/>
        <pt x="2478" y="1117" on="0"/>
        <pt x="2388" y="1092" on="1"/>
        <pt x="2376" y="1089" on="0"/>
        <pt x="2323" y="1069" on="1"/>
        <pt x="2284" y="1054" on="0"/>
        <pt x="2269" y="1054" on="1"/>
        <pt x="2187" y="1054" on="0"/>
        <pt x="2187" y="1126" on="1"/>
        <pt x="2187" y="1141" on="0"/>
        <pt x="2205" y="1180" on="1"/>
        <pt x="2228" y="1230" on="0"/>
        <pt x="2231" y="1238" on="1"/>
        <pt x="2235" y="1238" on="0"/>
        <pt x="2262" y="1248" on="0"/>
        <pt x="2267" y="1248" on="1"/>
        <pt x="2271" y="1221" on="0"/>
        <pt x="2296" y="1167" on="1"/>
        <pt x="2320" y="1179" on="0"/>
        <pt x="2351" y="1216" on="1"/>
        <pt x="2400" y="1273" on="0"/>
        <pt x="2407" y="1280" on="1"/>
        <pt x="2415" y="1275" on="0"/>
        <pt x="2430" y="1245" on="1"/>
        <pt x="2444" y="1218" on="0"/>
        <pt x="2458" y="1218" on="1"/>
        <pt x="2471" y="1218" on="0"/>
        <pt x="2527" y="1275" on="0"/>
        <pt x="2543" y="1280" on="1"/>
        <pt x="2556" y="1278" on="0"/>
      </contour>
      <contour>
        <pt x="2433" y="813" on="1"/>
        <pt x="2433" y="794" on="0"/>
        <pt x="2365" y="717" on="0"/>
        <pt x="2346" y="717" on="1"/>
        <pt x="2314" y="717" on="0"/>
        <pt x="2273" y="743" on="1"/>
        <pt x="2228" y="772" on="0"/>
        <pt x="2228" y="804" on="1"/>
        <pt x="2228" y="822" on="0"/>
        <pt x="2292" y="890" on="0"/>
        <pt x="2315" y="890" on="1"/>
        <pt x="2330" y="890" on="0"/>
        <pt x="2380" y="863" on="1"/>
        <pt x="2433" y="834" on="0"/>
      </contour>
      <contour>
        <pt x="4460" y="271" on="1"/>
        <pt x="4460" y="142" on="0"/>
        <pt x="4375" y="53" on="1"/>
        <pt x="4295" y="-30" on="0"/>
        <pt x="4188" y="-30" on="1"/>
        <pt x="3310" y="-30" on="1"/>
        <pt x="3283" y="-78" on="0"/>
        <pt x="3217" y="-163" on="1"/>
        <pt x="3191" y="-151" on="1"/>
        <pt x="3187" y="-140" on="0"/>
        <pt x="3187" y="-126" on="1"/>
        <pt x="3187" y="-108" on="0"/>
        <pt x="3209" y="-34" on="0"/>
        <pt x="3209" y="-14" on="1"/>
        <pt x="3209" y="26" on="0"/>
        <pt x="3173" y="58" on="1"/>
        <pt x="3164" y="61" on="0"/>
        <pt x="3139" y="61" on="1"/>
        <pt x="3128" y="61" on="0"/>
        <pt x="3082" y="35" on="1"/>
        <pt x="3032" y="7" on="0"/>
        <pt x="3012" y="2" on="1"/>
        <pt x="2752" y="-51" on="0"/>
        <pt x="2627" y="-51" on="1"/>
        <pt x="2516" y="-51" on="0"/>
        <pt x="2405" y="-7" on="1"/>
        <pt x="2396" y="-3" on="0"/>
        <pt x="2356" y="21" on="1"/>
        <pt x="2325" y="41" on="0"/>
        <pt x="2310" y="41" on="1"/>
        <pt x="2298" y="41" on="0"/>
        <pt x="2259" y="24" on="1"/>
        <pt x="2217" y="5" on="0"/>
        <pt x="2204" y="2" on="1"/>
        <pt x="1950" y="-40" on="0"/>
        <pt x="1773" y="-40" on="1"/>
        <pt x="1670" y="-40" on="0"/>
        <pt x="1556" y="-7" on="1"/>
        <pt x="1553" y="-6" on="0"/>
        <pt x="1465" y="82" on="1"/>
        <pt x="1369" y="20" on="0"/>
        <pt x="1335" y="2" on="1"/>
        <pt x="1275" y="-27" on="0"/>
        <pt x="1200" y="-45" on="1"/>
        <pt x="1109" y="-69" on="0"/>
        <pt x="1019" y="-93" on="1"/>
        <pt x="980" y="-102" on="0"/>
        <pt x="810" y="-102" on="1"/>
        <pt x="618" y="-102" on="0"/>
        <pt x="476" y="-58" on="1"/>
        <pt x="262" y="7" on="0"/>
        <pt x="262" y="153" on="1"/>
        <pt x="262" y="204" on="0"/>
        <pt x="311" y="291" on="1"/>
        <pt x="355" y="369" on="0"/>
        <pt x="388" y="398" on="1"/>
        <pt x="425" y="398" on="1"/>
        <pt x="427" y="378" on="0"/>
        <pt x="412" y="317" on="1"/>
        <pt x="396" y="251" on="0"/>
        <pt x="396" y="224" on="1"/>
        <pt x="396" y="66" on="0"/>
        <pt x="806" y="43" on="1"/>
        <pt x="853" y="41" on="0"/>
        <pt x="897" y="41" on="1"/>
        <pt x="918" y="41" on="0"/>
        <pt x="1062" y="66" on="1"/>
        <pt x="1220" y="93" on="0"/>
        <pt x="1311" y="115" on="1"/>
        <pt x="1356" y="126" on="0"/>
        <pt x="1423" y="179" on="1"/>
        <pt x="1496" y="236" on="0"/>
        <pt x="1524" y="296" on="1"/>
        <pt x="1571" y="296" on="1"/>
        <pt x="1571" y="253" on="0"/>
        <pt x="1563" y="216" on="0"/>
        <pt x="1563" y="194" on="1"/>
        <pt x="1563" y="135" on="0"/>
        <pt x="1803" y="102" on="1"/>
        <pt x="1950" y="102" on="0"/>
        <pt x="2089" y="129" on="1"/>
        <pt x="2128" y="132" on="0"/>
        <pt x="2167" y="134" on="1"/>
        <pt x="2208" y="141" on="0"/>
        <pt x="2226" y="184" on="1"/>
        <pt x="2223" y="215" on="0"/>
        <pt x="2231" y="273" on="1"/>
        <pt x="2263" y="353" on="0"/>
        <pt x="2331" y="438" on="1"/>
        <pt x="2415" y="542" on="0"/>
        <pt x="2479" y="542" on="1"/>
        <pt x="2540" y="542" on="0"/>
        <pt x="2576" y="473" on="1"/>
        <pt x="2607" y="416" on="0"/>
        <pt x="2607" y="348" on="1"/>
        <pt x="2607" y="251" on="0"/>
        <pt x="2515" y="148" on="1"/>
        <pt x="2544" y="117" on="0"/>
        <pt x="2616" y="112" on="1"/>
        <pt x="2613" y="112" on="0"/>
        <pt x="2720" y="112" on="1"/>
        <pt x="2878" y="112" on="0"/>
        <pt x="2979" y="135" on="1"/>
        <pt x="3003" y="141" on="0"/>
        <pt x="3074" y="184" on="1"/>
        <pt x="3141" y="225" on="0"/>
        <pt x="3155" y="225" on="1"/>
        <pt x="3169" y="225" on="0"/>
        <pt x="3313" y="133" on="0"/>
        <pt x="3359" y="133" on="1"/>
        <pt x="3405" y="133" on="1"/>
        <pt x="3418" y="133" on="0"/>
        <pt x="3434" y="147" on="1"/>
        <pt x="3456" y="167" on="0"/>
        <pt x="3459" y="170" on="1"/>
        <pt x="3527" y="205" on="0"/>
        <pt x="3663" y="288" on="1"/>
        <pt x="3877" y="440" on="0"/>
        <pt x="3938" y="440" on="1"/>
        <pt x="3991" y="440" on="0"/>
        <pt x="4068" y="409" on="1"/>
        <pt x="4163" y="371" on="0"/>
        <pt x="4163" y="323" on="1"/>
        <pt x="4163" y="291" on="0"/>
        <pt x="4116" y="217" on="1"/>
        <pt x="4075" y="155" on="0"/>
        <pt x="4040" y="119" on="1"/>
        <pt x="4073" y="102" on="0"/>
        <pt x="4112" y="102" on="1"/>
        <pt x="4143" y="102" on="0"/>
        <pt x="4238" y="126" on="1"/>
        <pt x="4329" y="149" on="0"/>
        <pt x="4348" y="160" on="1"/>
        <pt x="4350" y="185" on="0"/>
        <pt x="4350" y="211" on="1"/>
        <pt x="4350" y="313" on="0"/>
        <pt x="4321" y="509" on="1"/>
        <pt x="4288" y="731" on="0"/>
        <pt x="4282" y="834" on="1"/>
        <pt x="4281" y="849" on="0"/>
        <pt x="4235" y="930" on="0"/>
        <pt x="4235" y="963" on="1"/>
        <pt x="4235" y="1010" on="0"/>
        <pt x="4268" y="1071" on="1"/>
        <pt x="4303" y="1137" on="0"/>
        <pt x="4352" y="1167" on="1"/>
        <pt x="4375" y="1153" on="0"/>
        <pt x="4378" y="1108" on="1"/>
        <pt x="4383" y="1048" on="0"/>
        <pt x="4390" y="1032" on="1"/>
        <pt x="4415" y="1021" on="0"/>
        <pt x="4450" y="990" on="1"/>
        <pt x="4388" y="801" on="0"/>
        <pt x="4388" y="793" on="1"/>
        <pt x="4388" y="781" on="0"/>
        <pt x="4460" y="284" on="0"/>
      </contour>
      <contour>
        <pt x="1952" y="594" on="1"/>
        <pt x="1952" y="506" on="0"/>
        <pt x="1919" y="442" on="1"/>
        <pt x="1912" y="441" on="0"/>
        <pt x="1894" y="430" on="1"/>
        <pt x="1884" y="502" on="0"/>
        <pt x="1856" y="628" on="1"/>
        <pt x="1849" y="650" on="0"/>
        <pt x="1801" y="724" on="1"/>
        <pt x="1757" y="793" on="0"/>
        <pt x="1757" y="804" on="1"/>
        <pt x="1757" y="821" on="0"/>
        <pt x="1792" y="870" on="0"/>
        <pt x="1809" y="870" on="1"/>
        <pt x="1865" y="870" on="0"/>
        <pt x="1914" y="734" on="1"/>
        <pt x="1952" y="629" on="0"/>
      </contour>
      <contour>
        <pt x="1112" y="558" on="1"/>
        <pt x="1112" y="541" on="0"/>
        <pt x="1048" y="481" on="0"/>
        <pt x="1030" y="481" on="1"/>
        <pt x="1017" y="481" on="0"/>
        <pt x="946" y="522" on="0"/>
        <pt x="933" y="522" on="1"/>
        <pt x="920" y="522" on="0"/>
        <pt x="844" y="451" on="0"/>
        <pt x="831" y="451" on="1"/>
        <pt x="798" y="451" on="0"/>
        <pt x="713" y="519" on="0"/>
        <pt x="713" y="542" on="1"/>
        <pt x="713" y="568" on="0"/>
        <pt x="778" y="635" on="0"/>
        <pt x="794" y="635" on="1"/>
        <pt x="808" y="635" on="0"/>
        <pt x="894" y="583" on="0"/>
        <pt x="908" y="583" on="1"/>
        <pt x="920" y="583" on="0"/>
        <pt x="1002" y="655" on="0"/>
        <pt x="1015" y="655" on="1"/>
        <pt x="1056" y="655" on="0"/>
        <pt x="1086" y="617" on="1"/>
        <pt x="1112" y="585" on="0"/>
      </contour>
      <contour>
        <pt x="1049" y="-263" on="1"/>
        <pt x="1003" y="-305" on="0"/>
        <pt x="780" y="-397" on="1"/>
        <pt x="575" y="-481" on="0"/>
        <pt x="563" y="-480" on="1"/>
        <pt x="521" y="-480" on="1"/>
        <pt x="508" y="-467" on="0"/>
        <pt x="508" y="-445" on="1"/>
        <pt x="508" y="-397" on="0"/>
        <pt x="562" y="-372" on="1"/>
        <pt x="956" y="-194" on="0"/>
        <pt x="1010" y="-194" on="1"/>
        <pt x="1025" y="-194" on="0"/>
        <pt x="1046" y="-206" on="0"/>
        <pt x="1049" y="-206" on="1"/>
      </contour>
      <contour>
        <pt x="5299" y="188" on="1"/>
        <pt x="5299" y="199" on="0"/>
        <pt x="5278" y="240" on="0"/>
        <pt x="5278" y="244" on="1"/>
        <pt x="5241" y="244" on="1"/>
        <pt x="5219" y="222" on="1"/>
        <pt x="5219" y="186" on="1"/>
        <pt x="5242" y="186" on="0"/>
        <pt x="5264" y="164" on="1"/>
        <pt x="5269" y="169" on="0"/>
        <pt x="5294" y="182" on="0"/>
      </contour>
      <contour>
        <pt x="4009" y="253" on="1"/>
        <pt x="3875" y="287" on="0"/>
        <pt x="3881" y="287" on="1"/>
        <pt x="3836" y="287" on="0"/>
        <pt x="3629" y="166" on="0"/>
        <pt x="3600" y="125" on="1"/>
        <pt x="3706" y="125" on="1"/>
        <pt x="3767" y="120" on="0"/>
        <pt x="3934" y="187" on="1"/>
        <pt x="3986" y="207" on="0"/>
      </contour>
      <contour>
        <pt x="2504" y="292" on="1"/>
        <pt x="2504" y="314" on="0"/>
        <pt x="2479" y="345" on="1"/>
        <pt x="2451" y="378" on="0"/>
        <pt x="2428" y="378" on="1"/>
        <pt x="2403" y="378" on="0"/>
        <pt x="2367" y="344" on="1"/>
        <pt x="2330" y="307" on="0"/>
        <pt x="2330" y="276" on="1"/>
        <pt x="2330" y="215" on="0"/>
        <pt x="2387" y="215" on="1"/>
        <pt x="2403" y="215" on="0"/>
        <pt x="2451" y="240" on="1"/>
        <pt x="2504" y="270" on="0"/>
      </contour>
      <contour>
        <pt x="4957" y="1275" on="1"/>
        <pt x="4947" y="1285" on="0"/>
        <pt x="4931" y="1290" on="1"/>
        <pt x="4889" y="1269" on="0"/>
        <pt x="4876" y="1240" on="1"/>
        <pt x="4913" y="1240" on="1"/>
        <pt x="4930" y="1253" on="0"/>
      </contour>
    </TTGlyph>
    <TTGlyph name="uniFB52" xMin="302" yMin="-156" xMax="2411" yMax="1819">
      <contour>
        <pt x="2247" y="1225" on="1"/>
        <pt x="2247" y="1191" on="0"/>
        <pt x="2121" y="1119" on="1"/>
        <pt x="1957" y="1034" on="0"/>
        <pt x="1629" y="857" on="1"/>
        <pt x="1593" y="857" on="1"/>
        <pt x="1593" y="860" on="0"/>
        <pt x="1582" y="872" on="0"/>
        <pt x="1582" y="886" on="1"/>
        <pt x="1582" y="933" on="0"/>
        <pt x="1636" y="964" on="1"/>
        <pt x="2141" y="1255" on="0"/>
        <pt x="2182" y="1255" on="1"/>
        <pt x="2234" y="1255" on="1"/>
        <pt x="2247" y="1241" on="0"/>
      </contour>
      <contour>
        <pt x="1294" y="1771" on="1"/>
        <pt x="1295" y="1742" on="0"/>
        <pt x="1148" y="1670" on="1"/>
        <pt x="948" y="1573" on="0"/>
        <pt x="902" y="1543" on="1"/>
        <pt x="857" y="1543" on="1"/>
        <pt x="844" y="1556" on="0"/>
        <pt x="844" y="1578" on="1"/>
        <pt x="844" y="1658" on="0"/>
        <pt x="1123" y="1748" on="1"/>
        <pt x="1162" y="1775" on="0"/>
        <pt x="1269" y="1819" on="1"/>
        <pt x="1284" y="1806" on="0"/>
        <pt x="1294" y="1806" on="1"/>
      </contour>
      <contour>
        <pt x="1049" y="1491" on="1"/>
        <pt x="1049" y="1445" on="0"/>
        <pt x="968" y="1407" on="1"/>
        <pt x="916" y="1386" on="0"/>
        <pt x="862" y="1365" on="1"/>
        <pt x="770" y="1308" on="0"/>
        <pt x="653" y="1275" on="1"/>
        <pt x="646" y="1280" on="0"/>
        <pt x="630" y="1291" on="0"/>
        <pt x="630" y="1307" on="1"/>
        <pt x="630" y="1356" on="0"/>
        <pt x="662" y="1374" on="1"/>
        <pt x="937" y="1521" on="0"/>
        <pt x="984" y="1521" on="1"/>
        <pt x="1036" y="1521" on="1"/>
        <pt x="1049" y="1507" on="0"/>
      </contour>
      <contour>
        <pt x="1183" y="1260" on="1"/>
        <pt x="1183" y="1197" on="0"/>
        <pt x="1126" y="1136" on="1"/>
        <pt x="1096" y="1104" on="0"/>
        <pt x="993" y="1088" on="1"/>
        <pt x="987" y="1086" on="0"/>
        <pt x="930" y="1061" on="0"/>
        <pt x="916" y="1061" on="1"/>
        <pt x="879" y="1061" on="0"/>
        <pt x="854" y="1094" on="1"/>
        <pt x="834" y="1120" on="0"/>
        <pt x="834" y="1143" on="1"/>
        <pt x="834" y="1196" on="0"/>
        <pt x="912" y="1244" on="1"/>
        <pt x="917" y="1225" on="0"/>
        <pt x="942" y="1184" on="1"/>
        <pt x="978" y="1225" on="0"/>
        <pt x="1044" y="1296" on="1"/>
        <pt x="1055" y="1271" on="0"/>
        <pt x="1085" y="1214" on="1"/>
        <pt x="1102" y="1242" on="0"/>
        <pt x="1118" y="1270" on="1"/>
        <pt x="1141" y="1307" on="0"/>
        <pt x="1170" y="1305" on="1"/>
        <pt x="1170" y="1302" on="0"/>
        <pt x="1183" y="1275" on="0"/>
      </contour>
      <contour>
        <pt x="2411" y="313" on="1"/>
        <pt x="2411" y="271" on="0"/>
        <pt x="2366" y="183" on="1"/>
        <pt x="2341" y="136" on="0"/>
        <pt x="2189" y="64" on="1"/>
        <pt x="2044" y="-4" on="0"/>
        <pt x="1991" y="-4" on="1"/>
        <pt x="1981" y="-4" on="0"/>
        <pt x="1831" y="-14" on="0"/>
        <pt x="1817" y="-14" on="1"/>
        <pt x="1804" y="-14" on="0"/>
        <pt x="1661" y="6" on="0"/>
        <pt x="1648" y="6" on="1"/>
        <pt x="1625" y="6" on="0"/>
        <pt x="1586" y="-67" on="1"/>
        <pt x="1562" y="-111" on="0"/>
        <pt x="1537" y="-156" on="1"/>
        <pt x="1500" y="-156" on="1"/>
        <pt x="1500" y="-113" on="1"/>
        <pt x="1500" y="-99" on="0"/>
        <pt x="1517" y="-45" on="1"/>
        <pt x="1537" y="18" on="0"/>
        <pt x="1541" y="42" on="1"/>
        <pt x="1497" y="88" on="0"/>
        <pt x="1464" y="88" on="1"/>
        <pt x="1465" y="88" on="0"/>
        <pt x="1272" y="-35" on="0"/>
        <pt x="1167" y="-35" on="1"/>
        <pt x="1154" y="-35" on="0"/>
        <pt x="929" y="16" on="0"/>
        <pt x="916" y="16" on="1"/>
        <pt x="905" y="16" on="0"/>
        <pt x="627" y="-45" on="0"/>
        <pt x="614" y="-45" on="1"/>
        <pt x="602" y="-45" on="0"/>
        <pt x="587" y="-37" on="1"/>
        <pt x="570" y="-29" on="0"/>
        <pt x="562" y="-28" on="1"/>
        <pt x="329" y="7" on="0"/>
        <pt x="329" y="351" on="1"/>
        <pt x="329" y="403" on="0"/>
        <pt x="341" y="585" on="0"/>
        <pt x="341" y="618" on="1"/>
        <pt x="341" y="639" on="0"/>
        <pt x="339" y="655" on="1"/>
        <pt x="302" y="1112" on="1"/>
        <pt x="302" y="1171" on="0"/>
        <pt x="369" y="1225" on="1"/>
        <pt x="427" y="1130" on="0"/>
        <pt x="431" y="984" on="1"/>
        <pt x="432" y="924" on="0"/>
        <pt x="429" y="797" on="1"/>
        <pt x="424" y="650" on="0"/>
        <pt x="424" y="587" on="1"/>
        <pt x="424" y="327" on="0"/>
        <pt x="478" y="197" on="1"/>
        <pt x="494" y="160" on="0"/>
        <pt x="572" y="136" on="1"/>
        <pt x="631" y="119" on="0"/>
        <pt x="676" y="119" on="1"/>
        <pt x="730" y="119" on="0"/>
        <pt x="801" y="158" on="1"/>
        <pt x="803" y="162" on="0"/>
        <pt x="810" y="176" on="1"/>
        <pt x="807" y="192" on="0"/>
        <pt x="807" y="209" on="1"/>
        <pt x="807" y="319" on="0"/>
        <pt x="980" y="559" on="0"/>
        <pt x="1060" y="559" on="1"/>
        <pt x="1127" y="559" on="0"/>
        <pt x="1156" y="453" on="1"/>
        <pt x="1172" y="392" on="0"/>
        <pt x="1172" y="328" on="1"/>
        <pt x="1172" y="278" on="0"/>
        <pt x="1090" y="155" on="1"/>
        <pt x="1106" y="130" on="0"/>
        <pt x="1140" y="127" on="1"/>
        <pt x="1120" y="129" on="0"/>
        <pt x="1192" y="129" on="1"/>
        <pt x="1296" y="129" on="0"/>
        <pt x="1500" y="251" on="0"/>
        <pt x="1495" y="251" on="1"/>
        <pt x="1505" y="251" on="0"/>
        <pt x="1649" y="170" on="0"/>
        <pt x="1664" y="170" on="1"/>
        <pt x="1705" y="170" on="0"/>
        <pt x="2106" y="456" on="0"/>
        <pt x="2165" y="456" on="1"/>
        <pt x="2245" y="456" on="0"/>
        <pt x="2321" y="419" on="1"/>
        <pt x="2411" y="376" on="0"/>
      </contour>
      <contour>
        <pt x="1029" y="830" on="1"/>
        <pt x="1029" y="813" on="0"/>
        <pt x="963" y="733" on="0"/>
        <pt x="947" y="733" on="1"/>
        <pt x="903" y="733" on="0"/>
        <pt x="866" y="768" on="1"/>
        <pt x="834" y="798" on="0"/>
        <pt x="834" y="815" on="1"/>
        <pt x="834" y="836" on="0"/>
        <pt x="859" y="874" on="1"/>
        <pt x="887" y="918" on="0"/>
        <pt x="911" y="918" on="1"/>
        <pt x="940" y="918" on="0"/>
        <pt x="983" y="889" on="1"/>
        <pt x="1029" y="859" on="0"/>
      </contour>
      <contour>
        <pt x="2267" y="259" on="1"/>
        <pt x="2157" y="303" on="0"/>
        <pt x="2119" y="303" on="1"/>
        <pt x="2044" y="303" on="0"/>
        <pt x="1981" y="261" on="1"/>
        <pt x="1969" y="253" on="0"/>
        <pt x="1848" y="153" on="1"/>
        <pt x="1858" y="152" on="0"/>
        <pt x="1917" y="139" on="0"/>
        <pt x="1930" y="139" on="1"/>
        <pt x="2012" y="139" on="0"/>
        <pt x="2122" y="174" on="1"/>
        <pt x="2244" y="213" on="0"/>
      </contour>
      <contour>
        <pt x="1070" y="324" on="1"/>
        <pt x="1070" y="385" on="0"/>
        <pt x="1024" y="385" on="1"/>
        <pt x="989" y="385" on="0"/>
        <pt x="916" y="307" on="0"/>
        <pt x="916" y="278" on="1"/>
        <pt x="916" y="226" on="0"/>
        <pt x="963" y="211" on="1"/>
        <pt x="1026" y="251" on="0"/>
        <pt x="1038" y="261" on="1"/>
        <pt x="1070" y="289" on="0"/>
      </contour>
    </TTGlyph>
    <TTGlyph name="uniFB53" xMin="2" yMin="-574" xMax="2546" yMax="1785">
      <contour>
        <pt x="2404" y="1042" on="1"/>
        <pt x="2364" y="1018" on="1"/>
        <pt x="2364" y="1029" on="0"/>
        <pt x="2351" y="1055" on="1"/>
        <pt x="2332" y="1080" on="0"/>
        <pt x="2188" y="1203" on="0"/>
        <pt x="2172" y="1226" on="1"/>
        <pt x="2094" y="1335" on="0"/>
        <pt x="2087" y="1449" on="1"/>
        <pt x="2002" y="1431" on="0"/>
        <pt x="2002" y="1248" on="1"/>
        <pt x="2002" y="1160" on="0"/>
        <pt x="2022" y="1110" on="1"/>
        <pt x="1997" y="1131" on="0"/>
        <pt x="1971" y="1153" on="1"/>
        <pt x="1962" y="1201" on="0"/>
        <pt x="1962" y="1248" on="1"/>
        <pt x="1962" y="1351" on="0"/>
        <pt x="2046" y="1502" on="0"/>
        <pt x="2118" y="1523" on="1"/>
        <pt x="2121" y="1372" on="0"/>
        <pt x="2209" y="1254" on="1"/>
        <pt x="2226" y="1230" on="0"/>
        <pt x="2310" y="1158" on="1"/>
        <pt x="2383" y="1094" on="0"/>
        <pt x="2397" y="1063" on="1"/>
        <pt x="2404" y="1033" on="0"/>
      </contour>
      <contour>
        <pt x="2181" y="576" on="1"/>
        <pt x="2181" y="202" on="0"/>
        <pt x="1649" y="-330" on="0"/>
        <pt x="1274" y="-330" on="1"/>
        <pt x="900" y="-330" on="0"/>
        <pt x="367" y="202" on="0"/>
        <pt x="367" y="576" on="1"/>
        <pt x="367" y="939" on="0"/>
        <pt x="623" y="1202" on="1"/>
        <pt x="838" y="1423" on="0"/>
        <pt x="1086" y="1461" on="1"/>
        <pt x="1139" y="1469" on="0"/>
        <pt x="1182" y="1505" on="1"/>
        <pt x="1232" y="1547" on="0"/>
        <pt x="1232" y="1602" on="1"/>
        <pt x="1232" y="1662" on="0"/>
        <pt x="1146" y="1748" on="0"/>
        <pt x="1086" y="1748" on="1"/>
        <pt x="1027" y="1748" on="0"/>
        <pt x="938" y="1662" on="0"/>
        <pt x="938" y="1602" on="1"/>
        <pt x="938" y="1534" on="0"/>
        <pt x="994" y="1488" on="1"/>
        <pt x="882" y="1475" on="0"/>
        <pt x="745" y="1418" on="1"/>
        <pt x="652" y="1380" on="0"/>
        <pt x="584" y="1315" on="1"/>
        <pt x="539" y="1321" on="1"/>
        <pt x="602" y="1394" on="0"/>
        <pt x="739" y="1457" on="1"/>
        <pt x="806" y="1487" on="0"/>
        <pt x="931" y="1512" on="1"/>
        <pt x="901" y="1556" on="0"/>
        <pt x="901" y="1614" on="1"/>
        <pt x="901" y="1688" on="0"/>
        <pt x="960" y="1738" on="1"/>
        <pt x="1015" y="1785" on="0"/>
        <pt x="1086" y="1785" on="1"/>
        <pt x="1160" y="1785" on="0"/>
        <pt x="1216" y="1736" on="1"/>
        <pt x="1274" y="1684" on="0"/>
        <pt x="1274" y="1610" on="1"/>
        <pt x="1274" y="1531" on="0"/>
        <pt x="1214" y="1479" on="1"/>
        <pt x="1236" y="1481" on="0"/>
        <pt x="1274" y="1481" on="1"/>
        <pt x="1314" y="1481" on="0"/>
        <pt x="1335" y="1479" on="1"/>
        <pt x="1274" y="1531" on="0"/>
        <pt x="1274" y="1610" on="1"/>
        <pt x="1274" y="1684" on="0"/>
        <pt x="1332" y="1736" on="1"/>
        <pt x="1387" y="1785" on="0"/>
        <pt x="1462" y="1785" on="1"/>
        <pt x="1534" y="1785" on="0"/>
        <pt x="1589" y="1738" on="1"/>
        <pt x="1649" y="1689" on="0"/>
        <pt x="1649" y="1614" on="1"/>
        <pt x="1649" y="1556" on="0"/>
        <pt x="1619" y="1512" on="1"/>
        <pt x="1740" y="1488" on="0"/>
        <pt x="1808" y="1457" on="1"/>
        <pt x="1944" y="1396" on="0"/>
        <pt x="2010" y="1321" on="1"/>
        <pt x="1966" y="1315" on="1"/>
        <pt x="1892" y="1382" on="0"/>
        <pt x="1803" y="1418" on="1"/>
        <pt x="1663" y="1476" on="0"/>
        <pt x="1554" y="1488" on="1"/>
        <pt x="1608" y="1532" on="0"/>
        <pt x="1608" y="1602" on="1"/>
        <pt x="1608" y="1662" on="0"/>
        <pt x="1522" y="1748" on="0"/>
        <pt x="1462" y="1748" on="1"/>
        <pt x="1403" y="1748" on="0"/>
        <pt x="1317" y="1662" on="0"/>
        <pt x="1317" y="1602" on="1"/>
        <pt x="1317" y="1547" on="0"/>
        <pt x="1367" y="1505" on="1"/>
        <pt x="1409" y="1469" on="0"/>
        <pt x="1462" y="1461" on="1"/>
        <pt x="1712" y="1423" on="0"/>
        <pt x="1926" y="1202" on="1"/>
        <pt x="2181" y="940" on="0"/>
      </contour>
      <contour>
        <pt x="580" y="1153" on="1"/>
        <pt x="524" y="1105" on="0"/>
        <pt x="525" y="1110" on="1"/>
        <pt x="546" y="1161" on="0"/>
        <pt x="546" y="1249" on="1"/>
        <pt x="546" y="1431" on="0"/>
        <pt x="463" y="1449" on="1"/>
        <pt x="456" y="1333" on="0"/>
        <pt x="378" y="1226" on="1"/>
        <pt x="362" y="1203" on="0"/>
        <pt x="217" y="1081" on="0"/>
        <pt x="198" y="1055" on="1"/>
        <pt x="185" y="1029" on="0"/>
        <pt x="185" y="1018" on="1"/>
        <pt x="146" y="1042" on="1"/>
        <pt x="146" y="1053" on="0"/>
        <pt x="154" y="1063" on="1"/>
        <pt x="167" y="1094" on="0"/>
        <pt x="240" y="1158" on="1"/>
        <pt x="324" y="1230" on="0"/>
        <pt x="341" y="1254" on="1"/>
        <pt x="426" y="1368" on="0"/>
        <pt x="432" y="1523" on="1"/>
        <pt x="503" y="1502" on="0"/>
        <pt x="589" y="1350" on="0"/>
        <pt x="589" y="1247" on="1"/>
        <pt x="589" y="1200" on="0"/>
      </contour>
      <contour>
        <pt x="2546" y="1105" on="1"/>
        <pt x="2478" y="1004" on="0"/>
        <pt x="2485" y="819" on="1"/>
        <pt x="2487" y="784" on="0"/>
        <pt x="2532" y="637" on="0"/>
        <pt x="2533" y="605" on="1"/>
        <pt x="2535" y="569" on="0"/>
        <pt x="2472" y="496" on="0"/>
        <pt x="2439" y="496" on="1"/>
        <pt x="2391" y="496" on="0"/>
        <pt x="2369" y="520" on="1"/>
        <pt x="2369" y="67" on="0"/>
        <pt x="1729" y="-574" on="0"/>
        <pt x="1274" y="-574" on="1"/>
        <pt x="820" y="-574" on="0"/>
        <pt x="179" y="67" on="0"/>
        <pt x="179" y="520" on="1"/>
        <pt x="158" y="496" on="0"/>
        <pt x="111" y="496" on="1"/>
        <pt x="78" y="496" on="0"/>
        <pt x="13" y="569" on="0"/>
        <pt x="15" y="605" on="1"/>
        <pt x="17" y="637" on="0"/>
        <pt x="62" y="785" on="0"/>
        <pt x="63" y="819" on="1"/>
        <pt x="71" y="1004" on="0"/>
        <pt x="2" y="1105" on="1"/>
        <pt x="202" y="1092" on="0"/>
        <pt x="263" y="945" on="1"/>
        <pt x="258" y="822" on="1"/>
        <pt x="253" y="895" on="0"/>
        <pt x="209" y="962" on="1"/>
        <pt x="154" y="1046" on="0"/>
        <pt x="67" y="1049" on="1"/>
        <pt x="105" y="992" on="0"/>
        <pt x="105" y="819" on="1"/>
        <pt x="105" y="787" on="0"/>
        <pt x="85" y="718" on="1"/>
        <pt x="63" y="646" on="0"/>
        <pt x="61" y="618" on="1"/>
        <pt x="58" y="542" on="0"/>
        <pt x="131" y="542" on="1"/>
        <pt x="170" y="542" on="0"/>
        <pt x="204" y="594" on="1"/>
        <pt x="214" y="609" on="0"/>
        <pt x="226" y="623" on="1"/>
        <pt x="220" y="561" on="0"/>
        <pt x="220" y="520" on="1"/>
        <pt x="220" y="91" on="0"/>
        <pt x="842" y="-521" on="0"/>
        <pt x="1274" y="-521" on="1"/>
        <pt x="1707" y="-521" on="0"/>
        <pt x="2330" y="91" on="0"/>
        <pt x="2330" y="520" on="1"/>
        <pt x="2330" y="561" on="0"/>
        <pt x="2324" y="623" on="1"/>
        <pt x="2336" y="609" on="0"/>
        <pt x="2347" y="595" on="1"/>
        <pt x="2380" y="542" on="0"/>
        <pt x="2417" y="542" on="1"/>
        <pt x="2493" y="542" on="0"/>
        <pt x="2489" y="618" on="1"/>
        <pt x="2487" y="646" on="0"/>
        <pt x="2465" y="718" on="1"/>
        <pt x="2442" y="787" on="0"/>
        <pt x="2442" y="819" on="1"/>
        <pt x="2442" y="990" on="0"/>
        <pt x="2483" y="1049" on="1"/>
        <pt x="2397" y="1046" on="0"/>
        <pt x="2340" y="962" on="1"/>
        <pt x="2295" y="895" on="0"/>
        <pt x="2290" y="822" on="1"/>
        <pt x="2288" y="945" on="1"/>
        <pt x="2348" y="1092" on="0"/>
      </contour>
      <contour>
        <pt x="2135" y="576" on="1"/>
        <pt x="2135" y="930" on="0"/>
        <pt x="1895" y="1173" on="1"/>
        <pt x="1708" y="1362" on="0"/>
        <pt x="1466" y="1418" on="1"/>
        <pt x="1386" y="1437" on="0"/>
        <pt x="1274" y="1437" on="1"/>
        <pt x="1164" y="1437" on="0"/>
        <pt x="1084" y="1418" on="1"/>
        <pt x="841" y="1362" on="0"/>
        <pt x="654" y="1173" on="1"/>
        <pt x="415" y="931" on="0"/>
        <pt x="415" y="576" on="1"/>
        <pt x="415" y="218" on="0"/>
        <pt x="916" y="-285" on="0"/>
        <pt x="1274" y="-285" on="1"/>
        <pt x="1633" y="-285" on="0"/>
        <pt x="2135" y="218" on="0"/>
      </contour>
      <contour>
        <pt x="1368" y="346" on="1"/>
        <pt x="1368" y="291" on="0"/>
        <pt x="1347" y="205" on="1"/>
        <pt x="1341" y="203" on="0"/>
        <pt x="1323" y="193" on="1"/>
        <pt x="1313" y="198" on="0"/>
        <pt x="1300" y="206" on="1"/>
        <pt x="1280" y="329" on="0"/>
        <pt x="1242" y="431" on="1"/>
        <pt x="1227" y="474" on="0"/>
        <pt x="1170" y="593" on="1"/>
        <pt x="1123" y="691" on="0"/>
        <pt x="1123" y="705" on="1"/>
        <pt x="1123" y="733" on="0"/>
        <pt x="1179" y="817" on="1"/>
        <pt x="1200" y="807" on="0"/>
        <pt x="1232" y="773" on="1"/>
        <pt x="1368" y="485" on="0"/>
      </contour>
    </TTGlyph>
</ttFont>
